<?xml version="1.0" encoding="UTF-8"?>
<svg version="1.1" xmlns="http://www.w3.org/2000/svg" width="512" height="1024">
<path d="M0 0 C168.96 0 337.92 0 512 0 C512 337.92 512 675.84 512 1024 C343.04 1024 174.08 1024 0 1024 C0 686.08 0 348.16 0 0 Z " fill="#FEFEFE" transform="translate(0,0)"/>
<path d="M0 0 C0.98983887 -0.00426498 1.97967773 -0.00852997 2.99951172 -0.01292419 C4.08942413 -0.01247101 5.17933655 -0.01201782 6.30227661 -0.0115509 C7.44706482 -0.01490952 8.59185303 -0.01826813 9.77133179 -0.02172852 C13.57218498 -0.03126139 17.37299423 -0.03318282 21.17385864 -0.03425598 C23.80700702 -0.03746702 26.44015522 -0.04083097 29.07330322 -0.04434204 C34.59982592 -0.05074185 40.12633664 -0.05222405 45.65286255 -0.05158997 C52.04100669 -0.05098932 58.42906634 -0.06153763 64.8171891 -0.07733363 C70.96065486 -0.09198366 77.10408008 -0.09557806 83.24756241 -0.09498024 C85.8622993 -0.0961628 88.47703676 -0.10059996 91.09176254 -0.10831261 C94.74533906 -0.11807987 98.39869677 -0.11524721 102.05227661 -0.10920715 C103.68107254 -0.11763641 103.68107254 -0.11763641 105.34277344 -0.12623596 C106.33825195 -0.12204147 107.33373047 -0.11784698 108.359375 -0.11352539 C109.22326277 -0.11407016 110.08715054 -0.11461493 110.97721672 -0.1151762 C113.56782086 0.16161513 115.13509837 0.7006014 117.30667114 2.13371277 C119.67245412 6.67841227 120.82297045 10.86717027 121.65701294 15.93937683 C121.81860397 16.89928528 121.81860397 16.89928528 121.98345947 17.87858582 C122.33287307 19.96751404 122.66957384 22.05826449 123.00588989 24.14933777 C123.24751322 25.61200027 123.48986004 27.07454342 123.7328949 28.53697205 C124.2382437 31.5888666 124.73781997 34.6416263 125.23269653 37.69523621 C125.86709633 41.60947884 126.51140764 45.52200345 127.15944195 49.43400955 C127.77824464 53.17190777 128.39230909 56.91057942 129.00588989 60.64933777 C129.18177423 61.71765209 129.18177423 61.71765209 129.36121178 62.80754852 C129.6915872 64.81981478 130.01814062 66.83270743 130.34451294 68.84562683 C130.53087814 69.99033447 130.71724335 71.13504211 130.90925598 72.31443787 C131.30667114 75.13371277 131.30667114 75.13371277 131.30667114 78.13371277 C132.15938599 78.08150574 132.15938599 78.08150574 133.02932739 78.02824402 C138.48034818 77.83713978 142.60634504 78.06042263 147.30667114 81.13371277 C151.9026938 88.26304672 154.45460396 96.66325607 157.22073364 104.61808777 C157.67985425 105.92220262 158.13961726 107.22609146 158.59997559 108.5297699 C159.8080213 111.95539978 161.00860758 115.38359292 162.20718384 118.81254578 C164.09328989 124.20455276 165.99055635 129.5926484 167.88765144 134.98079681 C168.35993887 136.32298523 168.83173385 137.66534703 169.30303764 139.00788116 C171.92761213 146.48347677 174.58790585 153.94331099 177.34011841 161.37297058 C177.58864437 162.04487301 177.83717033 162.71677544 178.09322739 163.40903854 C179.2709893 166.58997555 180.45530239 169.76808209 181.64996338 172.94273376 C191.30667114 198.90088881 191.30667114 198.90088881 191.30667114 208.13371277 C192.53643677 208.09890808 193.76620239 208.06410339 195.03323364 208.02824402 C196.66603241 208.00009232 198.29884605 207.97279364 199.93167114 207.94621277 C200.73991333 207.92107605 201.54815552 207.89593933 202.38088989 207.87004089 C207.46627775 207.80802397 210.90440803 208.29744554 215.30667114 211.13371277 C220.96285433 217.40137522 220.55315219 222.12433309 220.60183716 230.34513855 C220.61899165 232.36260361 220.66286985 234.3784037 220.70706177 236.39543152 C220.71544067 237.67547058 220.72381958 238.95550964 220.73245239 240.27433777 C220.74703491 241.44512878 220.76161743 242.6159198 220.77664185 243.82218933 C220.05606099 248.89957052 217.57206929 251.96565294 213.86917114 255.38371277 C208.91591173 258.76642651 204.40324751 259.48729108 198.49417114 259.75871277 C197.80130005 259.79738464 197.10842896 259.83605652 196.39456177 259.87590027 C194.699001 259.96944845 193.00287402 260.0526364 191.30667114 260.13371277 C191.08495239 261.30418152 190.86323364 262.47465027 190.63479614 263.68058777 C185.44237247 289.32250243 175.92964341 314.05564523 167.02151489 338.59465027 C165.20336588 343.60923368 163.42917233 348.63694125 161.68063354 353.6762085 C160.43637925 357.25739939 159.18069865 360.83453741 157.92404175 364.41139221 C157.30920478 366.17008422 156.69929366 367.93050684 156.09457397 369.69270325 C155.2448904 372.16616427 154.37734654 374.63269696 153.50588989 377.09855652 C153.25722672 377.83687714 153.00856354 378.57519775 152.75236511 379.33589172 C151.08631271 383.978596 149.17265268 386.8860748 145.30667114 390.13371277 C140.52386057 392.36569103 136.46842785 392.19206767 131.30667114 392.13371277 C130.95084356 394.35266243 130.59517301 396.57163734 130.24002075 398.79069519 C129.90222113 400.89782639 129.56313948 403.00475237 129.22293091 405.11149597 C128.13384376 411.87869805 127.07116571 418.64911392 126.03895569 425.42524719 C125.4329481 429.39497717 124.81887265 433.3634423 124.2041626 437.33183289 C123.89821253 439.32013284 123.59584694 441.30898776 123.29711914 443.29838562 C122.87076941 446.13432856 122.43177785 448.96806516 121.99026489 451.80168152 C121.8653064 452.65394821 121.7403479 453.5062149 121.61160278 454.38430786 C120.86475462 459.08716176 120.03256579 463.12252251 117.30667114 467.13371277 C111.83876071 470.83747292 106.59797951 470.5591446 100.24002075 470.52189636 C98.58289314 470.5297818 98.58289314 470.5297818 96.89228821 470.53782654 C93.24771913 470.55100928 89.60358826 470.54229479 85.95901489 470.53215027 C83.42365943 470.53417134 80.88830453 470.53708306 78.35295105 470.54084778 C73.04278484 470.54526869 67.7327752 470.53913383 62.42263794 470.52482605 C56.28998016 470.50849251 50.15762151 470.51379611 44.02497095 470.53030527 C38.11534704 470.54557502 32.20581582 470.54393956 26.296175 470.53516006 C23.78553793 470.53315816 21.27489322 470.53561697 18.76426506 470.54259872 C15.25727946 470.55021172 11.75086968 470.53861065 8.243927 470.52189636 C7.20534546 470.52796906 6.16676392 470.53404175 5.09671021 470.54029846 C-3.82919351 470.46143155 -3.82919351 470.46143155 -7.69332886 467.13371277 C-10.49174603 464.16467146 -11.21331916 461.69135912 -11.82833862 457.69767761 C-12.00184341 456.60909454 -12.17534821 455.52051147 -12.35411072 454.39894104 C-12.52921677 453.22602509 -12.70432281 452.05310913 -12.88473511 450.84465027 C-13.07551132 449.63104828 -13.26628754 448.41744629 -13.46284485 447.16706848 C-14.0713511 443.28254759 -14.66408273 439.39581877 -15.25582886 435.50871277 C-15.85437509 431.64359387 -16.45615711 427.77899611 -17.05952454 423.91462708 C-17.43370312 421.51101829 -17.80453975 419.10688607 -18.17149353 416.7021637 C-19.06764043 410.87613602 -20.04976933 405.10479385 -21.32820129 399.34944153 C-21.73001156 396.91110857 -21.75386925 394.60061942 -21.69332886 392.13371277 C-23.45676636 392.22652527 -23.45676636 392.22652527 -25.25582886 392.32121277 C-29.66058941 392.3056207 -32.80634646 391.30145295 -36.69332886 389.13371277 C-39.95784336 385.60324687 -41.59904606 382.31800085 -43.14645386 377.78996277 C-43.363535 377.16514008 -43.58061615 376.54031738 -43.80427551 375.89656067 C-44.52647359 373.81198789 -45.23470346 371.72293441 -45.94332886 369.63371277 C-46.72714767 367.35929714 -47.51450469 365.08612385 -48.30189514 362.8129425 C-48.86461454 361.18743699 -49.42611727 359.56150986 -49.98649597 357.93519592 C-52.18599378 351.5604368 -54.44215472 345.2071804 -56.72067261 338.86027527 C-77.906386 279.82590329 -77.906386 279.82590329 -81.69332886 259.13371277 C-81.91633667 258.01351746 -82.13934448 256.89332214 -82.36911011 255.73918152 C-88.44880634 220.87398478 -78.29636026 188.07949997 -66.25582886 155.75871277 C-65.3687826 153.35678154 -64.48264578 150.95451427 -63.59738159 148.55192566 C-62.25784668 144.91787248 -60.91720139 141.28426069 -59.57188416 137.65234375 C-56.73990029 130.00317037 -53.96182418 122.33678109 -51.22457886 114.65324402 C-50.21798952 111.84257185 -49.21044286 109.03224481 -48.20257568 106.22203064 C-47.57738795 104.47155335 -46.95615194 102.71965905 -46.33911133 100.96629333 C-45.49067822 98.55822383 -44.62701279 96.1561411 -43.75973511 93.75480652 C-43.52093628 93.06361221 -43.28213745 92.37241791 -43.03610229 91.66027832 C-41.13631339 86.47114365 -38.64216243 81.99745655 -33.86155701 78.97598267 C-31.25268228 77.9625392 -29.23306117 77.93529876 -26.44332886 78.00871277 C-25.55129761 78.02675964 -24.65926636 78.04480652 -23.74020386 78.06340027 C-23.06473511 78.08660339 -22.38926636 78.10980652 -21.69332886 78.13371277 C-21.62306992 77.53858383 -21.55281097 76.9434549 -21.48042297 76.33029175 C-19.71844036 61.53088983 -17.68743438 46.79674576 -15.26876831 32.0900116 C-14.74558062 28.88340144 -14.24410465 25.67378616 -13.74215698 22.46379089 C-13.40558766 20.40172584 -13.06774726 18.33986775 -12.72848511 16.27824402 C-12.58355118 15.32939835 -12.43861725 14.38055267 -12.28929138 13.4029541 C-11.42135492 8.29896389 -10.55763082 4.86389988 -6.69332886 1.13371277 C-4.26369634 -0.08110349 -2.71557554 0.00527251 0 0 Z " fill="#0B0B0B" transform="translate(213.69332885742188,256.8662872314453)"/>
<path d="M0 0 C0.84433594 0.66515625 1.68867188 1.3303125 2.55859375 2.015625 C18.70755 15.55490992 29.41883514 34.91626282 35 55 C35.3196875 56.12148438 35.639375 57.24296875 35.96875 58.3984375 C42.18563894 84.0143225 38.2549254 113.39621555 24.640625 136.0390625 C19.81665865 143.68205786 14.30141505 150.5139281 8 157 C7.37867188 157.68320312 6.75734375 158.36640625 6.1171875 159.0703125 C-7.70091388 173.81347506 -27.45013367 182.92335737 -47 187 C-47.95390625 187.22300781 -48.9078125 187.44601562 -49.890625 187.67578125 C-77.95970856 193.43856796 -107.01587283 185.80390719 -131 171 C-134.54700345 168.53785133 -137.78154013 165.87322715 -141 163 C-141.82757813 162.31421875 -142.65515625 161.6284375 -143.5078125 160.921875 C-162.70229198 144.60363251 -174.20305768 119.82595704 -177 95 C-178.66678927 63.47706264 -172.08390471 35.2690805 -150.88842773 11.15112305 C-110.71801047 -33.00313725 -46.62347674 -37.39918188 0 0 Z " fill="#FDFDFD" transform="translate(338,409)"/>
<path d="M0 0 C1.27181638 0.56587425 2.52837346 1.16653048 3.7734375 1.7890625 C3.7734375 3.1090625 3.7734375 4.4290625 3.7734375 5.7890625 C3.1134375 6.4490625 2.4534375 7.1090625 1.7734375 7.7890625 C2.7634375 7.1290625 3.7534375 6.4690625 4.7734375 5.7890625 C7.4609375 6.1640625 7.4609375 6.1640625 9.7734375 6.7890625 C10.1034375 8.7690625 10.4334375 10.7490625 10.7734375 12.7890625 C7.457009 15.14726063 4.12216415 17.47696022 0.7734375 19.7890625 C0.02449219 20.30984375 -0.72445312 20.830625 -1.49609375 21.3671875 C-4.3727352 23.28128162 -6.64570219 24.65998243 -10.0390625 25.4140625 C-12.2265625 24.7890625 -12.2265625 24.7890625 -13.86328125 22.25 C-14.31316406 21.43789063 -14.76304687 20.62578125 -15.2265625 19.7890625 C-16.21914063 20.53929687 -17.21171875 21.28953125 -18.234375 22.0625 C-24.80823947 27.01939929 -31.39436486 31.95112491 -38.1015625 36.7265625 C-38.92599854 37.32198853 -38.92599854 37.32198853 -39.76708984 37.92944336 C-43.13386193 40.34993902 -46.55119592 42.65895453 -50.03125 44.9140625 C-58.67442452 50.14245839 -58.67442452 50.14245839 -64.63671875 57.88671875 C-65.08912459 60.74399413 -65.08912459 60.74399413 -65.1015625 63.47265625 C-65.2265625 65.7890625 -65.2265625 65.7890625 -67.5390625 68.8515625 C-70.89970524 71.27435145 -73.41444297 73.01766102 -77.6418457 72.484375 C-80.4488526 72.51791977 -80.4488526 72.51791977 -82.19604492 75.10546875 C-83.12960815 76.71228516 -83.12960815 76.71228516 -84.08203125 78.3515625 C-84.59701675 79.21912674 -84.59701675 79.21912674 -85.12240601 80.10421753 C-86.23679407 81.98965731 -87.32511713 83.8888354 -88.4140625 85.7890625 C-89.17571515 87.08723916 -89.93931208 88.38427702 -90.70483398 89.68017578 C-92.21027491 92.23101329 -93.70798332 94.78613061 -95.20019531 97.34472656 C-97.64807613 101.5055341 -100.1947171 105.5936783 -102.7890625 109.6640625 C-107.15528266 116.58642728 -111.22542462 123.64988667 -115.2265625 130.7890625 C-116.05827244 132.26580601 -116.89031848 133.74236026 -117.72265625 135.21875 C-119.89461258 139.07329048 -122.06175899 142.93050068 -124.2265625 146.7890625 C-127.1015625 146.9140625 -127.1015625 146.9140625 -130.2265625 146.7890625 C-130.8865625 146.1290625 -131.5465625 145.4690625 -132.2265625 144.7890625 C-131.97493403 139.9092676 -129.32919624 135.87983662 -126.9765625 131.7265625 C-126.59371094 131.01951172 -126.21085938 130.31246094 -125.81640625 129.58398438 C-125.43097656 128.89755859 -125.04554688 128.21113281 -124.6484375 127.50390625 C-124.30393555 126.88636475 -123.95943359 126.26882324 -123.60449219 125.63256836 C-122.2265625 123.7890625 -122.2265625 123.7890625 -119.80249023 121.92895508 C-116.85115572 119.47720198 -115.44161509 117.18634571 -113.58984375 113.8359375 C-113.26853485 113.26281326 -112.94722595 112.68968903 -112.61618042 112.09919739 C-111.93339772 110.87932483 -111.25514924 109.6569048 -110.58114624 108.43215942 C-108.83034481 105.25157357 -107.04638833 102.08965777 -105.265625 98.92578125 C-104.91712997 98.30464951 -104.56863495 97.68351776 -104.20957947 97.04356384 C-100.71447909 90.83363791 -96.98086108 84.79556508 -93.14453125 78.79296875 C-92.51160156 77.80167969 -91.87867188 76.81039062 -91.2265625 75.7890625 C-90.63101563 74.86996094 -90.03546875 73.95085937 -89.421875 73.00390625 C-89.02742188 72.27300781 -88.63296875 71.54210937 -88.2265625 70.7890625 C-88.8502831 68.70670424 -88.8502831 68.70670424 -90.2265625 66.7890625 C-92.0449092 62.95033057 -92.42388776 60.03155557 -92.2265625 55.7890625 C-92.88785156 55.5828125 -93.54914063 55.3765625 -94.23046875 55.1640625 C-98.34982626 53.27356205 -101.62023689 50.58844072 -105.1640625 47.7890625 C-111.79150883 42.63174609 -118.50935505 37.65241144 -125.37109375 32.8125 C-127.6856187 31.17238519 -129.96864961 29.50573235 -132.2265625 27.7890625 C-131.8965625 25.4790625 -131.5665625 23.1690625 -131.2265625 20.7890625 C-129.23828125 19.9375 -129.23828125 19.9375 -126.2265625 19.7890625 C-123.24541881 21.31542094 -120.68160996 23.36892829 -118.0390625 25.4140625 C-116.4390517 26.61101083 -114.8387834 27.80761501 -113.23828125 29.00390625 C-112.41634277 29.6263623 -111.5944043 30.24881836 -110.74755859 30.89013672 C-106.65470701 33.97305359 -102.50370199 36.97426593 -98.3515625 39.9765625 C-97.59721924 40.52844238 -96.84287598 41.08032227 -96.06567383 41.64892578 C-95.35822021 42.16310059 -94.6507666 42.67727539 -93.921875 43.20703125 C-93.30328613 43.65844482 -92.68469727 44.1098584 -92.04736328 44.57495117 C-90.17133279 45.82588972 -88.26231611 46.82400403 -86.2265625 47.7890625 C-85.2365625 47.1290625 -84.2465625 46.4690625 -83.2265625 45.7890625 C-80.703125 45.55859375 -80.703125 45.55859375 -77.8515625 45.6015625 C-76.91570312 45.60800781 -75.97984375 45.61445313 -75.015625 45.62109375 C-72.2265625 45.7890625 -72.2265625 45.7890625 -69.82421875 46.62109375 C-65.63153624 46.89219954 -63.13363557 44.18294553 -60.0390625 41.6640625 C-58.60681773 40.54384604 -57.17317215 39.42541876 -55.73828125 38.30859375 C-54.99626465 37.7254541 -54.25424805 37.14231445 -53.48974609 36.54150391 C-49.84387691 33.7184134 -46.10014004 31.03590095 -42.3515625 28.3515625 C-40.83972396 27.26448949 -39.32800609 26.17724865 -37.81640625 25.08984375 C-37.06214355 24.5479541 -36.30788086 24.00606445 -35.53076172 23.44775391 C-32.41967937 21.20822292 -29.31749991 18.95650494 -26.21484375 16.70532227 C-23.24933564 14.55765749 -20.27568494 12.42143717 -17.30126953 10.28613281 C-15.30815608 8.84793892 -13.32735475 7.39407632 -11.34765625 5.9375 C-10.18273598 5.09573894 -9.01739945 4.25455351 -7.8515625 3.4140625 C-6.85382813 2.68445313 -5.85609375 1.95484375 -4.828125 1.203125 C-2.2265625 -0.2109375 -2.2265625 -0.2109375 0 0 Z " fill="#0B0B0B" transform="translate(346.2265625,432.2109375)"/>
<path d="M0 0 C15.51 0 31.02 0 47 0 C47 12.21 47 24.42 47 37 C31.49 37 15.98 37 0 37 C0 24.79 0 12.58 0 0 Z " fill="#FBFBFB" transform="translate(245,660)"/>
<path d="M0 0 C15.51 0 31.02 0 47 0 C47 12.21 47 24.42 47 37 C31.49 37 15.98 37 0 37 C0 24.79 0 12.58 0 0 Z " fill="#FCFCFC" transform="translate(245,288)"/>
<path d="M0 0 C15.51 0 31.02 0 47 0 C47 8.25 47 16.5 47 25 C31.49 25 15.98 25 0 25 C0 16.75 0 8.5 0 0 Z " fill="#FBFBFB" transform="translate(245,627)"/>
<path d="M0 0 C1.25159912 0.00523682 2.50319824 0.01047363 3.79272461 0.01586914 C5.00839111 0.0183667 6.22405762 0.02086426 7.4765625 0.0234375 C9.03366943 0.0325415 10.59077637 0.04164551 12.19506836 0.05102539 C17.12444336 0.07165039 22.05381836 0.09227539 27.13256836 0.11352539 C27.13256836 11.33352539 27.13256836 22.55352539 27.13256836 34.11352539 C15.58256836 34.11352539 4.03256836 34.11352539 -7.86743164 34.11352539 C-7.24983709 26.08479617 -6.59477562 18.28657759 -5.36743164 10.36352539 C-5.23723633 9.47665039 -5.10704102 8.58977539 -4.97290039 7.67602539 C-3.8303956 0.1516504 -3.8303956 0.1516504 0 0 Z " fill="#FCFCFC" transform="translate(208.867431640625,300.886474609375)"/>
<path d="M0 0 C9.9 0 19.8 0 30 0 C31.2375 7.30125 31.2375 7.30125 32.5 14.75 C32.76103516 16.27979492 33.02207031 17.80958984 33.29101562 19.38574219 C33.49404297 20.59391602 33.69707031 21.80208984 33.90625 23.046875 C34.11572266 24.28276367 34.32519531 25.51865234 34.54101562 26.79199219 C35 30 35 30 35 34 C23.45 34 11.9 34 0 34 C0 22.78 0 11.56 0 0 Z " fill="#FCFCFC" transform="translate(301,301)"/>
<path d="M0 0 C11.55 0 23.1 0 35 0 C35 10.56 35 21.12 35 32 C25.1 32 15.2 32 5 32 C1.55092593 15.90432099 1.55092593 15.90432099 0.8125 8.125 C0.544375 5.44375 0.27625 2.7625 0 0 Z " fill="#FDFEFD" transform="translate(201,649)"/>
<path d="M0 0 C11.55 0 23.1 0 35 0 C32.70061728 17.24537037 32.70061728 17.24537037 31.375 24.4375 C30.92125 26.933125 30.4675 29.42875 30 32 C20.1 32 10.2 32 0 32 C0 21.44 0 10.88 0 0 Z " fill="#FEFEFE" transform="translate(301,649)"/>
<path d="M0 0 C15.51 0 31.02 0 47 0 C47 7.59 47 15.18 47 23 C44.834375 22.67 42.66875 22.34 40.4375 22 C26.95225243 20.12421581 13.52787337 21.10559515 0 22 C0 14.74 0 7.48 0 0 Z " fill="#FDFDFD" transform="translate(245,333)"/>
<path d="M0 0 C1.16212867 3.48638602 0.83057348 4.16155395 -0.4140625 7.49609375 C-0.75687256 8.43066406 -1.09968262 9.36523438 -1.45288086 10.328125 C-1.83968018 11.35421875 -2.22647949 12.3803125 -2.625 13.4375 C-3.45260493 15.67549222 -4.27937452 17.91379346 -5.10546875 20.15234375 C-5.56356934 21.38710449 -6.02166992 22.62186523 -6.49365234 23.89404297 C-8.17692104 28.45844394 -9.80098198 33.0434373 -11.42578125 37.62890625 C-12.3049813 40.10069288 -13.18483176 42.57224706 -14.06488037 45.04373169 C-14.64713801 46.68268289 -15.22725405 48.32239648 -15.80523682 49.96286011 C-16.6225467 52.2797822 -17.4489075 54.59328711 -18.27734375 56.90625 C-18.52285477 57.6092775 -18.76836578 58.31230499 -19.02131653 59.03663635 C-20.77215803 63.88607901 -20.77215803 63.88607901 -23 65 C-25.6723621 65.13415472 -28.32250488 65.04318541 -31 65 C-31.2487729 60.1623239 -31.42933163 55.32842536 -31.54931641 50.48583984 C-31.59935616 48.84227621 -31.66741948 47.19915227 -31.75439453 45.55712891 C-32.45817872 31.92027522 -32.45817872 31.92027522 -28.90527344 27.24145508 C-26.36555027 25.2179224 -23.82630136 23.59051411 -21 22 C-9.06491934 12.24349692 -9.06491934 12.24349692 0 0 Z " fill="#FBFBFB" transform="translate(377,575)"/>
<path d="M0 0 C2.66024871 2.64068806 5.29303131 5.29831118 7.875 8.015625 C8.91652901 9.09388299 9.9581977 10.17200606 11 11.25 C11.48855469 11.77207031 11.97710937 12.29414062 12.48046875 12.83203125 C15.29021515 15.71115411 17.72239399 17.85100219 21.30737305 19.77514648 C30.13490085 24.52716413 30.13490085 24.52716413 31.67779541 28.93743896 C32.62151196 34.46671228 32.18659167 39.99673264 31.8125 45.5625 C31.74719863 47.25563663 31.68789891 48.94901597 31.63476562 50.64257812 C31.49235941 54.76777033 31.26873576 58.88118717 31 63 C25.04296875 63.390625 25.04296875 63.390625 23 63 C20.30366877 60.23224178 19.17070813 57.17545782 17.93115234 53.56054688 C17.55421234 52.47261841 17.17727234 51.38468994 16.78890991 50.26379395 C16.39192902 49.09392944 15.99494812 47.92406494 15.5859375 46.71875 C15.17082916 45.51311401 14.75572083 44.30747803 14.32803345 43.06530762 C13.45228803 40.51776702 12.57924018 37.96950081 11.7109375 35.41943359 C10.59961273 32.15569965 9.48060105 28.89467302 8.35857201 25.63460541 C7.28606296 22.51766444 6.21712357 19.39950346 5.1484375 16.28125 C4.74740814 15.1113855 4.34637878 13.941521 3.93319702 12.73620605 C3.56256134 11.64827759 3.19192566 10.56034912 2.81005859 9.43945312 C2.32066299 8.00527039 2.32066299 8.00527039 1.82138062 6.54211426 C1.12021519 4.37205743 0.51733773 2.21985512 0 0 Z " fill="#FBFBFB" transform="translate(160,577)"/>
<path d="M0 0 C0 9.57 0 19.14 0 29 C-11.88 29 -23.76 29 -36 29 C-36 23.72 -36 18.44 -36 13 C-34.38351562 12.48050781 -32.76703125 11.96101562 -31.1015625 11.42578125 C-28.9425748 10.72176352 -26.7837281 10.01731333 -24.625 9.3125 C-23.56410156 8.97283203 -22.50320313 8.63316406 -21.41015625 8.28320312 C-15.29480416 6.27601701 -9.6120575 3.99132485 -3.93896484 0.94213867 C-2 0 -2 0 0 0 Z " fill="#FDFDFD" transform="translate(337,611)"/>
<path d="M0 0 C3.60742219 1.20247406 6.91922499 2.32799216 10.35546875 3.83984375 C11.13817139 4.17951172 11.92087402 4.51917969 12.72729492 4.86914062 C13.5391626 5.22169922 14.35103027 5.57425781 15.1875 5.9375 C22.04021357 8.876733 28.71626368 11.31101766 36 13 C36 18.28 36 23.56 36 29 C24.12 29 12.24 29 0 29 C0 19.43 0 9.86 0 0 Z " fill="#FDFDFD" transform="translate(200,611)"/>
<path d="M0 0 C2.01822917 0.06510417 4.03645833 0.13020833 6.0546875 0.1953125 C6.32841907 4.89047896 6.52695769 9.58093539 6.65893555 14.28222656 C6.7139711 15.87745072 6.78883798 17.47212693 6.88452148 19.06542969 C7.65903279 32.30253207 7.65903279 32.30253207 3.7746582 36.88525391 C0.95818999 38.91016569 -1.8877509 40.56397615 -4.9453125 42.1953125 C-12.66563913 48.13204242 -19.18327935 55.38267344 -24.9453125 63.1953125 C-25.9453125 61.1953125 -25.9453125 61.1953125 -25.33129883 59.10522461 C-24.98349365 58.23647705 -24.63568848 57.36772949 -24.27734375 56.47265625 C-23.88417969 55.47427734 -23.49101562 54.47589844 -23.0859375 53.44726562 C-22.64765625 52.35349609 -22.209375 51.25972656 -21.7578125 50.1328125 C-20.83419231 47.78895894 -19.91377972 45.44383958 -18.99609375 43.09765625 C-18.75259186 42.47539154 -18.50908997 41.85312683 -18.25820923 41.21200562 C-16.32201374 36.23434528 -14.48294999 31.22501855 -12.67578125 26.19921875 C-12.40586868 25.44930161 -12.13595612 24.69938446 -11.85786438 23.92674255 C-10.78554988 20.94235647 -9.71556694 17.95721012 -8.65542603 14.96847534 C-7.91291999 12.87573992 -7.16392336 10.78542146 -6.4140625 8.6953125 C-5.98544922 7.48875 -5.55683594 6.2821875 -5.11523438 5.0390625 C-3.17322983 0.31859737 -3.17322983 0.31859737 0 0 Z " fill="#FBFBFB" transform="translate(184.9453125,343.8046875)"/>
<path d="M0 0 C7.92 0 15.84 0 24 0 C24 9.24 24 18.48 24 28 C14.43 28 4.86 28 -5 28 C-4.54625 24.49375 -4.0925 20.9875 -3.625 17.375 C-3.48658691 16.28106934 -3.34817383 15.18713867 -3.20556641 14.06005859 C-3.08874512 13.18172363 -2.97192383 12.30338867 -2.8515625 11.3984375 C-2.73635254 10.50817871 -2.62114258 9.61791992 -2.50244141 8.70068359 C-2 6 -2 6 0 0 Z " fill="#FAFAFA" transform="translate(212,265)"/>
<path d="M0 0 C5.95703125 -0.390625 5.95703125 -0.390625 8 0 C10.63596786 2.72603561 11.82425159 5.7410976 13.10058594 9.27172852 C13.48398132 10.32284317 13.86737671 11.37395782 14.26239014 12.45692444 C14.86727264 14.15080544 14.86727264 14.15080544 15.484375 15.87890625 C15.90422668 17.04252182 16.32407837 18.20613739 16.75665283 19.40501404 C17.86708632 22.49099609 18.97047838 25.57939488 20.07196045 28.6685791 C20.75053868 30.56400465 21.43536971 32.4570458 22.12255859 34.34936523 C23.4402152 37.98085717 24.74536715 41.61659981 26.046875 45.25390625 C26.45822693 46.38518448 26.86957886 47.51646271 27.293396 48.68202209 C27.66418274 49.72998459 28.03496948 50.77794708 28.41699219 51.85766602 C28.74769714 52.78047867 29.0784021 53.70329132 29.41912842 54.65406799 C30 57 30 57 29 60 C28.33355469 59.24976563 27.66710937 58.49953125 26.98046875 57.7265625 C17.2250804 45.88576357 17.2250804 45.88576357 5.13061523 37.19604492 C2.71834333 36.03397082 1.54973616 35.2131008 0 33 C-0.89755332 27.3798688 -0.65732725 21.85738393 -0.4375 16.1875 C-0.40236864 14.6205118 -0.37043278 13.05344848 -0.34179688 11.48632812 C-0.26484327 7.65569393 -0.14417319 3.82866966 0 0 Z " fill="#FBFBFB" transform="translate(346,344)"/>
<path d="M0 0 C9.57 0 19.14 0 29 0 C29 9.24 29 18.48 29 28 C21.08 28 13.16 28 5 28 C2.75 17.875 2.75 17.875 2.1484375 13.96484375 C2.03161621 13.21581787 1.91479492 12.46679199 1.79443359 11.69506836 C1.65602051 10.7850708 1.51760742 9.87507324 1.375 8.9375 C0.92125 5.988125 0.4675 3.03875 0 0 Z " fill="#FDFDFD" transform="translate(207,690)"/>
<path d="M0 0 C9.24 0 18.48 0 28 0 C27.39061664 6.70321693 26.78022467 13.07177075 25.5 19.625 C25.36980469 20.33011719 25.23960937 21.03523437 25.10546875 21.76171875 C24.1313058 26.8686942 24.1313058 26.8686942 23 28 C21.29227642 28.08713831 19.58101351 28.10700007 17.87109375 28.09765625 C16.93966553 28.09515869 16.0082373 28.09266113 15.04858398 28.09008789 C13.26109741 28.07643188 13.26109741 28.07643188 11.4375 28.0625 C7.663125 28.041875 3.88875 28.02125 0 28 C0 18.76 0 9.52 0 0 Z " fill="#FEFEFE" transform="translate(301,690)"/>
<path d="M0 0 C7.59 0 15.18 0 23 0 C24.37218432 3.43046081 25.27603841 5.77270758 25.8515625 9.25 C25.98046875 10.0234375 26.109375 10.796875 26.2421875 11.59375 C26.36851562 12.3878125 26.49484375 13.181875 26.625 14 C26.7590625 14.7940625 26.893125 15.588125 27.03125 16.40625 C27.68375632 20.40118668 28 23.90252923 28 28 C18.76 28 9.52 28 0 28 C0 18.76 0 9.52 0 0 Z " fill="#FBFBFB" transform="translate(301,265)"/>
<path d="M0 0 C11.88 0 23.76 0 36 0 C36 8.91 36 17.82 36 27 C33.03 25.783125 30.06 24.56625 27 23.3125 C18.12763515 19.72154864 9.18799134 16.66913715 0 14 C0 9.38 0 4.76 0 0 Z " fill="#FDFDFD" transform="translate(301,344)"/>
<path d="M0 0 C11.88 0 23.76 0 36 0 C36 4.62 36 9.24 36 14 C34.90945312 14.268125 33.81890625 14.53625 32.6953125 14.8125 C21.1376081 17.77492077 10.8127958 21.93686546 0 27 C0 18.09 0 9.18 0 0 Z " fill="#FDFDFD" transform="translate(200,344)"/>
<path d="M0 0 C15.51 0 31.02 0 47 0 C47 4.62 47 9.24 47 14 C31.49 14 15.98 14 0 14 C0 9.38 0 4.76 0 0 Z " fill="#FBFBFB" transform="translate(245,265)"/>
<path d="M0 0 C15.51 0 31.02 0 47 0 C47 4.29 47 8.58 47 13 C31.49 13 15.98 13 0 13 C0 8.71 0 4.42 0 0 Z " fill="#FBFBFB" transform="translate(245,705)"/>
<path d="M0 0 C0.66 0.33 1.32 0.66 2 1 C1.67 1.66 1.34 2.32 1 3 C1.99 3 2.98 3 4 3 C3.82979816 10.47824321 -0.13900104 15.86110891 -4 22.0625 C-4.68553955 23.18503174 -5.3710791 24.30756348 -6.07739258 25.46411133 C-9.53004045 31.0959195 -13.0560165 36.66979309 -16.6875 42.1875 C-22.73955806 51.42790282 -27.80513676 61.26111965 -33 71 C-35.875 71.125 -35.875 71.125 -39 71 C-39.66 70.34 -40.32 69.68 -41 69 C-40.74837153 64.1202051 -38.10263374 60.09077412 -35.75 55.9375 C-35.36714844 55.23044922 -34.98429688 54.52339844 -34.58984375 53.79492188 C-34.01169922 52.7652832 -34.01169922 52.7652832 -33.421875 51.71484375 C-33.07737305 51.09730225 -32.73287109 50.47976074 -32.37792969 49.84350586 C-31 48 -31 48 -28.57592773 46.13989258 C-25.62459322 43.68813948 -24.21505259 41.39728321 -22.36328125 38.046875 C-22.0418364 37.47352417 -21.72039154 36.90017334 -21.38920593 36.30944824 C-20.70628189 35.08934908 -20.02789522 33.86670061 -19.35375977 32.64172363 C-17.60696281 29.46820518 -15.82738446 26.31314783 -14.05078125 23.15625 C-13.70290558 22.53615051 -13.35502991 21.91605103 -12.99661255 21.27716064 C-8.91501247 14.02534946 -4.51408009 6.98814321 0 0 Z " fill="#0B0B0B" transform="translate(255,508)"/>
<path d="M0 0 C2.64540597 2.64540597 1.18562153 10.37404185 1.1875 13.9375 C1.19974609 15.15630859 1.21199219 16.37511719 1.22460938 17.63085938 C1.22750977 19.37399414 1.22750977 19.37399414 1.23046875 21.15234375 C1.23457764 22.22476318 1.23868652 23.29718262 1.24291992 24.40209961 C1 27 1 27 -1 29 C-4.29714793 28.67028521 -5.6226839 28.3773161 -8 26 C-8.22705078 23.38623047 -8.22705078 23.38623047 -8.1953125 20.1171875 C-8.18886719 18.95058594 -8.18242187 17.78398437 -8.17578125 16.58203125 C-8.15902344 15.35871094 -8.14226562 14.13539063 -8.125 12.875 C-8.11597656 11.64394531 -8.10695313 10.41289062 -8.09765625 9.14453125 C-8.07402548 6.09616185 -8.04108054 3.04817618 -8 0 C-5.11795733 -1.44102133 -3.08226581 -0.65580124 0 0 Z " fill="#0A0B0B" transform="translate(271,391)"/>
<path d="M0 0 C2.5 0.25 2.5 0.25 4.5 2.25 C4.95906021 6.56557399 4.82401051 10.91284155 4.8125 15.25 C4.82861328 16.46429687 4.84472656 17.67859375 4.86132812 18.9296875 C4.86197266 20.08726562 4.86261719 21.24484375 4.86328125 22.4375 C4.86626221 23.50355469 4.86924316 24.56960938 4.87231445 25.66796875 C4.74945068 26.52003906 4.62658691 27.37210938 4.5 28.25 C1.5 30.25 1.5 30.25 -0.5625 30 C-2.5 29.25 -2.5 29.25 -4.5 27.25 C-4.75878906 24.75976562 -4.75878906 24.75976562 -4.765625 21.65625 C-4.76820313 20.54378906 -4.77078125 19.43132813 -4.7734375 18.28515625 C-4.76183594 16.53525391 -4.76183594 16.53525391 -4.75 14.75 C-4.75773437 13.58339844 -4.76546875 12.41679688 -4.7734375 11.21484375 C-4.77085937 10.10238281 -4.76828125 8.98992188 -4.765625 7.84375 C-4.76336914 6.81958984 -4.76111328 5.79542969 -4.75878906 4.74023438 C-4.39649237 1.25398319 -3.48734599 0.3487346 0 0 Z " fill="#0D0D0D" transform="translate(267.5,562.75)"/>
<path d="M0 0 C1.16660156 -0.01224609 2.33320313 -0.02449219 3.53515625 -0.03710938 C5.20384766 -0.04000977 5.20384766 -0.04000977 6.90625 -0.04296875 C7.93041016 -0.04707764 8.95457031 -0.05118652 10.00976562 -0.05541992 C12.5 0.1875 12.5 0.1875 14.5 2.1875 C14.75 4.6875 14.75 4.6875 14.5 7.1875 C11.35125961 10.33624039 7.88099849 9.48226873 3.58398438 9.50976562 C2.42189453 9.50654297 1.25980469 9.50332031 0.0625 9.5 C-1.09572266 9.51611328 -2.25394531 9.53222656 -3.44726562 9.54882812 C-4.55650391 9.54947266 -5.66574219 9.55011719 -6.80859375 9.55078125 C-8.33697876 9.55525269 -8.33697876 9.55525269 -9.89624023 9.55981445 C-12.5 9.1875 -12.5 9.1875 -14.36743164 7.82885742 C-15.5 6.1875 -15.5 6.1875 -15.3125 3.5625 C-13.3916722 -2.05222741 -4.94211498 0.00273045 0 0 Z " fill="#070707" transform="translate(179.5,486.8125)"/>
<path d="M0 0 C1.16208984 0.00322266 2.32417969 0.00644531 3.52148438 0.00976562 C4.67970703 -0.00634766 5.83792969 -0.02246094 7.03125 -0.0390625 C8.14048828 -0.03970703 9.24972656 -0.04035156 10.39257812 -0.04101562 C11.92096313 -0.04548706 11.92096313 -0.04548706 13.48022461 -0.05004883 C16.08398438 0.32226562 16.08398438 0.32226562 17.95141602 1.71606445 C19.08398438 3.32226562 19.08398438 3.32226562 18.89648438 5.38476562 C18.08398438 7.32226562 18.08398438 7.32226562 16.08398438 9.32226562 C13.59375 9.58105469 13.59375 9.58105469 10.49023438 9.58789062 C9.37777344 9.59046875 8.2653125 9.59304688 7.11914062 9.59570312 C5.95253906 9.58796875 4.7859375 9.58023437 3.58398438 9.57226562 C2.41738281 9.58 1.25078125 9.58773438 0.04882812 9.59570312 C-1.06363281 9.593125 -2.17609375 9.59054687 -3.32226562 9.58789062 C-4.34642578 9.58563477 -5.37058594 9.58337891 -6.42578125 9.58105469 C-8.91601562 9.32226562 -8.91601562 9.32226562 -10.91601562 7.32226562 C-11.16601562 4.82226562 -11.16601562 4.82226562 -10.91601562 2.32226562 C-7.76727524 -0.82647476 -4.29701412 0.02749689 0 0 Z " fill="#080909" transform="translate(351.916015625,486.677734375)"/>
<path d="M0 0 C2.6171875 0.296875 2.6171875 0.296875 4.171875 1.84375 C4.60757813 2.57078125 5.04328125 3.2978125 5.4921875 4.046875 C5.98589844 4.86027344 6.47960937 5.67367188 6.98828125 6.51171875 C7.52582031 7.43082031 8.06335938 8.34992188 8.6171875 9.296875 C9.26816406 10.32941406 9.91914063 11.36195313 10.58984375 12.42578125 C15.66987007 20.65683781 15.66987007 20.65683781 15.43359375 23.52734375 C14.6171875 25.296875 14.6171875 25.296875 12.6171875 27.296875 C10.3046875 27.421875 10.3046875 27.421875 7.6171875 26.296875 C5.54604747 23.86583195 4.13465012 21.09575049 2.6171875 18.296875 C1.988125 17.2140625 1.3590625 16.13125 0.7109375 15.015625 C-4.44822438 5.92567311 -4.44822438 5.92567311 -4.140625 2.96875 C-3.00575716 0.46502095 -2.8291098 0.35247925 0 0 Z " fill="#0C0C0B" transform="translate(218.3828125,402.703125)"/>
<path d="M0 0 C0.928125 0.226875 1.85625 0.45375 2.8125 0.6875 C3.8125 3.6875 3.8125 3.6875 2.94799805 5.92407227 C2.26797729 7.20109009 2.26797729 7.20109009 1.57421875 8.50390625 C1.08373047 9.43267578 0.59324219 10.36144531 0.08789062 11.31835938 C-0.43611328 12.28580078 -0.96011719 13.25324219 -1.5 14.25 C-2.26860352 15.70696289 -2.26860352 15.70696289 -3.05273438 17.19335938 C-6.88702102 24.38702102 -6.88702102 24.38702102 -9.1875 26.6875 C-12.3125 26.3125 -12.3125 26.3125 -15.1875 25.6875 C-15.95622416 22.94042391 -16.38251556 21.24725757 -15.43066406 18.51513672 C-15.02557617 17.80631348 -14.62048828 17.09749023 -14.203125 16.3671875 C-13.76226562 15.58472656 -13.32140625 14.80226563 -12.8671875 13.99609375 C-12.39539063 13.19300781 -11.92359375 12.38992188 -11.4375 11.5625 C-10.98117187 10.75167969 -10.52484375 9.94085938 -10.0546875 9.10546875 C-4.58991196 -0.44999137 -4.58991196 -0.44999137 0 0 Z " fill="#0A0A0A" transform="translate(318.1875,402.3125)"/>
<path d="M0 0 C4.04357873 1.76014603 5.81634746 6.21241463 7.9921875 9.8671875 C8.57097656 10.82496094 9.14976562 11.78273438 9.74609375 12.76953125 C14.06889344 20.241656 14.06889344 20.241656 13.71484375 23.12890625 C12.9921875 24.8671875 12.9921875 24.8671875 11.9921875 25.8671875 C9.26171875 26.43359375 9.26171875 26.43359375 5.9921875 25.8671875 C3.71498206 23.47348486 2.24639445 20.69651758 0.6796875 17.8046875 C0.01743164 16.67643555 0.01743164 16.67643555 -0.65820312 15.52539062 C-3.26485591 10.91484857 -4.63562247 7.15509492 -5.0078125 1.8671875 C-2.0078125 -0.1328125 -2.0078125 -0.1328125 0 0 Z " fill="#0A0A0A" transform="translate(308.0078125,553.1328125)"/>
<path d="M0 0 C4.16522796 1.26865434 7.51148842 3.52795338 11.1484375 5.8828125 C11.880625 6.346875 12.6128125 6.8109375 13.3671875 7.2890625 C18.7051977 10.6895727 18.7051977 10.6895727 19.8984375 11.8828125 C20.0859375 14.3203125 20.0859375 14.3203125 19.8984375 16.8828125 C19.2384375 17.5428125 18.5784375 18.2028125 17.8984375 18.8828125 C12.26769303 18.71397458 8.21152869 16.04537766 3.5859375 13.1328125 C2.85826172 12.70226562 2.13058594 12.27171875 1.38085938 11.828125 C-3.82966167 8.58429643 -3.82966167 8.58429643 -5.15234375 5.171875 C-5.1015625 2.8828125 -5.1015625 2.8828125 -3.9765625 1.0078125 C-2.1015625 -0.1171875 -2.1015625 -0.1171875 0 0 Z " fill="#0C0C0C" transform="translate(184.1015625,438.1171875)"/>
<path d="M0 0 C1 1 1 1 1.375 3.3125 C1 6 1 6 -1.08203125 7.8984375 C-4.31891297 10.22968565 -7.614484 12.31243133 -11.0625 14.3125 C-11.97999023 14.8703418 -11.97999023 14.8703418 -12.91601562 15.43945312 C-17.3921878 18.03805254 -17.3921878 18.03805254 -20.30859375 17.85546875 C-22 17 -22 17 -24 15 C-23.83512699 11.99076679 -23.52973139 10.5004382 -21.31347656 8.40673828 C-20.59643555 7.96571777 -19.87939453 7.52469727 -19.140625 7.0703125 C-18.35429687 6.585625 -17.56796875 6.1009375 -16.7578125 5.6015625 C-15.51644531 4.87066406 -15.51644531 4.87066406 -14.25 4.125 C-13.43789062 3.61453125 -12.62578125 3.1040625 -11.7890625 2.578125 C-4.99174737 -1.51797695 -4.99174737 -1.51797695 0 0 Z " fill="#0A0A09" transform="translate(203,526)"/>
<path d="M0 0 C2.54647583 1.29416255 4.88655495 2.83766802 7.25 4.4375 C7.87390625 4.84548828 8.4978125 5.25347656 9.140625 5.67382812 C11.62229695 7.3131222 13.89203189 8.89203189 16 11 C16.125 13.625 16.125 13.625 16 16 C11.67161643 18.20575573 11.67161643 18.20575573 8.70410156 17.29663086 C7.9406543 16.85714111 7.17720703 16.41765137 6.390625 15.96484375 C5.13572266 15.24458008 5.13572266 15.24458008 3.85546875 14.50976562 C2.99566406 13.99091797 2.13585937 13.47207031 1.25 12.9375 C0.37472656 12.44572266 -0.50054687 11.95394531 -1.40234375 11.44726562 C-7.77727973 7.6964312 -7.77727973 7.6964312 -8.82128906 4.43188477 C-9 2 -9 2 -7.9375 0.125 C-4.98979227 -1.58657223 -3.26772669 -0.83129741 0 0 Z " fill="#0B0B0B" transform="translate(341,526)"/>
<path d="M0 0 C4.1117256 -0.02465746 8.22342278 -0.04283959 12.33520508 -0.05493164 C13.73495228 -0.0599708 15.1346942 -0.06680216 16.53442383 -0.07543945 C18.54245777 -0.0875232 20.55052957 -0.09269807 22.55859375 -0.09765625 C24.37315063 -0.10551147 24.37315063 -0.10551147 26.22436523 -0.11352539 C29 0 29 0 30 1 C30.08790975 3.29151417 30.10694038 5.58572524 30.09765625 7.87890625 C30.0962413 8.5655687 30.09482635 9.25223114 30.09336853 9.95970154 C30.08775479 12.16067801 30.07520007 14.36155409 30.0625 16.5625 C30.05748676 18.05143083 30.05292355 19.54036324 30.04882812 21.02929688 C30.03863021 24.68626805 30.01905779 28.34302117 30 32 C21.75 32 13.5 32 5 32 C5 31.67 5 31.34 5 31 C12.59 31 20.18 31 28 31 C28 21.43 28 11.86 28 2 C18.76 2 9.52 2 0 2 C0 1.34 0 0.68 0 0 Z " fill="#060706" transform="translate(208,688)"/>
<path d="M0 0 C0.33872513 1.41538717 0.67074624 2.83237963 1 4.25 C1.185625 5.03890625 1.37125 5.8278125 1.5625 6.640625 C2 9 2 9 2 13 C-1.63 13.66 -5.26 14.32 -9 15 C-9.95261487 10.23692563 -10.08333357 5.8333472 -10 1 C-6.56484998 0.37542727 -3.50935186 0 0 0 Z " fill="#F5F5F5" transform="translate(292,604)"/>
<path d="M0 0 C2.97 0.33 5.94 0.66 9 1 C9 5.29 9 9.58 9 14 C5.7 14 2.4 14 -1 14 C-2.4552777 11.0894446 -1.63516661 9.04150948 -1.0625 5.875 C-0.77052734 4.23144531 -0.77052734 4.23144531 -0.47265625 2.5546875 C-0.31667969 1.71164062 -0.16070312 0.86859375 0 0 Z " fill="#F9F9F9" transform="translate(249,605)"/>
<path d="M0 0 C5.75 1.875 5.75 1.875 8 3 C6.58192622 7.47238653 4.88695626 11.71146306 3 16 C1.68176698 15.40844669 0.37052949 14.80128537 -0.9375 14.1875 C-1.66839844 13.85105469 -2.39929688 13.51460937 -3.15234375 13.16796875 C-5 12 -5 12 -6 9 C-4.78515625 6.73828125 -4.78515625 6.73828125 -3.0625 4.3125 C-2.49660156 3.50425781 -1.93070313 2.69601562 -1.34765625 1.86328125 C-0.90292969 1.24839844 -0.45820313 0.63351562 0 0 Z " fill="#F5F5F5" transform="translate(203,588)"/>
<path d="M0 0 C2.97 0 5.94 0 9 0 C9 4.62 9 9.24 9 14 C6.03 14 3.06 14 0 14 C0 9.38 0 4.76 0 0 Z " fill="#F1F1F1" transform="translate(262,361)"/>
<path d="M0 0 C4.95 0 9.9 0 15 0 C15 2.97 15 5.94 15 9 C12.68715544 8.85973717 10.37472409 8.71264442 8.0625 8.5625 C6.13083984 8.44068359 6.13083984 8.44068359 4.16015625 8.31640625 C1 8 1 8 0 7 C0 4.69 0 2.38 0 0 Z " fill="#ECECEC" transform="translate(384,492)"/>
<path d="M0 0 C1.75 2.375 1.75 2.375 3 5 C2 8 2 8 -0.72265625 9.38671875 C-1.82480469 9.81597656 -2.92695313 10.24523437 -4.0625 10.6875 C-5.16722656 11.12449219 -6.27195312 11.56148438 -7.41015625 12.01171875 C-8.26480469 12.33785156 -9.11945313 12.66398437 -10 13 C-11.5625 10.1875 -11.5625 10.1875 -13 7 C-11.78836152 3.36508457 -10.89228938 3.04753785 -7.625 1.25 C-6.83351563 0.80140625 -6.04203125 0.3528125 -5.2265625 -0.109375 C-3 -1 -3 -1 0 0 Z " fill="#F5F5F6" transform="translate(382,426)"/>
<path d="M0 0 C0.66 2.97 1.32 5.94 2 9 C-3.13940726 10.24591691 -7.6787418 11.27288504 -13 11 C-13.33 8.36 -13.66 5.72 -14 3 C-12.0424015 2.49713066 -10.08389623 1.9977901 -8.125 1.5 C-7.03445313 1.2215625 -5.94390625 0.943125 -4.8203125 0.65625 C-2 0 -2 0 0 0 Z " fill="#F1F1F1" transform="translate(395,457)"/>
<path d="M0 0 C4.83628305 0.99043705 9.47618873 1.95698846 14 4 C13.01 6.64 12.02 9.28 11 12 C5.65155992 11.46515599 1.64203897 9.53309233 -3 7 C-1.125 2.25 -1.125 2.25 0 0 Z " fill="#F5F5F5" transform="translate(375,538)"/>
<path d="M0 0 C1.60546875 2.28515625 1.60546875 2.28515625 3.1875 5.0625 C3.71730469 5.98160156 4.24710937 6.90070312 4.79296875 7.84765625 C5.19128906 8.55792969 5.58960938 9.26820313 6 10 C4.87926138 10.83905565 3.75325453 11.67107831 2.625 12.5 C1.99851562 12.9640625 1.37203125 13.428125 0.7265625 13.90625 C-1 15 -1 15 -3 15 C-3.86604534 13.23494565 -4.71748642 11.46271926 -5.5625 9.6875 C-6.03816406 8.70136719 -6.51382812 7.71523438 -7.00390625 6.69921875 C-8 4 -8 4 -7 1 C-4.05697101 -0.96201933 -3.48011144 -1.16003715 0 0 Z " fill="#F7F7F8" transform="translate(338,587)"/>
<path d="M0 0 C2.64 0.66 5.28 1.32 8 2 C7.34 6.62 6.68 11.24 6 16 C1.545 15.01 1.545 15.01 -3 14 C-2.14285714 4.42857143 -2.14285714 4.42857143 0 0 Z " fill="#F4F4F4" transform="translate(234,601)"/>
<path d="M0 0 C4.72065967 1.54269924 9.41664092 3.07794619 14 5 C13.34 7.31 12.68 9.62 12 12 C1.44191344 10.07289294 1.44191344 10.07289294 -3 8 C-2.01 5.36 -1.02 2.72 0 0 Z " fill="#F4F4F4" transform="translate(146,444)"/>
<path d="M0 0 C4.61762745 0.5387232 8.1975851 3.52843031 12 6 C10.02 8.64 8.04 11.28 6 14 C-2.30357143 8.10714286 -2.30357143 8.10714286 -4 4 C-2.25 1.9375 -2.25 1.9375 0 0 Z " fill="#F5F6F6" transform="translate(358,565)"/>
<path d="M0 0 C2 1 2 1 2.6328125 2.84765625 C2.87644531 3.94400391 2.87644531 3.94400391 3.125 5.0625 C3.29257812 5.79597656 3.46015625 6.52945312 3.6328125 7.28515625 C3.75398438 7.85105469 3.87515625 8.41695313 4 9 C2.0429132 9.67031719 0.08428887 10.33614683 -1.875 11 C-2.96554687 11.37125 -4.05609375 11.7425 -5.1796875 12.125 C-8 13 -8 13 -10 13 C-10.66 10.69 -11.32 8.38 -12 6 C-10.04669132 4.96958487 -8.08718472 3.9509107 -6.125 2.9375 C-5.03445313 2.36902344 -3.94390625 1.80054688 -2.8203125 1.21484375 C-1.42425781 0.61349609 -1.42425781 0.61349609 0 0 Z " fill="#F6F6F6" transform="translate(388,440)"/>
<path d="M0 0 C4.04420651 1.77945087 7.46078487 4.39529673 11 7 C9.61410019 10.09162264 8.50816459 11.49183541 6 14 C2.37 12.02 -1.26 10.04 -5 8 C-1.125 1.125 -1.125 1.125 0 0 Z " fill="#F5F5F5" transform="translate(164,414)"/>
<path d="M0 0 C5.75 3.625 5.75 3.625 8 7 C5.36 9.97 2.72 12.94 0 16 C-4 14 -4 14 -6 12 C-5.62655279 8.76798416 -4.18828083 6.44350897 -2.4375 3.75 C-1.98246094 3.04359375 -1.52742188 2.3371875 -1.05859375 1.609375 C-0.53458984 0.81273437 -0.53458984 0.81273437 0 0 Z " fill="#F6F7F7" transform="translate(344,386)"/>
<path d="M0 0 C1.203125 1.9609375 1.203125 1.9609375 2.25 4.375 C2.60578125 5.16648437 2.9615625 5.95796875 3.328125 6.7734375 C4 9 4 9 3 12 C0.10441559 13.4477922 -1.74188938 14 -5 14 C-6.32 10.04 -7.64 6.08 -9 2 C-3.375 -1.125 -3.375 -1.125 0 0 Z " fill="#F7F7F7" transform="translate(323,595)"/>
<path d="M0 0 C3.23475448 1.61737724 4.70572021 2.47629223 7 5 C4.99892742 9.6489565 1.8751729 11.84245171 -2 15 C-3.98 12.69 -5.96 10.38 -8 8 C-5.36 5.36 -2.72 2.72 0 0 Z " fill="#F9F9F9" transform="translate(178,567)"/>
<path d="M0 0 C2.5 2.3125 2.5 2.3125 5 5 C5 5.99 5 6.98 5 8 C3.35546875 9.640625 3.35546875 9.640625 1.1875 11.25 C0.12595703 12.06210937 0.12595703 12.06210937 -0.95703125 12.890625 C-1.63121094 13.25671875 -2.30539063 13.6228125 -3 14 C-7.39158329 12.5361389 -7.87947433 10.02168662 -10 6 C-6.7 4.02 -3.4 2.04 0 0 Z " fill="#F4F4F4" transform="translate(169,554)"/>
<path d="M0 0 C2.31 0.66 4.62 1.32 7 2 C6.45144652 6.571279 5.58255197 10.67435795 4 15 C0.63672037 14.43945339 -1.99112219 13.58158962 -5 12 C-4.54738642 10.56068883 -4.08767021 9.12361001 -3.625 7.6875 C-3.24214844 6.48673828 -3.24214844 6.48673828 -2.8515625 5.26171875 C-2 3 -2 3 0 0 Z " fill="#F8F8F8" transform="translate(218,596)"/>
<path d="M0 0 C2.97 1.32 5.94 2.64 9 4 C7.35 7.63 5.7 11.26 4 15 C-1 14 -1 14 -4 13 C-3.52511102 11.01980257 -3.04497141 9.04086365 -2.5625 7.0625 C-2.29566406 5.96035156 -2.02882813 4.85820312 -1.75390625 3.72265625 C-1 1 -1 1 0 0 Z " fill="#F3F3F3" transform="translate(314,370)"/>
<path d="M0 0 C1.98 1.32 3.96 2.64 6 4 C4.44298069 8.67105792 1.91552627 12.08705685 -1 16 C-3.31 14.02 -5.62 12.04 -8 10 C-5.61820737 6.25718301 -3.25524265 3.02272532 0 0 Z " fill="#F5F5F5" transform="translate(191,578)"/>
<path d="M0 0 C4.62 0 9.24 0 14 0 C14.33 2.31 14.66 4.62 15 7 C5.58997722 9.29612756 5.58997722 9.29612756 1 9 C0.67 6.03 0.34 3.06 0 0 Z " fill="#F5F6F6" transform="translate(140,511)"/>
<path d="M0 0 C4.95 0 9.9 0 15 0 C14.67 2.64 14.34 5.28 14 8 C9.38 8 4.76 8 0 8 C0 5.36 0 2.72 0 0 Z " fill="#F5F5F4" transform="translate(138,478)"/>
<path d="M0 0 C2.94956528 1.36944102 5.52468811 2.87830409 8 5 C8 5.66 8 6.32 8 7 C8.99 7.33 9.98 7.66 11 8 C9.35 9.98 7.7 11.96 6 14 C2.14341602 11.84921278 -1.54319097 9.76544722 -5 7 C-3.70700306 4.11562221 -2.34058637 2.12780579 0 0 Z " fill="#F5F5F5" transform="translate(175,401)"/>
<path d="M0 0 C4.29238623 1.65091778 6.8793915 4.73754566 10 8 C8.70700306 10.88437779 7.34058637 12.87219421 5 15 C1.51127585 13.83709195 0.90023136 12.86032391 -1.1875 9.9375 C-1.71730469 9.20402344 -2.24710937 8.47054687 -2.79296875 7.71484375 C-3.19128906 7.14894531 -3.58960938 6.58304688 -4 6 C-2.84826645 3.53199953 -1.95216435 1.95216435 0 0 Z " fill="#FAFAF9" transform="translate(347,576)"/>
<path d="M0 0 C4.85963179 0.60745397 8.7405518 2.72758967 13 5 C9.25 11.875 9.25 11.875 7 13 C4.6171875 11.78515625 4.6171875 11.78515625 1.875 10.0625 C0.96492188 9.49660156 0.05484375 8.93070313 -0.8828125 8.34765625 C-1.58148438 7.90292969 -2.28015625 7.45820312 -3 7 C-1.125 2.25 -1.125 2.25 0 0 Z " fill="#F7F7F7" transform="translate(367,552)"/>
<path d="M0 0 C3.44620861 1.1487362 4.09169196 2.07581642 6.1875 4.9375 C6.71730469 5.64777344 7.24710938 6.35804688 7.79296875 7.08984375 C9 9 9 9 9 11 C4.52941176 15 4.52941176 15 2 15 C0.74772516 13.52295788 -0.50166522 12.04172601 -1.68359375 10.5078125 C-3.11764091 8.73237056 -3.11764091 8.73237056 -6 7 C-6 6.34 -6 5.68 -6 5 C-3.1875 2.3125 -3.1875 2.3125 0 0 Z " fill="#F5F5F5" transform="translate(188,389)"/>
<path d="M0 0 C0.99 3.96 1.98 7.92 3 12 C-0.465 13.485 -0.465 13.485 -4 15 C-4.86916887 13.59248779 -5.71985149 12.1735479 -6.5625 10.75 C-7.27599609 9.56664062 -7.27599609 9.56664062 -8.00390625 8.359375 C-9 6 -9 6 -8.80078125 3.78125 C-8 2 -8 2 -5.625 0.75 C-3 0 -3 0 0 0 Z " fill="#F6F6F6" transform="translate(220,372)"/>
<path d="M0 0 C0.33 4.29 0.66 8.58 1 13 C-1.97 13 -4.94 13 -8 13 C-8.66 9.04 -9.32 5.08 -10 1 C-6 0 -6 0 0 0 Z " fill="#F5F5F5" transform="translate(254,363)"/>
<path d="M0 0 C1.58357459 0.31127516 3.16684993 0.62407289 4.75 0.9375 C5.63171875 1.11152344 6.5134375 1.28554688 7.421875 1.46484375 C9.63235053 1.92368488 11.81512068 2.43336074 14 3 C13.67 5.31 13.34 7.62 13 10 C6.07 9.505 6.07 9.505 -1 9 C-0.67 6.03 -0.34 3.06 0 0 Z " fill="#F7F7F7" transform="translate(141,460)"/>
<path d="M0 0 C4.455 0.99 4.455 0.99 9 2 C8.52060632 6.71403788 8.03165952 10.66579301 6 15 C3.69 14.34 1.38 13.68 -1 13 C-1.07654536 8.48382401 -1.10228696 4.40914783 0 0 Z " fill="#F8F7F8" transform="translate(296,365)"/>
<path d="M0 0 C2.97 0.33 5.94 0.66 9 1 C8.67 5.29 8.34 9.58 8 14 C5.36 14 2.72 14 0 14 C0 9.38 0 4.76 0 0 Z " fill="#F6F6F6" transform="translate(279,362)"/>
<path d="M0 0 C0.67057887 1.7902061 1.3363469 3.58221489 2 5.375 C2.556875 6.87160156 2.556875 6.87160156 3.125 8.3984375 C4 11 4 11 4 13 C1.03 13.66 -1.94 14.32 -5 15 C-5.99 10.71 -6.98 6.42 -8 2 C-2 0 -2 0 0 0 Z " fill="#F6F6F6" transform="translate(307,600)"/>
<path d="M0 0 C1.4606285 2.64738916 2 3.89448334 2 7 C0.58603098 7.50757862 -0.83131729 8.00574925 -2.25 8.5 C-3.03890625 8.7784375 -3.8278125 9.056875 -4.640625 9.34375 C-7 10 -7 10 -11 10 C-12.76462683 6.91190305 -13 5.76687864 -13 2 C-4.57142857 -0.28571429 -4.57142857 -0.28571429 0 0 Z " fill="#F5F5F5" transform="translate(157,526)"/>
<path d="M0 0 C2.60444348 -0.05394705 5.20776998 -0.09364469 7.8125 -0.125 C8.55048828 -0.14175781 9.28847656 -0.15851563 10.04882812 -0.17578125 C13.91246426 -0.21074628 15.70903668 -0.19397555 19 2 C19 3.32 19 4.64 19 6 C12.73 6 6.46 6 0 6 C0 4.02 0 2.04 0 0 Z " fill="#ECECEC" transform="translate(406,474)"/>
<path d="M0 0 C1.98 1.65 3.96 3.3 6 5 C4.5741914 8.45195767 2.90253666 10.1014256 -0.125 12.25 C-0.84945313 12.77078125 -1.57390625 13.2915625 -2.3203125 13.828125 C-2.87460937 14.21484375 -3.42890625 14.6015625 -4 15 C-5.65 13.02 -7.3 11.04 -9 9 C-6.03 6.03 -3.06 3.06 0 0 Z " fill="#F9FAFA" transform="translate(358,398)"/>
<path d="M0 0 C2.64 0 5.28 0 8 0 C8.33 4.29 8.66 8.58 9 13 C6.03 13 3.06 13 0 13 C0 8.71 0 4.42 0 0 Z " fill="#F4F4F4" transform="translate(266,606)"/>
<path d="M0 0 C2.81681805 1.45108809 3.02413218 3.16158901 4.0625 6.0625 C2.44079621 7.06783667 0.81502763 8.06661907 -0.8125 9.0625 C-1.71742188 9.619375 -2.62234375 10.17625 -3.5546875 10.75 C-5.9375 12.0625 -5.9375 12.0625 -7.9375 12.0625 C-9.2575 9.4225 -10.5775 6.7825 -11.9375 4.0625 C-4.10667652 0.0873761 -4.10667652 0.0873761 0 0 Z " fill="#F6F6F6" transform="translate(161.9375,540.9375)"/>
<path d="M0 0 C4.23429756 1.31061591 8.07407404 2.94356259 12 5 C11.125 9.75 11.125 9.75 10 12 C5.15340923 11.40895235 1.39251833 10.02055843 -3 8 C-1.125 2.25 -1.125 2.25 0 0 Z " fill="#F4F4F4" transform="translate(154,429)"/>
<path d="M0 0 C5.75 1.875 5.75 1.875 8 3 C6.61735163 5.86867231 5.07851447 8.56024032 3.375 11.25 C2.92898438 11.95640625 2.48296875 12.6628125 2.0234375 13.390625 C1.51683594 14.18726563 1.51683594 14.18726563 1 15 C-1.4375 14.25 -1.4375 14.25 -4 13 C-4.8125 11.21875 -4.8125 11.21875 -5 9 C-4.00390625 6.640625 -4.00390625 6.640625 -2.5625 4.25 C-2.08941406 3.45078125 -1.61632812 2.6515625 -1.12890625 1.828125 C-0.75636719 1.22484375 -0.38382812 0.6215625 0 0 Z " fill="#F4F4F4" transform="translate(330,378)"/>
<path d="M0 0 C4.96916636 0.51405169 9.29026351 1.23384882 14 3 C13.34 5.64 12.68 8.28 12 11 C10.20763933 10.52343588 8.41613103 10.04366502 6.625 9.5625 C5.62726563 9.29566406 4.62953125 9.02882813 3.6015625 8.75390625 C1 8 1 8 -1 7 C-0.67 4.69 -0.34 2.38 0 0 Z " fill="#F4F4F4" transform="translate(380,523)"/>
<path d="M0 0 C2 3 2 3 2 9 C-2.62 9 -7.24 9 -12 9 C-12 6.69 -12 4.38 -12 2 C-8.04 1.34 -4.08 0.68 0 0 Z " fill="#F6F7F7" transform="translate(396,474)"/>
<path d="M0 0 C3.08236365 2.78407039 3.95206337 3.80825346 5 8 C0.05 10.97 0.05 10.97 -5 14 C-6.65 12.35 -8.3 10.7 -10 9 C-6.83047153 5.73991357 -3.60062011 2.77762123 0 0 Z " fill="#F8F8F8" transform="translate(370,411)"/>
<path d="M0 0 C0.66 3.96 1.32 7.92 2 12 C-2 14 -2 14 -6 14 C-6.50833591 12.75336669 -7.00631145 11.50250613 -7.5 10.25 C-7.7784375 9.55390625 -8.056875 8.8578125 -8.34375 8.140625 C-9 6 -9 6 -9 2 C-2.25 0 -2.25 0 0 0 Z " fill="#F4F4F4" transform="translate(237,366)"/>
<path d="M0 0 C4.29 0.66 8.58 1.32 13 2 C12.67 4.64 12.34 7.28 12 10 C10.3954444 9.85851011 8.79136233 9.71164314 7.1875 9.5625 C6.29417969 9.48128906 5.40085937 9.40007813 4.48046875 9.31640625 C2 9 2 9 -1 8 C-0.67 5.36 -0.34 2.72 0 0 Z " fill="#F5F5F5" transform="translate(384,507)"/>
<path d="M0 0 C5.94 0 11.88 0 18 0 C16 4 16 4 14.296875 5.2421875 C11.20852967 6.26113137 8.49420419 6.18988408 5.25 6.125 C4.07953125 6.10695313 2.9090625 6.08890625 1.703125 6.0703125 C0.36507813 6.03550781 0.36507813 6.03550781 -1 6 C-0.67 4.02 -0.34 2.04 0 0 Z " fill="#F9F9F9" transform="translate(407,501)"/>
<path d="M0 0 C4.29 0 8.58 0 13 0 C13.33 2.31 13.66 4.62 14 7 C9.38 7.33 4.76 7.66 0 8 C0 5.36 0 2.72 0 0 Z " fill="#F7F7F7" transform="translate(139,495)"/>
<path d="M0 0 C1.65 3.63 3.3 7.26 5 11 C0 14 0 14 -2 14 C-3.5078125 12.1015625 -3.5078125 12.1015625 -5.125 9.625 C-5.66382813 8.81289063 -6.20265625 8.00078125 -6.7578125 7.1640625 C-8 5 -8 5 -8 3 C-5.09451118 0.95830515 -3.59857954 0 0 0 Z " fill="#F8F8F8" transform="translate(204,380)"/>
<path d="M0 0 C0.33 0 0.66 0 1 0 C1 10.56 1 21.12 1 32 C10.9 32 20.8 32 31 32 C31 32.33 31 32.66 31 33 C26.60364953 33.16726689 22.20712239 33.32786093 17.81030273 33.48217773 C16.31349062 33.53566434 14.81674337 33.5909987 13.32006836 33.64819336 C11.17315668 33.72991956 9.02610207 33.8050746 6.87890625 33.87890625 C5.5854126 33.9260376 4.29191895 33.97316895 2.95922852 34.02172852 C0 34 0 34 -1 33 C-1.1007812 30.63601532 -1.13973215 28.30188689 -1.1328125 25.9375 C-1.13376923 25.23101318 -1.13472595 24.52452637 -1.13571167 23.79663086 C-1.13639333 22.30029207 -1.13454005 20.80395033 -1.13037109 19.30761719 C-1.12502257 17.00969843 -1.13031651 14.71197514 -1.13671875 12.4140625 C-1.13605797 10.96354123 -1.1347768 9.51302009 -1.1328125 8.0625 C-1.13483673 7.3708374 -1.13686096 6.6791748 -1.13894653 5.96655273 C-1.11495224 1.11495224 -1.11495224 1.11495224 0 0 Z " fill="#2B2A2A" transform="translate(300,649)"/>
<path d="M0 0 C1.32 0.33 2.64 0.66 4 1 C3.67 9.58 3.34 18.16 3 27 C4.32 27 5.64 27 7 27 C7 27.66 7 28.32 7 29 C2.25 28.25 2.25 28.25 0 26 C-0.22705078 23.38623047 -0.22705078 23.38623047 -0.1953125 20.1171875 C-0.18886719 18.95058594 -0.18242187 17.78398437 -0.17578125 16.58203125 C-0.15902344 15.35871094 -0.14226562 14.13539063 -0.125 12.875 C-0.11597656 11.64394531 -0.10695313 10.41289062 -0.09765625 9.14453125 C-0.07402548 6.09616185 -0.04108054 3.04817618 0 0 Z " fill="#1B1B1C" transform="translate(263,391)"/>
<path d="M0 0 C0.763125 0.20625 1.52625 0.4125 2.3125 0.625 C2.9375 4 2.9375 4 3.3125 7.625 C1.3125 9.625 1.3125 9.625 -1.125 9.9375 C-3.6875 9.625 -3.6875 9.625 -5.5625 8.4375 C-6.6875 6.625 -6.6875 6.625 -6.5625 4.0625 C-5.27735218 0.48244537 -3.77697149 -0.52701928 0 0 Z " fill="#F4F4F4" transform="translate(269.6875,486.375)"/>
<path d="M0 0 C6.27 0 12.54 0 19 0 C19 1.32 19 2.64 19 4 C12.73 4 6.46 4 0 4 C0 2.68 0 1.36 0 0 Z " fill="#FCFCFC" transform="translate(407,488)"/>
<path d="M0 0 C1.08410156 -0.00257813 2.16820312 -0.00515625 3.28515625 -0.0078125 C5.9375 0.125 5.9375 0.125 6.9375 1.125 C7.07865161 3.79558851 6.97997107 6.44932238 6.9375 9.125 C6.6075 9.125 6.2775 9.125 5.9375 9.125 C5.9375 7.145 5.9375 5.165 5.9375 3.125 C1.3175 3.125 -3.3025 3.125 -8.0625 3.125 C-8.3925 4.115 -8.7225 5.105 -9.0625 6.125 C-8.6875 3.6875 -8.6875 3.6875 -8.0625 1.125 C-5.31744537 -0.24752731 -3.05922588 -0.00729255 0 0 Z " fill="#242424" transform="translate(146.0625,491.875)"/>
<path d="M0 0 C0.66796875 1.7734375 0.66796875 1.7734375 1 4 C-0.07421875 5.8515625 -0.07421875 5.8515625 -1.6875 7.625 C-2.46673828 8.51058594 -2.46673828 8.51058594 -3.26171875 9.4140625 C-7.10151943 12.91734132 -10.10975504 13.23674446 -15.25 13.125 C-16.32765625 13.10695313 -17.4053125 13.08890625 -18.515625 13.0703125 C-19.33546875 13.04710937 -20.1553125 13.02390625 -21 13 C-21 12.67 -21 12.34 -21 12 C-20.13117188 11.91363281 -19.26234375 11.82726562 -18.3671875 11.73828125 C-9.04046781 10.65694156 -9.04046781 10.65694156 -2 5 C-0.60180488 2.3485518 -0.60180488 2.3485518 0 0 Z " fill="#040403" transform="translate(432,502)"/>
<path d="M0 0 C2.97 0.495 2.97 0.495 6 1 C6.33 1.99 6.66 2.98 7 4 C6.01 4 5.02 4 4 4 C4 3.34 4 2.68 4 2 C2.576875 3.2375 2.576875 3.2375 1.125 4.5 C-1.75 7 -1.75 7 -4 7 C-4.33 7.99 -4.66 8.98 -5 10 C-5.33 9.34 -5.66 8.68 -6 8 C-4.02 5.36 -2.04 2.72 0 0 Z " fill="#151616" transform="translate(315,402)"/>
<path d="M0 0 C1.98 0.66 3.96 1.32 6 2 C7 6.75 7 6.75 7 9 C6.34 9 5.68 9 5 9 C5 10.98 5 12.96 5 15 C4.01 15.33 3.02 15.66 2 16 C2.99 11.71 3.98 7.42 5 3 C2.69 2.67 0.38 2.34 -2 2 C-1.34 1.34 -0.68 0.68 0 0 Z " fill="#161616" transform="translate(300,364)"/>
<path d="M0 0 C0.66 0 1.32 0 2 0 C1.67 0.66 1.34 1.32 1 2 C0.67 1.34 0.34 0.68 0 0 Z M-2 1 C-1.34 1.33 -0.68 1.66 0 2 C-0.99 2 -1.98 2 -3 2 C-2.67 1.67 -2.34 1.34 -2 1 Z M-5 3 C-4.34 3 -3.68 3 -3 3 C-3.66 4.32 -4.32 5.64 -5 7 C-5.66 6.34 -6.32 5.68 -7 5 C-6.34 4.34 -5.68 3.68 -5 3 Z M-9 6 C-8.34 6.33 -7.68 6.66 -7 7 C-7.99 7 -8.98 7 -10 7 C-9.67 6.67 -9.34 6.34 -9 6 Z M-12 8 C-11.34 8.33 -10.68 8.66 -10 9 C-11.98 9.99 -11.98 9.99 -14 11 C-13.34 10.01 -12.68 9.02 -12 8 Z M-16 11 C-15.34 11.33 -14.68 11.66 -14 12 C-14.99 12 -15.98 12 -17 12 C-16.67 11.67 -16.34 11.34 -16 11 Z M-19 13 C-18.34 13.33 -17.68 13.66 -17 14 C-17.99 14 -18.98 14 -20 14 C-19.67 13.67 -19.34 13.34 -19 13 Z " fill="#121213" transform="translate(340,435)"/>
<path d="M0 0 C1.265625 1.875 1.265625 1.875 2.25 4 C2.58515625 4.70125 2.9203125 5.4025 3.265625 6.125 C4 8 4 8 4 10 C3.01 10 2.02 10 1 10 C0.70609375 9.04287109 0.70609375 9.04287109 0.40625 8.06640625 C-0.53412454 5.46821625 -1.43297555 3.28165647 -3 1 C-5.87282756 -0.15132402 -7.83840709 -0.05269322 -11 0 C-11 -0.33 -11 -0.66 -11 -1 C-3.62110663 -2.41901796 -3.62110663 -2.41901796 0 0 Z " fill="#1C1D1D" transform="translate(357,344)"/>
<path d="M0 0 C1.4552777 2.9105554 0.63516661 4.95849052 0.0625 8.125 C-0.13214844 9.22070312 -0.32679688 10.31640625 -0.52734375 11.4453125 C-0.68332031 12.28835938 -0.83929688 13.13140625 -1 14 C-1.99 14.33 -2.98 14.66 -4 15 C-3.71617054 13.24871182 -3.42260471 11.49899997 -3.125 9.75 C-2.96257812 8.77546875 -2.80015625 7.8009375 -2.6328125 6.796875 C-2.05144152 4.22735883 -1.29159735 2.27928944 0 0 Z " fill="#171718" transform="translate(137,445)"/>
<path d="M0 0 C0.66 0 1.32 0 2 0 C2 1.98 2 3.96 2 6 C4.64 6 7.28 6 10 6 C8.3125 7.5625 8.3125 7.5625 6 9 C3.25 8.6875 3.25 8.6875 1 8 C0.67 5.36 0.34 2.72 0 0 Z " fill="#171817" transform="translate(244,370)"/>
<path d="M0 0 C0.66 0.33 1.32 0.66 2 1 C1.67 2.65 1.34 4.3 1 6 C2.98 5.67 4.96 5.34 7 5 C7.33 5.66 7.66 6.32 8 7 C5.75804887 8.36118461 4.52173238 9.06138028 1.875 8.75 C0 8 0 8 -2 6 C-1.44444444 1.44444444 -1.44444444 1.44444444 0 0 Z " fill="#171717" transform="translate(181,535)"/>
<path d="M0 0 C0.33 0 0.66 0 1 0 C1.19406478 1.64507218 1.38007935 3.29109594 1.5625 4.9375 C1.66691406 5.85402344 1.77132813 6.77054688 1.87890625 7.71484375 C1.91886719 8.46894531 1.95882813 9.22304688 2 10 C1 11 1 11 -1.50390625 11.09765625 C-3.01791016 11.08025391 -3.01791016 11.08025391 -4.5625 11.0625 C-5.57441406 11.05347656 -6.58632813 11.04445313 -7.62890625 11.03515625 C-8.41136719 11.02355469 -9.19382812 11.01195312 -10 11 C-10 10.67 -10 10.34 -10 10 C-6.7 9.67 -3.4 9.34 0 9 C0 6.03 0 3.06 0 0 Z " fill="#020202" transform="translate(275,610)"/>
<path d="M0 0 C2.31082041 4.45658222 4 7.90360271 4 13 C3.34 13 2.68 13 2 13 C1.46605821 11.5882217 0.94834896 10.17029756 0.4375 8.75 C0.14746094 7.96109375 -0.14257812 7.1721875 -0.44140625 6.359375 C-1.04522837 3.80896548 -0.8473932 2.44677771 0 0 Z " fill="#101010" transform="translate(372,386)"/>
<path d="M0 0 C0.99 0 1.98 0 3 0 C2.67 2.97 2.34 5.94 2 9 C1.01 9.33 0.02 9.66 -1 10 C-0.67 6.7 -0.34 3.4 0 0 Z " fill="#1C1C1C" transform="translate(327,701)"/>
<path d="M0 0 C1.32 0 2.64 0 4 0 C4 0.66 4 1.32 4 2 C6.31 2 8.62 2 11 2 C11.33 2.99 11.66 3.98 12 5 C10.39431334 4.71682074 8.79047953 4.42312209 7.1875 4.125 C6.29417969 3.96257813 5.40085938 3.80015625 4.48046875 3.6328125 C2 3 2 3 -1 1 C-0.67 0.67 -0.34 0.34 0 0 Z " fill="#101110" transform="translate(223,619)"/>
<path d="M0 0 C1.79068573 2.6860286 2.66055791 4.6626589 3.625 7.6875 C3.88539063 8.49574219 4.14578125 9.30398438 4.4140625 10.13671875 C4.60742188 10.75160156 4.80078125 11.36648438 5 12 C3.08203125 11.28515625 3.08203125 11.28515625 1 10 C0.13671875 7.87109375 0.13671875 7.87109375 -0.3125 5.4375 C-0.47363281 4.63183594 -0.63476562 3.82617188 -0.80078125 2.99609375 C-0.89939453 2.00802734 -0.89939453 2.00802734 -1 1 C-0.67 0.67 -0.34 0.34 0 0 Z " fill="#111010" transform="translate(384,401)"/>
<path d="M0 0 C0.99 0.33 1.98 0.66 3 1 C3 5 3 5 0.5 7.75 C-0.325 8.4925 -1.15 9.235 -2 10 C-2.66 9.67 -3.32 9.34 -4 9 C-3 6 -3 6 0 4 C0 2.68 0 1.36 0 0 Z " fill="#444444" transform="translate(347,433)"/>
<path d="M0 0 C-0.33 0.99 -0.66 1.98 -1 3 C-6.94 2.67 -12.88 2.34 -19 2 C-19 1.67 -19 1.34 -19 1 C-16.20837429 0.83262201 -13.41670379 0.66606598 -10.625 0.5 C-9.8309375 0.45230469 -9.036875 0.40460938 -8.21875 0.35546875 C-2.2265625 0 -2.2265625 0 0 0 Z " fill="#101010" transform="translate(426,466)"/>
<path d="M0 0 C2.31 0.33 4.62 0.66 7 1 C6.67 2.32 6.34 3.64 6 5 C5.67 4.34 5.34 3.68 5 3 C2.69 3 0.38 3 -2 3 C-1.34 2.67 -0.68 2.34 0 2 C0 1.34 0 0.68 0 0 Z " fill="#181919" transform="translate(391,472)"/>
<path d="M0 0 C0.66 0.33 1.32 0.66 2 1 C1.67 3.31 1.34 5.62 1 8 C-0.32 8.33 -1.64 8.66 -3 9 C-2.01 6.03 -1.02 3.06 0 0 Z " fill="#101010" transform="translate(394,526)"/>
<path d="M0 0 C0.33 0 0.66 0 1 0 C1.66 3.3 2.32 6.6 3 10 C2.34 10 1.68 10 1 10 C-2 4.25 -2 4.25 -2 2 C-1.34 2 -0.68 2 0 2 C0 1.34 0 0.68 0 0 Z " fill="#131414" transform="translate(207,380)"/>
<path d="M0 0 C0.66 0.33 1.32 0.66 2 1 C1.34 3.97 0.68 6.94 0 10 C-0.66 10 -1.32 10 -2 10 C-1.34 6.7 -0.68 3.4 0 0 Z " fill="#111111" transform="translate(371,613)"/>
<path d="M0 0 C3.03869411 1.51934706 3.64410306 3.98004772 5 7 C5 7.66 5 8.32 5 9 C4.01 9 3.02 9 2 9 C1.34 6.03 0.68 3.06 0 0 Z " fill="#101010" transform="translate(157,593)"/>
<path d="M0 0 C0.99 0.33 1.98 0.66 3 1 C-1.455 3.97 -1.455 3.97 -6 7 C-4.14418503 3.28837006 -3.44285416 1.98224936 0 0 Z " fill="#131313" transform="translate(291,478)"/>
<path d="M0 0 C2.5654594 2.5654594 2.54046087 4.47686668 3 8 C2.01 8 1.02 8 0 8 C-1.125 2.25 -1.125 2.25 0 0 Z " fill="#101010" transform="translate(153,577)"/>
<path d="M0 0 C1.88391785 3.26545761 2.49287967 6.28111761 3 10 C2.34 10 1.68 10 1 10 C0.63720544 8.71073008 0.28503302 7.41846728 -0.0625 6.125 C-0.35833984 5.04605469 -0.35833984 5.04605469 -0.66015625 3.9453125 C-1 2 -1 2 0 0 Z " fill="#111110" transform="translate(147,561)"/>
<path d="M0 0 C5.75 1.875 5.75 1.875 8 3 C8 3.66 8 4.32 8 5 C2.25 3.125 2.25 3.125 0 2 C0 1.34 0 0.68 0 0 Z " fill="#111010" transform="translate(328,367)"/>
<path d="M0 0 C1.00000429 4.00001715 0.80688405 6.05523353 0 10 C-0.99 10 -1.98 10 -3 10 C-2.01 6.7 -1.02 3.4 0 0 Z " fill="#141414" transform="translate(171,348)"/>
</svg>
