<?xml version="1.0" encoding="UTF-8"?>
<svg version="1.1" xmlns="http://www.w3.org/2000/svg" width="512" height="1024">
<path d="M0 0 C168.96 0 337.92 0 512 0 C512 337.92 512 675.84 512 1024 C343.04 1024 174.08 1024 0 1024 C0 686.08 0 348.16 0 0 Z " fill="#FEFEFE" transform="translate(0,0)"/>
<path d="M0 0 C4.08105062 1.54342971 7.41572782 3.49934499 11 6 C10.34 6.66 9.68 7.32 9 8 C8.62653332 11.20538403 8.62653332 11.20538403 8.5859375 14.9765625 C8.56657135 15.66181 8.5472052 16.3470575 8.5272522 17.05307007 C8.46743169 19.24358644 8.42106244 21.4341553 8.375 23.625 C8.33682237 25.10939802 8.29777076 26.59377384 8.2578125 28.078125 C8.16172916 31.71854685 8.07770718 35.35913436 8 39 C9.14553345 39.1551709 9.14553345 39.1551709 10.31420898 39.31347656 C13.26742707 40.06835787 14.07963989 40.67853974 15.97265625 42.984375 C16.73352539 43.89316406 16.73352539 43.89316406 17.50976562 44.8203125 C18.02216797 45.45710938 18.53457031 46.09390625 19.0625 46.75 C19.57876953 47.37132812 20.09503906 47.99265625 20.62695312 48.6328125 C22.87890579 51.35236808 25.07950894 54.10232454 27.24609375 56.890625 C28.82932352 59.08208708 28.82932352 59.08208708 31 60 C32.85216428 60.11140777 34.70829383 60.15924472 36.5637207 60.17700195 C38.31112297 60.19625481 38.31112297 60.19625481 40.09382629 60.21589661 C41.990644 60.22697701 41.990644 60.22697701 43.92578125 60.23828125 C45.86809883 60.25038887 45.86809883 60.25038887 47.84965515 60.26274109 C50.59434885 60.27776822 53.33901667 60.2876059 56.08374023 60.29516602 C59.59445768 60.30622323 63.10454001 60.34061448 66.61503315 60.38033772 C69.96859037 60.41281689 73.32207889 60.41728395 76.67578125 60.42578125 C77.93425369 60.44328934 79.19272614 60.46079742 80.48933411 60.47883606 C82.2509211 60.47444771 82.2509211 60.47444771 84.0480957 60.4699707 C85.0790889 60.47583694 86.11008209 60.48170319 87.1723175 60.48774719 C90.70248671 59.87882801 92.40484248 58.40322963 95 56 C98.00939316 57.34406448 99.99796933 58.86192145 102.3125 61.1875 C105.014927 63.52193694 105.72751514 63.97522865 109.4375 64.3125 C114.26330106 62.53457329 117.39056118 59.59068849 121 56 C123.49361571 57.20381448 125.68143083 58.45428722 128 60 C129.91939303 60.30718435 129.91939303 60.30718435 132.03411865 60.27415466 C132.85271362 60.28412979 133.67130859 60.29410492 134.51470947 60.30438232 C135.40929871 60.305047 136.30388794 60.30571167 137.22558594 60.30639648 C138.17062988 60.31472 139.11567383 60.32304352 140.08935547 60.33161926 C143.2210703 60.35576111 146.35257691 60.36449735 149.484375 60.37109375 C151.66050276 60.38005823 153.83662988 60.38918005 156.01275635 60.39845276 C160.5791575 60.41495763 165.14548521 60.42264537 169.71191406 60.42553711 C175.55746427 60.43091657 181.40232202 60.46857275 187.24767685 60.51428127 C191.7447561 60.54405814 196.24166893 60.55126084 200.7388382 60.55226326 C202.89338598 60.55646575 205.04793424 60.56890114 207.20238495 60.58978081 C210.22104889 60.61670193 213.23811237 60.61186661 216.25683594 60.59936523 C217.5865744 60.62161667 217.5865744 60.62161667 218.94317627 60.64431763 C225.18566521 60.57087346 228.24436266 59.05075544 233 55 C233.55429687 55.56589844 234.10859375 56.13179688 234.6796875 56.71484375 C235.40414063 57.44832031 236.12859375 58.18179688 236.875 58.9375 C237.59429687 59.66839844 238.31359375 60.39929688 239.0546875 61.15234375 C241.34029567 63.32321256 242.53071929 63.9106132 245.625 64.5 C250.67672391 63.75159646 253.55802605 60.63091285 257 57 C257.33 56.34 257.66 55.68 258 55 C260.18637138 56.015101 261.95586392 56.96157178 263.78245544 58.55194092 C266.61206732 60.39968065 268.36740686 60.36855611 271.73071289 60.35644531 C273.45754051 60.36094696 273.45754051 60.36094696 275.21925354 60.36553955 C276.45787643 60.35319275 277.69649933 60.34084595 278.97265625 60.328125 C280.24725204 60.32625183 281.52184784 60.32437866 282.83506775 60.32244873 C285.52942796 60.31572585 288.22303196 60.30345502 290.91723633 60.28125 C294.36955836 60.25293976 297.8216446 60.24203471 301.27407169 60.2375679 C304.56946241 60.23241109 307.8647964 60.21787313 311.16015625 60.203125 C312.40080338 60.19887512 313.6414505 60.19462524 314.91969299 60.19024658 C316.06775925 60.18063904 317.2158255 60.17103149 318.39868164 60.16113281 C319.41031876 60.15430481 320.42195587 60.14747681 321.46424866 60.14044189 C324.12468783 60.104705 324.12468783 60.104705 327 59 C327.71587177 57.69242598 328.37802939 56.35476004 329 55 C329.89023945 53.84204302 330.82091586 52.71428873 331.78515625 51.6171875 C332.31560547 51.00746094 332.84605469 50.39773438 333.39257812 49.76953125 C334.21918945 48.83173828 334.21918945 48.83173828 335.0625 47.875 C336.1593674 46.62398515 337.25450394 45.37144995 338.34765625 44.1171875 C338.83242432 43.56659668 339.31719238 43.01600586 339.81665039 42.44873047 C341.09633185 40.99022263 341.09633185 40.99022263 342 39 C343.65 39 345.3 39 347 39 C346.9065465 34.6213617 346.80047246 30.24326804 346.68261719 25.86523438 C346.64430002 24.37541111 346.60945192 22.88549446 346.578125 21.39550781 C346.53253271 19.25551952 346.47453126 17.11617564 346.4140625 14.9765625 C346.36693115 13.04417725 346.36693115 13.04417725 346.31884766 11.07275391 C346.31541732 7.89518495 346.31541732 7.89518495 344 6 C345.64422201 4.99735282 347.29042221 3.99794896 348.9375 3 C349.85402344 2.443125 350.77054687 1.88625 351.71484375 1.3125 C354 0 354 0 355 0 C355.05375793 0.75198166 355.10751587 1.50396332 355.16290283 2.2787323 C361.04914857 103.50138223 361.04914857 103.50138223 377.7109375 203.26953125 C382.53879315 223.61032067 382.53879315 223.61032067 382.625 233.6875 C382.64119385 234.79121948 382.64119385 234.79121948 382.65771484 235.91723633 C382.48629268 242.31128304 380.20126288 247.60450804 375.875 252.3125 C368.14465522 256.84987628 360.09084731 257.47286438 351.30078125 257.3359375 C350.18077225 257.32662201 349.06076324 257.31730652 347.90681458 257.30770874 C333.95580497 257.09236817 320.07926814 255.84584097 306.1875 254.625 C295.46217116 253.69766476 284.73497074 252.80766523 274 252 C273.32845886 251.94897503 272.65691772 251.89795006 271.96502686 251.84537888 C241.85714748 249.58161535 211.74008842 249.72593759 181.56329346 249.80438232 C176.28775299 249.81525636 171.01223836 249.81484871 165.73668861 249.81424427 C160.57336726 249.81451853 155.410062 249.8200384 150.24674606 249.82724571 C147.82076513 249.83037695 145.39478243 249.83238642 142.96879959 249.83313942 C123.28673457 249.84596805 103.66552759 250.35087498 84.0390625 251.90234375 C82.95450775 251.98496964 81.869953 252.06759552 80.75253296 252.15272522 C77.37640769 252.41080734 74.00070993 252.67404786 70.625 252.9375 C68.38804662 253.10906047 66.15106744 253.28028503 63.9140625 253.45117188 C55.03933209 254.13194309 46.16503515 254.81303508 37.29589844 255.5637207 C26.18366939 256.49872527 15.15870269 257.34563154 4 257.3125 C2.85273437 257.32861328 1.70546875 257.34472656 0.5234375 257.36132812 C-7.46299193 257.36591803 -14.54918275 256.85067512 -20.875 251.625 C-27.45897058 243.49185987 -27.9420606 235.23627838 -27 225 C-26.11161191 219.23899503 -24.7325428 213.57342098 -23.38165283 207.90661621 C-22.30374867 203.37314859 -21.28013245 198.82752393 -20.2578125 194.28125 C-20.05646698 193.38831238 -19.85512146 192.49537476 -19.64767456 191.57537842 C-17.41878542 181.57793567 -15.80672345 171.52046773 -14.46411133 161.36669922 C-14.11952703 158.86705823 -13.74885776 156.37890874 -13.35424805 153.88720703 C-10.72827361 136.97888822 -9.28941755 119.95523958 -7.78728104 102.91889191 C-7.5606769 100.35436763 -7.33186144 97.79004884 -7.10250854 95.22576904 C-4.2706209 63.51205105 -1.94117513 31.78098138 0 0 Z " fill="#FEFEFE" transform="translate(82,442)"/>
<path d="M0 0 C1.60757575 1.3890965 3.1897115 2.80799144 4.75 4.25 C6.19632812 5.55904297 6.19632812 5.55904297 7.671875 6.89453125 C22.73910747 20.95760186 32.01958352 38.79707799 37.625 58.5 C37.81618408 59.17135986 38.00736816 59.84271973 38.2043457 60.53442383 C41.26254926 72.15504206 42.0628932 83.80676462 41.95581055 95.75830078 C41.93721458 97.90799509 41.93530407 100.05726376 41.93554688 102.20703125 C41.89516438 113.57976245 41.89516438 113.57976245 40.75 117.25 C42.51923828 117.39695312 42.51923828 117.39695312 44.32421875 117.546875 C73.4724737 120.08240213 102.19997356 124.89898115 130.8125 130.9375 C132.27695557 131.24095337 132.27695557 131.24095337 133.77099609 131.55053711 C134.66254395 131.74397705 135.5540918 131.93741699 136.47265625 132.13671875 C137.25390869 132.30389404 138.03516113 132.47106934 138.84008789 132.64331055 C140.75 133.25 140.75 133.25 142.75 135.25 C142.98628335 137.79527064 143.10221357 140.22848412 143.12109375 142.77734375 C143.13012222 143.52206436 143.1391507 144.26678497 143.14845276 145.03407288 C143.16296791 146.61015799 143.17184515 148.18630354 143.17553711 149.76245117 C143.18744005 152.1753472 143.23661075 154.5856906 143.28710938 156.99804688 C143.29657283 158.52863333 143.30380824 160.05923552 143.30859375 161.58984375 C143.32812607 162.31179428 143.34765839 163.03374481 143.36778259 163.77757263 C143.34936523 165.82006836 143.34936523 165.82006836 142.75 169.25 C140.23974609 170.95727539 140.23974609 170.95727539 137.75 172.25 C137.08977253 174.24441059 137.08977253 174.24441059 137.35546875 176.59375 C137.42386963 178.07101562 137.42386963 178.07101562 137.49365234 179.578125 C137.57824707 180.78984375 137.6628418 182.0015625 137.75 183.25 C137.8360375 184.78635364 137.92003129 186.32282252 138.00244141 187.859375 C138.31644359 193.49225422 138.68772165 199.12088661 139.0625 204.75 C139.20148295 206.85880093 139.34039779 208.96760635 139.47924805 211.07641602 C139.6930213 214.31571869 139.907574 217.55496272 140.12409973 220.79408264 C140.51520339 226.64918579 140.892547 232.50477146 141.24913025 238.36207581 C143.93471699 282.31603107 147.48710662 326.69340994 157.0625 369.7421875 C157.26715378 370.66953705 157.47180756 371.5968866 157.68266296 372.55233765 C158.6943467 377.13060132 159.72562502 381.70209343 160.80395508 386.26513672 C167.76265324 416.52315512 167.76265324 416.52315512 160.75 428.25 C154.84851423 436.55277998 148.92505982 440.60028152 139 442.5 C132.90559664 443.386176 126.89607255 443.44615125 120.75 443.25 C120.8428125 444.8278125 120.8428125 444.8278125 120.9375 446.4375 C120.73593801 450.53592713 120.28302367 452.09144305 117.75 455.25 C115.16210938 455.84936523 115.16210938 455.84936523 112.09375 455.80859375 C110.43666016 455.79795898 110.43666016 455.79795898 108.74609375 455.78710938 C107.59238281 455.75423828 106.43867188 455.72136719 105.25 455.6875 C104.09628906 455.68169922 102.94257813 455.67589844 101.75390625 455.66992188 C93.19257242 455.54504828 93.19257242 455.54504828 89.75 453.25 C88.31105554 448.93316661 88.69142407 444.76034633 88.75 440.25 C88.19812012 440.26667725 87.64624023 440.28335449 87.07763672 440.30053711 C76.97799542 440.45788589 66.93821168 439.56246129 56.875 438.8125 C42.50588962 437.74873047 28.1465688 436.84746171 13.75 436.25 C12.71365417 436.20611649 12.71365417 436.20611649 11.65637207 436.16134644 C-46.5172847 433.73971067 -104.9349928 434.58016664 -162.96313477 439.28442383 C-171.41315694 439.96226269 -179.76304471 440.45730535 -188.25 440.25 C-188.20383545 441.20966675 -188.20383545 441.20966675 -188.15673828 442.1887207 C-187.95107416 447.09642067 -188.10841463 450.22877072 -191.25 454.25 C-193.85559258 456.85559258 -201.12306463 455.53357432 -204.625 455.5625 C-205.78773438 455.59150391 -206.95046875 455.62050781 -208.1484375 455.65039062 C-209.2621875 455.65876953 -210.3759375 455.66714844 -211.5234375 455.67578125 C-212.54872559 455.69036377 -213.57401367 455.70494629 -214.63037109 455.7199707 C-217.25 455.25 -217.25 455.25 -219.07592773 453.35717773 C-220.93607294 450.01866385 -220.93466888 447.03397348 -221.25 443.25 C-222.15621094 443.27320313 -223.06242187 443.29640625 -223.99609375 443.3203125 C-235.83365405 443.49568376 -244.63594045 442.66049751 -254.25 435.25 C-261.9869923 427.24181416 -262.67430338 419.02642975 -262.66557312 408.36294556 C-262.48595693 398.45816652 -260.55680076 389.16996358 -258.2618103 379.5680542 C-257.0419517 374.43426745 -255.91739287 369.27954551 -254.7890625 364.125 C-254.56375351 363.09990326 -254.33844452 362.07480652 -254.10630798 361.01864624 C-245.15151509 319.79823675 -243.20282765 276.82523892 -240 234.875 C-239.91700653 233.79622589 -239.83401306 232.71745178 -239.74850464 231.60598755 C-236.34643094 201.87974088 -236.34643094 201.87974088 -237.25 172.25 C-237.9107251 171.86191162 -238.5714502 171.47382324 -239.25219727 171.07397461 C-241.25 169.25 -241.25 169.25 -241.70410156 165.6965332 C-241.70346954 164.23112992 -241.68094239 162.76562994 -241.640625 161.30078125 C-241.63496521 160.52816452 -241.62930542 159.75554779 -241.62347412 158.95951843 C-241.60109327 156.49321371 -241.55089703 154.02836508 -241.5 151.5625 C-241.47993706 149.88999495 -241.46168592 148.21746711 -241.4453125 146.54492188 C-241.40122331 142.44605404 -241.33218675 138.34827383 -241.25 134.25 C-236.4436468 132.36542422 -231.89548433 130.80409083 -226.8125 129.8203125 C-225.6044873 129.58481689 -224.39647461 129.34932129 -223.15185547 129.10668945 C-221.86424316 128.86523193 -220.57663086 128.62377441 -219.25 128.375 C-218.24190277 128.18374039 -218.24190277 128.18374039 -217.21343994 127.98861694 C-192.01719547 123.21455666 -166.79269912 119.57443194 -141.25 117.25 C-141.26047363 116.44071045 -141.27094727 115.6314209 -141.28173828 114.79760742 C-141.60337685 86.09645467 -140.53351274 59.35620981 -127.25 33.25 C-126.9307959 32.6214209 -126.6115918 31.9928418 -126.28271484 31.34521484 C-115.83861682 11.33809465 -99.3615502 -3.60732706 -78.25 -11.75 C-77.18136719 -12.16378906 -76.11273438 -12.57757813 -75.01171875 -13.00390625 C-50.00048039 -21.13326685 -20.780835 -15.93418658 0 0 Z M-227.25 177.25 C-227.32397507 178.36439957 -227.32397507 178.36439957 -227.39944458 179.50131226 C-235.77746989 305.32916007 -235.77746989 305.32916007 -243.25 348.25 C-243.56829967 350.17438145 -243.88604057 352.09885544 -244.203125 354.0234375 C-245.58176815 362.1435727 -247.21594879 370.18241066 -249.0546875 378.2109375 C-249.21407806 378.91364777 -249.37346863 379.61635803 -249.53768921 380.34036255 C-250.32687611 383.81941224 -251.12977962 387.29375808 -251.96435547 390.76220703 C-254.5125206 401.84874108 -256.87259301 414.70201551 -251.25 425.25 C-247.26785672 430.20077273 -242.44963522 432.97162893 -236.25 434.25 C-213.85117588 436.00217388 -191.08386895 432.98648487 -168.80311584 430.99697876 C-160.43665899 430.25398254 -152.06879773 429.61421165 -143.6875 429.0625 C-142.6351416 428.99111816 -141.5827832 428.91973633 -140.49853516 428.84619141 C-120.75023284 427.57280361 -101.02510241 427.07908162 -81.23828125 427.046875 C-80.03346792 427.04404762 -78.82865459 427.04122025 -77.58733177 427.03830719 C-71.1860674 427.0234325 -64.78482481 427.01413447 -58.38354492 427.00976562 C-53.22136196 427.00542374 -48.05935017 426.99168255 -42.8972168 426.96875 C-0.27585213 426.78345132 41.94629598 428.43922449 84.40204811 432.17645073 C104.73234637 433.99393971 104.73234637 433.99393971 125.125 434.6875 C126.09775879 434.69740967 127.07051758 434.70731934 128.07275391 434.7175293 C135.41746987 434.62523898 143.16577448 433.51698566 149.1875 429 C155.24843446 422.49558253 155.62403895 415.08459796 155.37109375 406.60546875 C154.60688733 395.9507017 151.83296178 385.487334 149.420578 375.10951233 C144.97697011 355.9475328 141.97415654 336.7251118 139.75 317.1875 C139.62271515 316.08485809 139.4954303 314.98221619 139.36428833 313.84616089 C134.13293143 268.43048241 131.00914711 222.83989986 127.75 177.25 C126.10063087 178.03427352 124.45558873 178.82765259 122.8125 179.625 C121.89597656 180.06585938 120.97945313 180.50671875 120.03515625 180.9609375 C117.62096198 182.04199162 117.62096198 182.04199162 116.75 184.25 C117.41 184.58 118.07 184.91 118.75 185.25 C119.08 195.48 119.41 205.71 119.75 216.25 C118.1 216.25 116.45 216.25 114.75 216.25 C112.64181706 218.15366156 112.64181706 218.15366156 110.875 220.75 C107.75920547 224.92018887 104.51926915 228.82276039 101 232.65625 C99.54428669 234.17470571 99.54428669 234.17470571 99.75 236.25 C96.64842574 237.28385809 94.43450096 237.40125551 91.18041992 237.44287109 C90.03880905 237.45893402 88.89719818 237.47499695 87.72099304 237.49154663 C82.50501345 237.5360169 77.2891202 237.5774901 72.07299805 237.60009766 C69.32103192 237.61343185 66.56980823 237.64127714 63.81811523 237.68212891 C59.8514206 237.74100925 55.88508539 237.75876687 51.91796875 237.7734375 C50.68966843 237.79610687 49.4613681 237.81877625 48.19584656 237.84213257 C38.68303337 237.81857889 38.68303337 237.81857889 35.05200195 234.71728516 C34.29234131 233.90308105 33.53268066 233.08887695 32.75 232.25 C32.09 232.25 31.43 232.25 30.75 232.25 C29.27563821 233.74266722 29.27563821 233.74266722 27.8125 235.625 C25.24276088 238.81910029 23.23322579 240.93955739 19.0625 241.8125 C14.68504535 241.06915864 12.72792787 238.99215571 9.58203125 235.9765625 C7.66178216 234.07059101 7.66178216 234.07059101 4.75 232.25 C3.9579567 233.06198349 3.16591339 233.87396698 2.34986877 234.71055603 C-1.78865059 238.13187202 -5.65742065 237.94952725 -10.84790039 237.88110352 C-11.796595 237.88825882 -12.74528961 237.89541412 -13.72273254 237.90278625 C-16.84820188 237.91964928 -19.97223217 237.90028558 -23.09765625 237.87890625 C-25.27428811 237.8797351 -27.45091991 237.88219507 -29.62754822 237.88621521 C-34.18458951 237.88907149 -38.74113883 237.8743868 -43.2980957 237.84692383 C-49.1381346 237.81282156 -54.97729504 237.81886787 -60.81737614 237.8375864 C-65.31012795 237.84815576 -69.80267543 237.83921939 -74.29540825 237.82420158 C-76.44877961 237.81902024 -78.60217231 237.81950098 -80.75554085 237.82574654 C-83.76465874 237.83119861 -86.7725195 237.81082384 -89.78149414 237.78344727 C-91.11494873 237.79323608 -91.11494873 237.79323608 -92.4753418 237.80322266 C-97.67590696 237.7227958 -100.45268496 237.16361174 -104.25 233.25 C-107.27845857 234.62657208 -109.5449218 236.27884334 -112.0625 238.4375 C-115.01115477 240.65445155 -116.01399452 241.22929776 -119.8125 241.5625 C-124.43355858 239.79809582 -127.06862247 236.95354892 -130.25 233.25 C-132.74361571 234.45381448 -134.93143083 235.70428722 -137.25 237.25 C-139.81698608 237.51742554 -139.81698608 237.51742554 -142.92724609 237.54052734 C-144.09210541 237.55328705 -145.25696472 237.56604675 -146.4571228 237.57919312 C-148.34619858 237.58253159 -148.34619858 237.58253159 -150.2734375 237.5859375 C-151.56690094 237.5925943 -152.86036438 237.5992511 -154.19302368 237.60610962 C-156.93177629 237.61808273 -159.67040276 237.62179048 -162.40917969 237.62060547 C-165.9120698 237.62040238 -169.4141476 237.64769173 -172.91684532 237.68214989 C-176.26488812 237.70979026 -179.61278208 237.70856877 -182.9609375 237.7109375 C-184.21627289 237.72530853 -185.47160828 237.73967957 -186.76498413 237.75448608 C-187.93614777 237.74833282 -189.1073114 237.74217957 -190.31396484 237.73583984 C-191.34194183 237.73868988 -192.36991882 237.74153992 -193.42904663 237.74447632 C-198.22050197 236.90459672 -201.18038741 233.66162897 -204.0390625 229.90234375 C-204.50570312 229.29712891 -204.97234375 228.69191406 -205.453125 228.06835938 C-205.92234375 227.44767578 -206.3915625 226.82699219 -206.875 226.1875 C-207.82369704 224.94521968 -208.77416205 223.70428711 -209.7265625 222.46484375 C-210.13986816 221.91948975 -210.55317383 221.37413574 -210.97900391 220.81225586 C-212.95645788 218.3774697 -212.95645788 218.3774697 -215.25 216.25 C-216.57 216.25 -217.89 216.25 -219.25 216.25 C-219.1565465 211.8713617 -219.05047246 207.49326804 -218.93261719 203.11523438 C-218.89430002 201.62541111 -218.85945192 200.13549446 -218.828125 198.64550781 C-218.78253271 196.50551952 -218.72453126 194.36617564 -218.6640625 192.2265625 C-218.6326416 190.93830566 -218.6012207 189.65004883 -218.56884766 188.32275391 C-218.25 185.25 -218.25 185.25 -216.25 183.25 C-217.70449401 182.2444239 -219.16372443 181.24569565 -220.625 180.25 C-221.84316406 179.4146875 -221.84316406 179.4146875 -223.0859375 178.5625 C-225.11318187 177.07714156 -225.11318187 177.07714156 -227.25 177.25 Z " fill="#0A0A0A" transform="translate(309.25,264.75)"/>
<path d="M0 0 C18.41744558 14.20430444 28.58850381 34.91943062 31.70410156 57.76318359 C32.77128338 69.43702557 32.28354686 81.29605813 32 93 C31.29246582 92.96970703 30.58493164 92.93941406 29.85595703 92.90820312 C-3.85686155 91.52674799 -37.70838648 91.22422918 -71.41796875 92.77734375 C-79.94217738 93.15768902 -88.46977315 93.08753939 -97 93 C-97.4291521 65.40221851 -97.4291521 65.40221851 -95 52 C-94.88172852 51.32066406 -94.76345703 50.64132812 -94.64160156 49.94140625 C-91.82902805 34.33985342 -85.74313572 20.79767664 -75 9 C-74.48308594 8.37996094 -73.96617187 7.75992187 -73.43359375 7.12109375 C-55.25518567 -13.24419049 -21.79047709 -15.38529992 0 0 Z " fill="#FDFDFD" transform="translate(292,287)"/>
<path d="M0 0 C3.06654959 0.01087226 6.13305568 0.01042094 9.1996212 0.00999641 C52.33312432 0.01139682 52.33312432 0.01139682 63.85211182 2.19561768 C63.42599176 9.55720901 62.62874465 16.88677869 61.66461182 24.19561768 C61.5759082 25.02037598 61.48720459 25.84513428 61.39581299 26.69488525 C60.76480262 31.14764952 60.48658328 32.68191914 56.85601807 35.62139893 C55.36908447 36.40063721 55.36908447 36.40063721 53.85211182 37.19561768 C50.68883643 40.88610562 50.3398127 44.27104032 50.48883057 48.97686768 C51.2019588 53.33231755 53.8266711 56.17017696 56.85211182 59.19561768 C56.85211182 60.18561768 56.85211182 61.17561768 56.85211182 62.19561768 C20.88211182 62.19561768 -15.08788818 62.19561768 -52.14788818 62.19561768 C-53.14788818 57.19561768 -53.14788818 57.19561768 -51.77288818 55.07061768 C-51.23663818 54.45186768 -50.70038818 53.83311768 -50.14788818 53.19561768 C-48.79565033 49.13890412 -48.60370456 45.43726814 -49.14788818 41.19561768 C-50.89498728 38.26298706 -52.02049668 36.64515903 -55.20941162 35.37359619 C-57.14788818 34.19561768 -57.14788818 34.19561768 -57.96917725 32.00006104 C-58.18912354 30.65633423 -58.18912354 30.65633423 -58.41351318 29.28546143 C-58.58109131 28.29481689 -58.74866943 27.30417236 -58.92132568 26.2835083 C-59.07859131 25.24387939 -59.23585693 24.20425049 -59.39788818 23.13311768 C-59.57062256 22.12055908 -59.74335693 21.10800049 -59.92132568 20.0647583 C-60.90076245 14.03655823 -61.23716405 8.29344419 -61.14788818 2.19561768 C-40.7207073 0.35816021 -20.49157501 -0.09153163 0 0 Z " fill="#FDFDFD" transform="translate(258.14788818359375,386.80438232421875)"/>
<path d="M0 0 C2.50114342 1.94060896 4.86749775 3.9625291 7.21484375 6.0859375 C7.96121094 6.73949219 8.70757812 7.39304687 9.4765625 8.06640625 C29.55784945 26.74585816 39.06120752 55.8177108 40.3359375 82.63330078 C41.45978589 114.50002202 35.6627216 146.95100983 29.21484375 178.0859375 C26.57484375 178.0859375 23.93484375 178.0859375 21.21484375 178.0859375 C20.77287133 165.2645578 22.09025783 153.16471664 24.15234375 140.5234375 C24.57249412 137.86716696 24.98902981 135.2103457 25.40541077 132.55348206 C25.66277931 130.92013061 25.92300914 129.2872262 26.18675232 127.65489197 C27.44284937 119.85608932 28.37365414 112.27972942 28.41796875 104.37109375 C28.42366882 103.55708603 28.4293689 102.74307831 28.4352417 101.90440369 C28.44463471 100.18750279 28.45120282 98.47058433 28.45507812 96.75366211 C28.46470165 94.18634601 28.49574531 91.61986052 28.52734375 89.05273438 C28.61923727 74.96561898 27.5227972 60.98236119 22.02734375 47.8359375 C21.57343262 46.72001221 21.57343262 46.72001221 21.11035156 45.58154297 C13.12058948 26.58030224 -0.59128106 10.22016138 -19.91796875 2.1171875 C-35.60885685 -3.52640168 -53.21871983 -4.22172558 -68.64453125 2.75 C-76.77029882 6.71068886 -83.46094468 11.5816772 -89.78515625 18.0859375 C-90.46835938 18.74851562 -91.1515625 19.41109375 -91.85546875 20.09375 C-110.60565577 39.43217818 -115.42494612 67.12529042 -115.16015625 93.0234375 C-115.15417419 94.22191818 -115.15417419 94.22191818 -115.14807129 95.4446106 C-115.03596683 114.737836 -112.81409608 133.36088367 -109.06445312 152.27563477 C-107.44296989 160.90778986 -107.39631368 169.33697974 -107.78515625 178.0859375 C-110.42515625 178.0859375 -113.06515625 178.0859375 -115.78515625 178.0859375 C-117.71552811 167.18165758 -119.58232065 156.26789286 -121.40515137 145.34515381 C-121.75109513 143.2884387 -122.106016 141.23323864 -122.46191406 139.17822266 C-125.00519531 124.33835909 -126.14994976 109.80609131 -126.16015625 94.7734375 C-126.16215027 94.00501526 -126.16414429 93.23659302 -126.16619873 92.44488525 C-126.15684154 60.77249538 -118.64454752 31.7139375 -96.53515625 8.2734375 C-70.15265567 -16.95715109 -30.26301121 -20.79786184 0 0 Z " fill="#F9F9F9" transform="translate(302.78515625,270.9140625)"/>
<path d="M0 0 C0.67387598 4.37392109 1.33782758 8.74929306 2 13.125 C2.19078125 14.3625 2.3815625 15.6 2.578125 16.875 C2.75859375 18.07382812 2.9390625 19.27265625 3.125 20.5078125 C3.29257813 21.60754395 3.46015625 22.70727539 3.6328125 23.84033203 C4.59853908 32.15046065 4.59853908 32.15046065 2.0625 35.75 C1.381875 36.4925 0.70125 37.235 0 38 C-1.56428238 41.12856476 -1.28007086 43.52712131 -1 47 C0.53601854 50.97472096 2.64171302 54.46256953 5 58 C-4.24 58 -13.48 58 -23 58 C-23.495 54.535 -23.495 54.535 -24 51 C-25.98 51 -27.96 51 -30 51 C-30.66 53.31 -31.32 55.62 -32 58 C-42.89 58 -53.78 58 -65 58 C-65.33 56.68 -65.66 55.36 -66 54 C-68.63804158 52.06362171 -68.63804158 52.06362171 -71.96875 50.36328125 C-72.56425659 50.03837204 -73.15976318 49.71346283 -73.77331543 49.37870789 C-75.67569976 48.34403327 -77.5872956 47.32794857 -79.5 46.3125 C-81.41038466 45.28244708 -83.31875717 44.24875308 -85.22668457 43.2141571 C-86.95581753 42.27907375 -88.68972279 41.35283151 -90.42382812 40.42700195 C-93 39 -93 39 -94 38 C-94.08726223 36.21928754 -94.10699041 34.4351686 -94.09765625 32.65234375 C-94.09443359 31.57275391 -94.09121094 30.49316406 -94.08789062 29.38085938 C-94.07951172 28.24455078 -94.07113281 27.10824219 -94.0625 25.9375 C-94.05798828 24.79732422 -94.05347656 23.65714844 -94.04882812 22.48242188 C-94.03699747 19.65489649 -94.0205141 16.8274736 -94 14 C-47.07143892 5.00197641 -47.07143892 5.00197641 -23.375 1.9375 C-22.58285095 1.83386139 -21.7907019 1.73022278 -20.97454834 1.6234436 C-13.96271166 0.71507993 -7.08780588 -0.11307306 0 0 Z " fill="#FCFCFC" transform="translate(170,391)"/>
<path d="M0 0 C11.02300593 0.54583076 21.88501363 1.58592165 32.8125 3.125 C33.57082123 3.22993774 34.32914246 3.33487549 35.11044312 3.44299316 C51.40135628 5.71412604 67.48239213 8.89135004 83.5637207 12.32324219 C87.02068868 13.00407453 90.51203827 13.50171975 94 14 C94 21.92 94 29.84 94 38 C91.97875 39.155 89.9575 40.31 87.875 41.5 C87.19977295 41.88833008 86.5245459 42.27666016 85.82885742 42.67675781 C82.56970731 44.54982235 79.29785602 46.38923429 75.98828125 48.171875 C75.35100098 48.52056641 74.7137207 48.86925781 74.05712891 49.22851562 C72.26525242 50.20751944 70.46674488 51.1743568 68.66796875 52.140625 C65.56767679 53.86709711 65.56767679 53.86709711 65 58 C54.11 58 43.22 58 32 58 C31.34 55.69 30.68 53.38 30 51 C28.35 51 26.7 51 25 51 C24.34 53.31 23.68 55.62 23 58 C13.43 58 3.86 58 -6 58 C-4.02 55.69 -2.04 53.38 0 51 C2.01546308 47.24390971 2.58162341 44.23754197 2 40 C0.85112622 37.90061913 -0.41334927 35.97114589 -1.80859375 34.02734375 C-4.41638266 29.58982754 -3.99628731 25.55201887 -3.22265625 20.60546875 C-3.03896484 19.40341797 -2.85527344 18.20136719 -2.66601562 16.96289062 C-2.46685547 15.71701172 -2.26769531 14.47113281 -2.0625 13.1875 C-1.86720703 11.92228516 -1.67191406 10.65707031 -1.47070312 9.35351562 C-0.98812309 6.23440074 -0.49762603 3.11674376 0 0 Z " fill="#FCFCFC" transform="translate(349,391)"/>
<path d="M0 0 C0.66 0 1.32 0 2 0 C4.55208472 2.55208472 5.12899119 4.90846651 6.3125 8.3125 C9.25443164 16.08115202 9.25443164 16.08115202 15.83081055 20.82397461 C22.14215605 23.1057184 27.8856271 23.49857201 34.5625 23.4375 C35.73506348 23.43282715 36.90762695 23.4281543 38.11572266 23.42333984 C55.6053291 23.15372942 73.03576651 21.30183812 90.44680786 19.74694824 C98.81329859 19.00405394 107.1811767 18.36421333 115.5625 17.8125 C116.6148584 17.74111816 117.6672168 17.66973633 118.75146484 17.59619141 C138.49976716 16.32280361 158.22489759 15.82908162 178.01171875 15.796875 C179.21653208 15.79404762 180.42134541 15.79122025 181.66266823 15.78830719 C188.0639326 15.7734325 194.46517519 15.76413447 200.86645508 15.75976562 C206.02863804 15.75542374 211.19064983 15.74168255 216.3527832 15.71875 C251.33409288 15.56663839 286.11210161 16.32446498 321 19 C322.02435024 19.07727829 323.04870049 19.15455658 324.10409164 19.23417664 C327.16637771 19.47003049 330.2271397 19.72006566 333.2878418 19.97558594 C334.22123036 20.0479459 335.15461893 20.12030586 336.116292 20.19485855 C336.97697127 20.27039837 337.83765055 20.34593819 338.72441101 20.42376709 C339.48013743 20.48683926 340.23586386 20.54991142 341.01449108 20.61489487 C343 21 343 21 346 23 C344.515 23.99 344.515 23.99 343 25 C342.27617533 27.05925139 342.27617533 27.05925139 342 29 C329.1578563 29.22783028 316.43237161 28.5900089 303.61834717 27.77456665 C234.59379347 23.4288727 165.23813502 23.44464453 96.28686523 29.03442383 C87.83684306 29.71226269 79.48695529 30.20730535 71 30 C71.04616455 30.95966675 71.04616455 30.95966675 71.09326172 31.9387207 C71.29892584 36.84642067 71.14158537 39.97877072 68 44 C65.39440742 46.60559258 58.12693537 45.28357432 54.625 45.3125 C52.88089844 45.35600586 52.88089844 45.35600586 51.1015625 45.40039062 C49.9878125 45.40876953 48.8740625 45.41714844 47.7265625 45.42578125 C46.70127441 45.44036377 45.67598633 45.45494629 44.61962891 45.4699707 C42 45 42 45 40.17407227 43.10717773 C38.31392706 39.76866385 38.31533112 36.78397348 38 33 C36.64068359 33.03480469 36.64068359 33.03480469 35.25390625 33.0703125 C23.41634595 33.24568376 14.61405955 32.41049751 5 25 C1.09633031 20.95950065 -1.90753501 16.58370994 -3 11 C-2.67325219 6.99733935 -1.61610764 3.66317731 0 0 Z " fill="#0B0B0B" transform="translate(50,675)"/>
<path d="M0 0 C39.27 0 78.54 0 119 0 C119 0.66 119 1.32 119 2 C117.42578125 3.55078125 117.42578125 3.55078125 115.3125 5.3125 C112.92106201 7.31662412 110.88520929 9.1416227 108.9125061 11.57543945 C104.95749434 14.86784989 102.16099825 14.74639835 97.16162109 14.7421875 C96.28123169 14.76058685 95.40084229 14.77898621 94.49377441 14.79794312 C91.58666572 14.85047875 88.68098498 14.86516764 85.7734375 14.875 C83.74426738 14.89361711 81.71510267 14.91283186 79.6859436 14.93261719 C75.43064271 14.9670634 71.17584324 14.98032748 66.92041016 14.98144531 C61.48878134 14.98651402 56.06096526 15.06501169 50.63031578 15.1625061 C46.43662053 15.22588708 42.243831 15.23892434 38.04970169 15.23834229 C36.04905885 15.24604912 34.04839695 15.27158275 32.04822922 15.31585693 C14.79318336 15.66444967 14.79318336 15.66444967 8.78965187 10.12371826 C6.68505005 7.87313429 4.82872077 5.47728187 3 3 C2.01 2.01 1.02 1.02 0 0 Z " fill="#F5F5F5" transform="translate(199,481)"/>
<path d="M0 0 C23.1 0 46.2 0 70 0 C70 5.28 70 10.56 70 16 C46.9 16 23.8 16 0 16 C0 10.72 0 5.44 0 0 Z " fill="#FCFCFC" transform="translate(302,457)"/>
<path d="M0 0 C22.44 0 44.88 0 68 0 C68 5.28 68 10.56 68 16 C45.56 16 23.12 16 0 16 C0 10.72 0 5.44 0 0 Z " fill="#FBFBFB" transform="translate(147,457)"/>
<path d="M0 0 C11.55 0 23.1 0 35 0 C35.66 1.98 36.32 3.96 37 6 C38.65 6 40.3 6 42 6 C42.66 4.02 43.32 2.04 44 0 C54.56 0 65.12 0 76 0 C69.64669853 12.70660293 69.64669853 12.70660293 63.31088257 14.95376587 C60.1725005 15.33778953 57.17315866 15.41319045 54.01171875 15.36328125 C52.87273636 15.37522018 51.73375397 15.38715912 50.56025696 15.39945984 C48.15905512 15.41060748 45.75761853 15.39651212 43.35668945 15.35864258 C39.70494531 15.31271939 36.06700541 15.37846671 32.41601562 15.45507812 C13.36777868 15.54520993 13.36777868 15.54520993 7.34468079 10.01933289 C5.35762695 7.81574631 3.66127788 5.45473131 2 3 C1.34 2.67 0.68 2.34 0 2 C0 1.34 0 0.68 0 0 Z " fill="#F4F4F4" transform="translate(337,481)"/>
<path d="M0 0 C11.22 0 22.44 0 34 0 C34.66 2.31 35.32 4.62 36 7 C37.65 7 39.3 7 41 7 C41.66 4.69 42.32 2.38 43 0 C54.22 0 65.44 0 77 0 C75.02 2.31 73.04 4.62 71 7 C70.43927795 7.71766541 69.87855591 8.43533081 69.30084229 9.17474365 C66.04728265 13.01600375 63.55081806 14.45703549 58.51464844 15.00097656 C56.38079216 15.08722305 54.24495402 15.13149809 52.109375 15.140625 C50.96897766 15.16155212 49.82858032 15.18247925 48.65362549 15.20404053 C46.24662565 15.23501393 43.8393225 15.24734002 41.43212891 15.2421875 C37.77118043 15.24995506 34.12360421 15.36410859 30.46484375 15.484375 C12.34671845 15.74463399 12.34671845 15.74463399 6.87695312 11.05273438 C0 3.71404774 0 3.71404774 0 0 Z " fill="#F3F3F3" transform="translate(105,481)"/>
<path d="M0 0 C13.53 0 27.06 0 41 0 C41 5.28 41 10.56 41 16 C27.47 16 13.94 16 0 16 C0 10.72 0 5.44 0 0 Z " fill="#FAFAFA" transform="translate(98,457)"/>
<path d="M0 0 C13.2 0 26.4 0 40 0 C40 5.28 40 10.56 40 16 C26.8 16 13.6 16 0 16 C0 10.72 0 5.44 0 0 Z " fill="#FAFBFB" transform="translate(381,457)"/>
<path d="M0 0 C7.05283984 0.71263069 14.01283187 1.7464048 21 2.9375 C22.04800781 3.10701172 23.09601563 3.27652344 24.17578125 3.45117188 C25.16964844 3.62068359 26.16351563 3.79019531 27.1875 3.96484375 C28.08855469 4.1155835 28.98960937 4.26632324 29.91796875 4.42163086 C30.60503906 4.61249268 31.29210937 4.80335449 32 5 C32.495 5.99 32.495 5.99 33 7 C35.80478195 7.91485573 35.80478195 7.91485573 39.0625 8.625 C40.71958984 9.01558594 40.71958984 9.01558594 42.41015625 9.4140625 C43.26480469 9.60742188 44.11945313 9.80078125 45 10 C44.79375 10.598125 44.5875 11.19625 44.375 11.8125 C43.69328085 14.28450846 43.69328085 14.28450846 46 17 C39.8694437 16.37813687 33.86217996 15.51242161 27.80859375 14.37109375 C26.56252098 14.1401577 26.56252098 14.1401577 25.29127502 13.90455627 C22.67277739 13.41855805 20.05513688 12.92811084 17.4375 12.4375 C15.64784155 12.10452145 13.85812846 11.77183648 12.06835938 11.43945312 C7.71160118 10.62969072 3.35560512 9.81594091 -1 9 C-0.835 8.2575 -0.67 7.515 -0.5 6.75 C0.11925696 3.80993422 0.11925696 3.80993422 0 0 Z " fill="#0C0C0C" transform="translate(395,388)"/>
<path d="M0 0 C7.59 0 15.18 0 23 0 C23 5.28 23 10.56 23 16 C15.41 16 7.82 16 0 16 C0 10.72 0 5.44 0 0 Z " fill="#F9F9F9" transform="translate(223,457)"/>
<path d="M0 0 C8.91 0 17.82 0 27 0 C27 5.28 27 10.56 27 16 C18.09 16 9.18 16 0 16 C0 14.35 0 12.7 0 11 C10.395 10.505 10.395 10.505 21 10 C21.33 8.35 21.66 6.7 22 5 C20.38219843 3.38219843 18.54364482 3.77727853 16.30859375 3.68359375 C15.36435547 3.64169922 14.42011719 3.59980469 13.44726562 3.55664062 C12.45404297 3.51732422 11.46082031 3.47800781 10.4375 3.4375 C9.44041016 3.39431641 8.44332031 3.35113281 7.41601562 3.30664062 C4.9441585 3.20019702 2.4721969 3.09818072 0 3 C0 2.01 0 1.02 0 0 Z " fill="#FCFCFC" transform="translate(267,457)"/>
<path d="M0 0 C4.2742558 1.5830577 6.26531794 4.50568404 9 8 C7.02 9.98 5.04 11.96 3 14 C-0.81684226 12.44499019 -3.19195732 9.96404505 -6 7 C-4.71937515 5.2925002 -3.38232443 3.62626404 -2 2 C-1.34 2 -0.68 2 0 2 C0 1.34 0 0.68 0 0 Z " fill="#F6F6F6" transform="translate(326,484)"/>
<path d="M0 0 C1.5078125 1.75 1.5078125 1.75 3.125 4 C3.66382813 4.7425 4.20265625 5.485 4.7578125 6.25 C5.16773438 6.8275 5.57765625 7.405 6 8 C3.69 9.98 1.38 11.96 -1 14 C-6.27272727 11.36363636 -6.27272727 11.36363636 -8 9 C-8 5.77765675 -6.72090596 4.68512468 -4.5625 2.25 C-2 0 -2 0 0 0 Z " fill="#F6F6F6" transform="translate(192,484)"/>
<path d="M0 0 C8.91 0 17.82 0 27 0 C27 5.28 27 10.56 27 16 C26.67 16 26.34 16 26 16 C25.855625 14.9275 25.71125 13.855 25.5625 12.75 C25.06395798 8.79841044 25.06395798 8.79841044 24 5 C21.14493951 4.04831317 19.09062718 3.8099054 16.11328125 3.68359375 C15.17548828 3.64169922 14.23769531 3.59980469 13.27148438 3.55664062 C12.29501953 3.51732422 11.31855469 3.47800781 10.3125 3.4375 C9.32443359 3.39431641 8.33636719 3.35113281 7.31835938 3.30664062 C4.87904454 3.20058346 2.43962887 3.09852286 0 3 C0 2.01 0 1.02 0 0 Z " fill="#E6E6E6" transform="translate(267,457)"/>
<path d="M0 0 C5.28 0.33 10.56 0.66 16 1 C16 2.65 16 4.3 16 6 C10.72 6 5.44 6 0 6 C0 4.02 0 2.04 0 0 Z " fill="#F1F1F1" transform="translate(406,706)"/>
<path d="M0 0 C0 1.98 0 3.96 0 6 C-5.28 6 -10.56 6 -16 6 C-16 4.35 -16 2.7 -16 1 C-14.27111445 0.83044205 -12.54187557 0.66448486 -10.8125 0.5 C-9.84957031 0.4071875 -8.88664062 0.314375 -7.89453125 0.21875 C-5.24812333 0.01875156 -2.65239135 -0.03879183 0 0 Z " fill="#EBEBEB" transform="translate(113,706)"/>
<path d="M0 0 C2 1 4 2 6 3 C5.67 5.64 5.34 8.28 5 11 C4.01 11 3.02 11 2 11 C0.32900023 11.31088368 -1.33871537 11.64080332 -3 12 C-3.08131463 10.56344146 -3.13933559 9.1255517 -3.1875 7.6875 C-3.22230469 6.88699219 -3.25710938 6.08648437 -3.29296875 5.26171875 C-2.93801608 2.52148416 -2.10633718 1.70828921 0 0 Z " fill="#0B0B0B" transform="translate(311,426)"/>
<path d="M0 0 C0.33 0 0.66 0 1 0 C1.32748137 11.15255987 0.32040894 21.94157511 -1 33 C-1.33 33 -1.66 33 -2 33 C-2.04954711 28.94323508 -2.085789 24.88658806 -2.10986328 20.82958984 C-2.11990253 19.45032685 -2.13353677 18.07108504 -2.15087891 16.69189453 C-2.17521754 14.7061486 -2.18543255 12.7202455 -2.1953125 10.734375 C-2.20578613 9.54038086 -2.21625977 8.34638672 -2.22705078 7.11621094 C-2.01034762 4.14201836 -1.56186122 2.49681621 0 0 Z " fill="#202021" transform="translate(170,348)"/>
<path d="M0 0 C0 0.66 0 1.32 0 2 C-0.66 2 -1.32 2 -2 2 C-2.103125 2.53625 -2.20625 3.0725 -2.3125 3.625 C-3.18092697 6.62502044 -4.55620296 9.2379535 -6 12 C-7.88838279 9.22296649 -7.99354164 7.81270766 -7.875 4.375 C-7 1 -7 1 -5.125 -0.5 C-3 -1 -3 -1 0 0 Z " fill="#565656" transform="translate(349,428)"/>
<path d="M0 0 C0.33 0 0.66 0 1 0 C1.33 8.25 1.66 16.5 2 25 C1.01 25 0.02 25 -1 25 C-1.02727345 22.33326258 -1.04696948 19.66681131 -1.0625 17 C-1.07087891 16.25621094 -1.07925781 15.51242187 -1.08789062 14.74609375 C-1.10966272 9.73851156 -0.71541549 4.95720968 0 0 Z " fill="#1A1A1A" transform="translate(450,508)"/>
<path d="M0 0 C1.485 0.99 1.485 0.99 3 2 C2.9278125 2.556875 2.855625 3.11375 2.78125 3.6875 C2.15508783 8.8359445 1.90572055 13.81463038 2 19 C1.01 18.67 0.02 18.34 -1 18 C-0.505 9.09 -0.505 9.09 0 0 Z " fill="#161616" transform="translate(70,490)"/>
<path d="M0 0 C0.99 0.33 1.98 0.66 3 1 C2.67854004 1.53463867 2.35708008 2.06927734 2.02587891 2.62011719 C0.76283748 5.55018092 0.67966759 7.8913019 0.5859375 11.078125 C0.54726562 12.23828125 0.50859375 13.3984375 0.46875 14.59375 C0.4378125 15.8003125 0.406875 17.006875 0.375 18.25 C0.33632812 19.47203125 0.29765625 20.6940625 0.2578125 21.953125 C0.16357892 24.9685994 0.07796545 27.98406828 0 31 C-0.33 31 -0.66 31 -1 31 C-1.02465622 26.74585377 -1.04283899 22.49174502 -1.05493164 18.23754883 C-1.05997101 16.78929927 -1.06680253 15.34105483 -1.07543945 13.89282227 C-1.08752247 11.81525412 -1.09323211 9.73775303 -1.09765625 7.66015625 C-1.10289307 6.40855713 -1.10812988 5.15695801 -1.11352539 3.86743164 C-1 1 -1 1 0 0 Z " fill="#000101" transform="translate(91,449)"/>
<path d="M0 0 C1.58167969 -0.02513672 1.58167969 -0.02513672 3.1953125 -0.05078125 C4.07960938 0.06910156 4.96390625 0.18898438 5.875 0.3125 C6.535 1.3025 7.195 2.2925 7.875 3.3125 C3.60919687 3.38359672 -0.00593476 3.4109174 -4.125 2.3125 C-6.12463028 2.27404557 -8.12551633 2.26705719 -10.125 2.3125 C-6.70899233 0.24144221 -3.9628401 0.01460506 0 0 Z " fill="#131313" transform="translate(402.125,696.6875)"/>
<path d="M0 0 C0.33 0 0.66 0 1 0 C1.89316269 5.93609666 1.97040422 11.06975197 1 17 C-2.03742032 12.44386953 -1.3586349 7.15180939 -0.5 2 C-0.335 1.34 -0.17 0.68 0 0 Z " fill="#111111" transform="translate(328,390)"/>
<path d="M0 0 C2.0625 0.4375 2.0625 0.4375 4 1 C3.67 2.65 3.34 4.3 3 6 C1.68 5.67 0.36 5.34 -1 5 C-1 1 -1 1 0 0 Z " fill="#F2F3F2" transform="translate(255,467)"/>
<path d="M0 0 C0.99 0 1.98 0 3 0 C3.33 1.65 3.66 3.3 4 5 C2.68 5.33 1.36 5.66 0 6 C-0.38218767 4.34385343 -0.71395102 2.67542976 -1 1 C-0.67 0.67 -0.34 0.34 0 0 Z " fill="#E2E2E2" transform="translate(255,455)"/>
<path d="M0 0 C0.99 0 1.98 0 3 0 C3.25 6.625 3.25 6.625 1 10 C0.34 10 -0.32 10 -1 10 C-0.67 6.7 -0.34 3.4 0 0 Z " fill="#141414" transform="translate(320,401)"/>
<path d="M0 0 C-0.08708669 1.45945288 -0.19526907 2.91765868 -0.3125 4.375 C-0.37050781 5.18710937 -0.42851563 5.99921875 -0.48828125 6.8359375 C-1 9 -1 9 -4 11 C-3.8864371 9.35333797 -3.75882619 7.70763918 -3.625 6.0625 C-3.55539063 5.14597656 -3.48578125 4.22945312 -3.4140625 3.28515625 C-3.27742188 2.53105469 -3.14078125 1.77695312 -3 1 C-1 0 -1 0 0 0 Z " fill="#151515" transform="translate(65,621)"/>
<path d="M0 0 C0.99 0.33 1.98 0.66 3 1 C2.67 3.64 2.34 6.28 2 9 C1.34 8.67 0.68 8.34 0 8 C-1.27536232 2.55072464 -1.27536232 2.55072464 0 0 Z " fill="#6A6A6A" transform="translate(314,428)"/>
<path d="M0 0 C1.125 1.6875 1.125 1.6875 2 4 C1.125 6.75 1.125 6.75 0 9 C-0.66 9 -1.32 9 -2 9 C-1.125 1.125 -1.125 1.125 0 0 Z " fill="#161616" transform="translate(173,323)"/>
<path d="M0 0 C0.66 0.33 1.32 0.66 2 1 C1.71872579 2.48117801 1.42466268 3.95993249 1.125 5.4375 C0.96257813 6.26121094 0.80015625 7.08492187 0.6328125 7.93359375 C0.42398438 8.61550781 0.21515625 9.29742188 0 10 C-0.99 10.495 -0.99 10.495 -2 11 C-1.85957123 9.35369672 -1.71250671 7.70795821 -1.5625 6.0625 C-1.48128906 5.14597656 -1.40007813 4.22945312 -1.31640625 3.28515625 C-1 1 -1 1 0 0 Z " fill="#131313" transform="translate(49,658)"/>
<path d="M0 0 C0.99 0.33 1.98 0.66 3 1 C2.67 2.98 2.34 4.96 2 7 C0.35 6.67 -1.3 6.34 -3 6 C-2 3 -2 3 0 0 Z " fill="#111111" transform="translate(311,426)"/>
<path d="M0 0 C0.66 0 1.32 0 2 0 C3.65 2.97 5.3 5.94 7 9 C3 8 3 8 1.25 5.625 C0 3 0 3 0 0 Z " fill="#151615" transform="translate(313,298)"/>
<path d="M0 0 C2.97 0 5.94 0 9 0 C8.67 0.66 8.34 1.32 8 2 C5.93359375 2.4140625 5.93359375 2.4140625 3.4375 2.625 C2.61121094 2.69976562 1.78492188 2.77453125 0.93359375 2.8515625 C-0.02353516 2.92503906 -0.02353516 2.92503906 -1 3 C-0.67 2.01 -0.34 1.02 0 0 Z " fill="#111111" transform="translate(215,379)"/>
<path d="M0 0 C0.33 0 0.66 0 1 0 C1.33 3.3 1.66 6.6 2 10 C1.01 9.34 0.02 8.68 -1 8 C-1.25660094 4.92078868 -1.39431504 2.78863007 0 0 Z " fill="#131313" transform="translate(470,656)"/>
<path d="M0 0 C0.66 0.33 1.32 0.66 2 1 C1.67 3.31 1.34 5.62 1 8 C0.34 8 -0.32 8 -1 8 C-1.125 2.25 -1.125 2.25 0 0 Z " fill="#141413" transform="translate(342,383)"/>
<path d="M0 0 C0.66 0.33 1.32 0.66 2 1 C1.67 3.31 1.34 5.62 1 8 C0.34 8 -0.32 8 -1 8 C-1.04241723 5.66705225 -1.04092937 3.33297433 -1 1 C-0.67 0.67 -0.34 0.34 0 0 Z " fill="#181818" transform="translate(170,339)"/>
<path d="M0 0 C2.76223278 2.76223278 2.57856291 5.20706617 3 9 C0.9375 6.75 0.9375 6.75 -1 4 C-0.75 1.6875 -0.75 1.6875 0 0 Z " fill="#141415" transform="translate(50,688)"/>
<path d="M0 0 C0.99 0.33 1.98 0.66 3 1 C3.125 3.875 3.125 3.875 3 7 C2.34 7.66 1.68 8.32 1 9 C0.67 6.03 0.34 3.06 0 0 Z " fill="#151514" transform="translate(455,625)"/>
<path d="M0 0 C2.97 0.33 5.94 0.66 9 1 C9 1.33 9 1.66 9 2 C5.7 2.33 2.4 2.66 -1 3 C-0.67 2.01 -0.34 1.02 0 0 Z " fill="#171717" transform="translate(100,398)"/>
</svg>
