<?xml version="1.0" encoding="UTF-8"?>
<svg version="1.1" xmlns="http://www.w3.org/2000/svg" width="512" height="1024">
<path d="M0 0 C168.96 0 337.92 0 512 0 C512 337.92 512 675.84 512 1024 C343.04 1024 174.08 1024 0 1024 C0 686.08 0 348.16 0 0 Z " fill="#FEFEFE" transform="translate(0,0)"/>
<path d="M0 0 C24.49539586 21.45847046 40.58028562 49.96305112 43.20703125 82.83984375 C43.84772654 96.13923764 43.54270168 108.91412082 40.20703125 121.83984375 C40.04074219 122.48969238 39.87445313 123.13954102 39.703125 123.80908203 C34.18132379 144.78681386 23.17287211 162.30711498 8.20703125 177.83984375 C7.624375 178.48566406 7.04171875 179.13148438 6.44140625 179.796875 C-12.58672877 200.31458625 -43.61680972 211.43068897 -71.00878906 212.96386719 C-102.46053057 214.08368743 -133.30481672 204.3067215 -157.04296875 183.33984375 C-158.63444023 181.84848096 -160.21806212 180.34868886 -161.79296875 178.83984375 C-162.540625 178.15535156 -163.28828125 177.47085938 -164.05859375 176.765625 C-177.00303412 164.52271898 -186.3921617 148.63306611 -192.10546875 131.83984375 C-192.45109863 130.82809082 -192.45109863 130.82809082 -192.80371094 129.79589844 C-196.76832075 117.38975526 -198.35646629 105.2024715 -198.29296875 92.21484375 C-198.29087402 91.52218414 -198.2887793 90.82952454 -198.28662109 90.11587524 C-198.14238918 66.83143489 -191.65071233 43.83478289 -177.79296875 24.83984375 C-177.23996094 24.07800781 -176.68695313 23.31617188 -176.1171875 22.53125 C-155.92919042 -4.24685187 -127.82259261 -20.87925595 -94.91796875 -26.47265625 C-61.03070867 -30.53288096 -26.33995442 -22.27869376 0 0 Z " fill="#FEFEFE" transform="translate(331.79296875,466.16015625)"/>
<path d="M0 0 C1.34987503 -0.01940392 1.34987503 -0.01940392 2.72702026 -0.03919983 C4.21220154 -0.05265945 4.21220154 -0.05265945 5.72738647 -0.06639099 C6.76821381 -0.07938736 7.80904114 -0.09238373 8.88140869 -0.10577393 C19.77623201 -0.23257671 30.67183476 -0.2892513 41.56723022 -0.34080505 C46.73758664 -0.36755192 51.90702148 -0.4162843 57.07699585 -0.48435974 C63.31692979 -0.56631796 69.55598571 -0.60899149 75.79642868 -0.62386894 C78.17351698 -0.63611649 80.5505763 -0.66214838 82.92735672 -0.70231819 C86.26017777 -0.75582087 89.58953895 -0.758781 92.92269897 -0.74998474 C94.38966217 -0.79077148 94.38966217 -0.79077148 95.88626099 -0.8323822 C101.44472315 -0.75694772 104.23499424 0.10219988 108.24432373 4.06558228 C109.42800623 5.41148809 110.58807589 6.77888029 111.71322632 8.17408752 C112.84824585 9.49086487 112.84824585 9.49086487 114.00619507 10.83424377 C114.63139038 11.62701721 115.25658569 12.41979065 115.90072632 13.23658752 C119.58997043 17.83218573 123.39929178 22.29802823 127.27572632 26.73658752 C128.91851791 28.63211628 130.55928859 30.52936907 132.19906616 32.42750549 C133.15866931 33.53440664 134.12208621 34.63802248 135.09066772 35.73707581 C136.27057461 37.07885046 137.43026384 38.43832951 138.58822632 39.79908752 C139.22502319 40.53385315 139.86182007 41.26861877 140.51791382 42.02565002 C141.71322632 44.17408752 141.71322632 44.17408752 141.70932007 46.57643127 C140.3978384 49.99656975 138.3119987 52.42252069 135.90072632 55.11158752 C135.410802 55.67369934 134.92087769 56.23581116 134.41610718 56.81495667 C133.37838306 58.00546644 132.33703456 59.19282541 131.29232788 60.37721252 C128.75649832 63.26275761 126.26964037 66.18984034 123.77572632 69.11158752 C120.72322309 72.67300663 117.66560012 76.22998995 114.60385132 79.78346252 C110.0338271 85.09338168 105.4925263 90.4123306 101.08822632 95.86158752 C97.15133017 100.72862946 92.97161408 105.30715731 88.68197632 109.86158752 C86.53163714 112.09519834 86.53163714 112.09519834 85.71322632 115.17408752 C87.49213257 115.59367737 87.49213257 115.59367737 89.30697632 116.02174377 C100.35141203 118.71914805 110.51239356 122.15858678 120.71322632 127.17408752 C121.83213257 127.71936096 122.95103882 128.2646344 124.10385132 128.82643127 C158.88243886 146.67775942 185.73688048 178.0926277 198.07260132 215.15357971 C210.63697422 254.78115217 205.99683867 297.86922821 187.08822632 334.67408752 C179.65616296 348.68758196 169.82273381 360.90699837 158.71322632 372.17408752 C157.81474976 373.08545471 156.91627319 373.9968219 155.99057007 374.93580627 C126.61356812 403.26218642 85.54203228 416.58467663 45.2449646 416.54689026 C5.98528231 415.62692814 -30.05658814 398.84119233 -58.28677368 372.17408752 C-59.03442993 371.47928284 -59.78208618 370.78447815 -60.55239868 370.06861877 C-86.11890114 345.53014002 -103.69074447 307.73445929 -104.45559692 272.2412262 C-104.50287343 269.17683342 -104.51942523 266.1128386 -104.52700806 263.04811096 C-104.53663863 260.70691853 -104.56770541 258.36663472 -104.59927368 256.02565002 C-104.70538125 241.22768762 -102.53554398 227.34619134 -97.72427368 213.29908752 C-97.21090454 211.78472107 -97.21090454 211.78472107 -96.68716431 210.23976135 C-91.69060675 196.04895688 -84.72569306 182.9169951 -75.28677368 171.17408752 C-74.59067993 170.27690002 -73.89458618 169.37971252 -73.17739868 168.45533752 C-50.3374094 139.62187587 -20.30744467 123.60970872 14.71322632 114.17408752 C13.67875366 113.06613831 13.67875366 113.06613831 12.62338257 111.93580627 C7.16419896 106.05443016 1.92792681 100.07597533 -3.10708618 93.82252502 C-5.26434767 91.20133634 -7.49988369 88.68254472 -9.78677368 86.17408752 C-13.60284811 81.98298509 -17.19098517 77.6498684 -20.75552368 73.24440002 C-24.32027667 68.92048667 -27.9977418 64.69800343 -31.68228149 60.47608948 C-32.72605977 59.27946537 -33.76559437 58.07912379 -34.80044556 56.87477112 C-35.77252648 55.7624985 -36.76818672 54.6702941 -37.78872681 53.60231018 C-40.08204848 51.12110386 -41.23437501 49.46752009 -41.83364868 46.11158752 C-41.15906816 42.48812643 -39.96747774 40.93233326 -37.53677368 38.17408752 C-36.71692993 37.22533752 -35.89708618 36.27658752 -35.05239868 35.29908752 C-34.60573853 34.79506409 -34.15907837 34.29104065 -33.69888306 33.77174377 C-31.71242528 31.52427149 -29.76654856 29.24288035 -27.81729126 26.96315002 C-26.79556934 25.76883224 -25.7719615 24.5761253 -24.74649048 23.38502502 C-19.61121069 17.41755224 -14.63473939 11.32622146 -9.69302368 5.19752502 C-6.50232551 1.2833546 -5.0180713 0.06059066 0 0 Z M-28.28677368 173.17408752 C-29.14400024 173.88049377 -30.00122681 174.58690002 -30.88442993 175.31471252 C-48.04316152 190.0600831 -59.1371444 208.9311914 -66.28677368 230.17408752 C-66.52686157 230.87630432 -66.76694946 231.57852112 -67.01431274 232.30201721 C-73.56426945 252.49853052 -72.63470302 279.03152717 -66.28677368 299.17408752 C-66.06714966 299.8737262 -65.84752563 300.57336487 -65.62124634 301.29420471 C-59.62313071 319.74276135 -49.56645225 335.11728491 -36.28677368 349.17408752 C-35.58939087 349.93592346 -34.89200806 350.6977594 -34.17349243 351.48268127 C-14.73318031 371.98918967 15.95633199 384.37808124 43.98275757 385.37721252 C76.61831361 385.93989453 108.69129325 375.86995714 132.66293335 353.11354065 C134.01714727 351.804635 135.3654062 350.48957613 136.71322632 349.17408752 C137.35646851 348.59272034 137.99971069 348.01135315 138.66244507 347.41236877 C156.0603586 331.31220171 165.54599222 306.92493317 169.71322632 284.17408752 C169.89885132 283.27045471 170.08447632 282.3668219 170.27572632 281.43580627 C174.31514784 251.32047616 166.50900877 219.33969105 148.45175171 194.90455627 C144.491101 189.7271949 140.21168126 184.88553749 135.71322632 180.17408752 C135.17697632 179.57467346 134.64072632 178.9752594 134.08822632 178.35768127 C114.1138733 156.8353159 83.33199242 146.22671698 54.67025757 144.89283752 C24.30488088 144.04312625 -4.90251891 153.57717862 -28.28677368 173.17408752 Z " fill="#0A0A0A" transform="translate(204.28677368164063,293.82591247558594)"/>
<path d="M0 0 C1.21962433 -0.01606293 2.43924866 -0.03212585 3.6958313 -0.04867554 C9.3092609 -0.09361669 14.92256524 -0.13468091 20.53613281 -0.15722656 C23.47656196 -0.1704456 26.41627716 -0.19807437 29.35644531 -0.23925781 C45.76841636 -0.46390449 61.20870039 -0.45197519 76.85888672 5.19287109 C77.54554916 5.43672043 78.23221161 5.68056976 78.93968201 5.93180847 C98.34162438 12.86305285 115.51306825 23.3594994 129.85888672 38.19287109 C130.73416016 39.06685547 131.60943359 39.94083984 132.51123047 40.84130859 C133.28595703 41.61732422 134.06068359 42.39333984 134.85888672 43.19287109 C135.60267578 43.92763672 136.34646484 44.66240234 137.11279297 45.41943359 C160.19763938 69.40267504 172.31642272 102.58049125 172.11962891 135.55859375 C172.10889673 137.69088149 172.11960014 139.82232719 172.13232422 141.95458984 C172.14566855 153.79974097 170.68744613 165.12216905 167.60888672 176.56787109 C167.39272705 177.37385742 167.17656738 178.17984375 166.95385742 179.01025391 C162.0828826 196.59091312 154.14918643 212.86040334 142.85888672 227.19287109 C141.79347656 228.56378906 141.79347656 228.56378906 140.70654297 229.96240234 C119.69811384 256.36139501 90.88402688 274.14523809 57.85888672 281.19287109 C57.18696289 281.34095215 56.51503906 281.4890332 55.82275391 281.64160156 C19.23105539 289.44189709 -20.5227992 282.76318893 -52.10375977 262.5246582 C-87.36589035 239.12011117 -110.21795425 204.91752857 -118.70385742 163.55639648 C-122.40720845 143.5384505 -121.67804873 120.7518567 -116.14111328 101.19287109 C-115.95919434 100.52980957 -115.77727539 99.86674805 -115.58984375 99.18359375 C-109.34081562 76.99647241 -97.45849017 58.16679393 -82.14111328 41.19287109 C-81.42568359 40.39365234 -80.71025391 39.59443359 -79.97314453 38.77099609 C-69.84150825 28.05009016 -57.12986004 20.00294318 -44.14111328 13.19287109 C-43.13048828 12.66048828 -42.11986328 12.12810547 -41.07861328 11.57958984 C-28.77269177 5.50511073 -13.84824168 0.16667017 0 0 Z M-52.14111328 50.19287109 C-52.99833984 50.89927734 -53.85556641 51.60568359 -54.73876953 52.33349609 C-71.89750112 67.07886667 -82.991484 85.94997497 -90.14111328 107.19287109 C-90.38120117 107.89508789 -90.62128906 108.59730469 -90.86865234 109.32080078 C-97.41860905 129.51731409 -96.48904261 156.05031074 -90.14111328 176.19287109 C-89.92148926 176.89250977 -89.70186523 177.59214844 -89.47558594 178.31298828 C-83.47747031 196.76154492 -73.42079185 212.13606848 -60.14111328 226.19287109 C-59.44373047 226.95470703 -58.74634766 227.71654297 -58.02783203 228.50146484 C-38.58751991 249.00797324 -7.89800761 261.39686481 20.12841797 262.39599609 C52.76397401 262.95867809 84.83695365 252.88874071 108.80859375 230.13232422 C110.16280767 228.82341857 111.5110666 227.5083597 112.85888672 226.19287109 C113.50212891 225.61150391 114.14537109 225.03013672 114.80810547 224.43115234 C132.206019 208.33098528 141.69165262 183.94371674 145.85888672 161.19287109 C146.04451172 160.28923828 146.23013672 159.38560547 146.42138672 158.45458984 C150.46080824 128.33925973 142.65466917 96.35847462 124.59741211 71.92333984 C120.6367614 66.74597847 116.35734166 61.90432106 111.85888672 57.19287109 C111.32263672 56.59345703 110.78638672 55.99404297 110.23388672 55.37646484 C90.2595337 33.85409946 59.47765282 23.24550055 30.81591797 21.91162109 C0.45054128 21.06190981 -28.75685851 30.59596219 -52.14111328 50.19287109 Z " fill="#FBFBFB" transform="translate(228.14111328125,416.80712890625)"/>
<path d="M0 0 C25.68242101 21.3815003 42.98157287 50.57082255 47 84 C47.3658014 89.39829921 47.48970215 94.77931088 47.5 100.1875 C47.50201416 100.92822754 47.50402832 101.66895508 47.50610352 102.43212891 C47.44335172 136.82749554 33.82082042 166.96120453 9.9375 191.4375 C-9.71930971 211.01965633 -33.94976238 222.02124203 -61 227 C-62.04671875 227.19335938 -63.0934375 227.38671875 -64.171875 227.5859375 C-98.14116563 231.26016689 -131.98908119 223.89152286 -159.44921875 203.0625 C-163.79953801 199.5449371 -167.93379911 195.84066936 -172 192 C-172.73863281 191.32582031 -173.47726563 190.65164063 -174.23828125 189.95703125 C-197.29606475 168.12790406 -210.31228362 136.10234114 -211.203125 104.625 C-211.72586739 67.12981332 -198.88190043 34.66818234 -172.75 7.4375 C-157.09125763 -7.73444209 -138.61871586 -17.30187414 -118 -24 C-117.26040039 -24.24153809 -116.52080078 -24.48307617 -115.75878906 -24.73193359 C-76.43908206 -36.84211437 -31.46220868 -25.18271436 0 0 Z M-160 8 C-160.85722656 8.70640625 -161.71445313 9.4128125 -162.59765625 10.140625 C-179.75638784 24.88599558 -190.85037072 43.75710388 -198 65 C-198.24008789 65.7022168 -198.48017578 66.40443359 -198.72753906 67.12792969 C-205.27749577 87.32444299 -204.34792933 113.85743965 -198 134 C-197.78037598 134.69963867 -197.56075195 135.39927734 -197.33447266 136.12011719 C-191.33635703 154.56867382 -181.27967857 169.94319738 -168 184 C-167.30261719 184.76183594 -166.60523438 185.52367187 -165.88671875 186.30859375 C-146.44640663 206.81510214 -115.75689433 219.20399371 -87.73046875 220.203125 C-55.09491271 220.765807 -23.02193306 210.69586962 0.94970703 187.93945312 C2.30392095 186.63054748 3.65217988 185.3154886 5 184 C5.64324219 183.41863281 6.28648437 182.83726562 6.94921875 182.23828125 C24.34713228 166.13811418 33.8327659 141.75084564 38 119 C38.185625 118.09636719 38.37125 117.19273437 38.5625 116.26171875 C42.60192152 86.14638863 34.79578246 54.16560353 16.73852539 29.73046875 C12.77787468 24.55310737 8.49845494 19.71144997 4 15 C3.46375 14.40058594 2.9275 13.80117188 2.375 13.18359375 C-17.59935302 -8.33877163 -48.3812339 -18.94737054 -77.04296875 -20.28125 C-107.40834543 -21.13096128 -136.61574523 -11.5969089 -160 8 Z " fill="#0B0B0B" transform="translate(336,459)"/>
<path d="M0 0 C22.44 0 44.88 0 68 0 C67.25192717 4.48843697 66.53875841 7.58963926 64.89868164 11.68237305 C64.46475601 12.77337814 64.03083038 13.86438324 63.58375549 14.9884491 C63.11396774 16.15112808 62.64417999 17.31380707 62.16015625 18.51171875 C61.67800156 19.71689651 61.19584686 20.92207428 60.69908142 22.16377258 C59.68148173 24.70616836 58.65982505 27.24688137 57.63500977 29.78637695 C56.32271977 33.03870247 55.01886135 36.29432624 53.71778202 39.55115032 C52.47313369 42.66450653 51.22278326 45.77555819 49.97265625 48.88671875 C49.27101097 50.63984627 49.27101097 50.63984627 48.55519104 52.4283905 C47.89957436 54.05071342 47.89957436 54.05071342 47.23071289 55.70581055 C46.84734268 56.65812057 46.46397247 57.6104306 46.06898499 58.59159851 C45 61 45 61 43 64 C41.12060547 64.34057617 41.12060547 64.34057617 38.8671875 64.29296875 C38.06152344 64.28330078 37.25585938 64.27363281 36.42578125 64.26367188 C35.58402344 64.23853516 34.74226563 64.21339844 33.875 64.1875 C33.02550781 64.17396484 32.17601562 64.16042969 31.30078125 64.14648438 C29.20025163 64.11108219 27.10004707 64.05727401 25 64 C22.29560434 58.74237013 19.90289453 53.49650394 17.79296875 47.9765625 C17.50448563 47.23151459 17.2160025 46.48646667 16.91877747 45.71884155 C16.00466859 43.3556304 15.09594164 40.99039466 14.1875 38.625 C13.59086023 37.07928598 12.99385724 35.5337121 12.39648438 33.98828125 C11.50198611 31.67380088 10.60833503 29.35901628 9.71774292 27.04302979 C8.1577221 22.98690093 6.58468119 18.93648047 4.99072266 14.89355469 C4.5032531 13.65344131 4.5032531 13.65344131 4.00593567 12.38827515 C3.38119027 10.80060722 2.75376465 9.21399068 2.12333679 7.62857056 C0 2.22317633 0 2.22317633 0 0 Z " fill="#FCFCFC" transform="translate(220,344)"/>
<path d="M0 0 C1.43352212 0.00015908 2.86704998 0.00585132 4.30053711 0.01586914 C5.43041298 0.01799156 5.43041298 0.01799156 6.58311462 0.02015686 C8.99807646 0.02577163 11.41294687 0.03832656 13.82788086 0.05102539 C15.46134307 0.05603849 17.09480672 0.06060173 18.72827148 0.06469727 C22.74067671 0.07574585 26.75301326 0.09302033 30.76538086 0.11352539 C29.05415522 3.74754116 26.96604199 6.23989643 24.20288086 9.17602539 C20.73146267 12.90948495 17.40621806 16.70569196 14.20288086 20.67602539 C11.31689293 24.25181008 8.36093282 27.71753858 5.26538086 31.11352539 C2.24255665 34.43342025 -0.65974075 37.81116651 -3.48461914 41.30102539 C-7.29243101 46.00518944 -11.20724868 50.6044096 -15.17211914 55.17602539 C-15.74027344 55.83175537 -16.30842773 56.48748535 -16.89379883 57.16308594 C-18.96126667 59.54029964 -21.00610507 61.88501132 -23.23461914 64.11352539 C-25.85961914 64.23852539 -25.85961914 64.23852539 -28.23461914 64.11352539 C-26.22786366 57.89845192 -24.01014564 51.79897451 -21.61743164 45.72290039 C-21.27839813 44.85642883 -20.93936462 43.98995728 -20.59005737 43.097229 C-19.51536248 40.35182575 -18.43761061 37.60763569 -17.35961914 34.86352539 C-16.29211301 32.14029547 -15.22524891 29.41681498 -14.15863037 26.6932373 C-13.47014413 24.93575904 -12.78106707 23.17851209 -12.09136963 21.42150879 C-9.73167259 15.40525702 -7.41609762 9.3740296 -5.14038086 3.32543945 C-3.83373736 0.13455264 -3.83373736 0.13455264 0 0 Z " fill="#FBFBFB" transform="translate(301.234619140625,343.886474609375)"/>
<path d="M0 0 C11.22 0 22.44 0 34 0 C38.49954179 8.99908359 38.49954179 8.99908359 39.84350586 12.48144531 C40.14739731 13.26295959 40.45128876 14.04447388 40.76438904 14.84967041 C41.07803909 15.66756042 41.39168915 16.48545044 41.71484375 17.328125 C42.22127159 18.63351227 42.22127159 18.63351227 42.7379303 19.965271 C43.80811955 22.72544497 44.8731157 25.48758293 45.9375 28.25 C47.34037662 31.88101248 48.74587541 35.51100249 50.15234375 39.140625 C50.6545192 40.44042297 50.6545192 40.44042297 51.1668396 41.76647949 C53.39109172 47.50238585 55.71727944 53.17744469 58.18969727 58.81152344 C59 61 59 61 59 64 C56.765625 64.26953125 56.765625 64.26953125 54 64 C51.859375 62.19921875 51.859375 62.19921875 49.75 59.6875 C48.96753906 58.76839844 48.18507812 57.84929687 47.37890625 56.90234375 C46.59386719 55.94457031 45.80882812 54.98679687 45 54 C43.93072266 52.70255859 43.93072266 52.70255859 42.83984375 51.37890625 C41.36762651 49.58071713 39.9004049 47.77842949 38.4375 45.97265625 C34.22877517 40.83990049 29.88093473 35.82654106 25.54833984 30.79833984 C22.5344601 27.29782924 19.53089827 23.78845865 16.52709961 20.27929688 C13.88495084 17.19395739 11.23611659 14.11467598 8.578125 11.04296875 C8.02125 10.39779297 7.464375 9.75261719 6.890625 9.08789062 C5.81449524 7.84137366 4.73643376 6.5965212 3.65625 5.35351562 C0 1.1124622 0 1.1124622 0 0 Z " fill="#FBFBFB" transform="translate(176,344)"/>
<path d="M0 0 C3.77720846 1.59600357 6.38077338 3.97726412 9.375 6.75 C9.88595215 7.22300537 10.3969043 7.69601074 10.92333984 8.18334961 C16.9951975 13.85254723 22.84232217 19.75211634 28.67822266 25.66235352 C29.78148717 26.77886373 30.89009288 27.89009288 32 29 C11.87 29 -8.26 29 -29 29 C-24.83899192 24.14549058 -20.74462765 19.56229389 -16.25 15.0625 C-15.67378906 14.47404297 -15.09757813 13.88558594 -14.50390625 13.27929688 C-13.04211829 11.81239777 -11.52517091 10.40088212 -10 9 C-9.34 9 -8.68 9 -8 9 C-8 8.34 -8 7.68 -8 7 C-6.25 5.2734375 -6.25 5.2734375 -4 3.375 C-3.2575 2.74335938 -2.515 2.11171875 -1.75 1.4609375 C-0.88375 0.73777344 -0.88375 0.73777344 0 0 Z " fill="#FCFCFC" transform="translate(253,307)"/>
<path d="M0 0 C12.87 0 25.74 0 39 0 C29 10 19 20 9 30 C6.48985368 27.48985368 6.1814272 25.61044009 5.2734375 22.1875 C4.9640625 21.02992188 4.6546875 19.87234375 4.3359375 18.6796875 C4.01882812 17.46539062 3.70171875 16.25109375 3.375 15 C3.05015625 13.78570312 2.7253125 12.57140625 2.390625 11.3203125 C0 2.30022321 0 2.30022321 0 0 Z " fill="#F8F8F8" transform="translate(207,302)"/>
<path d="M0 0 C12.21 0 24.42 0 37 0 C36.20228191 6.38174475 35.12038565 12.18887681 33.5625 18.375 C33.34529297 19.27605469 33.12808594 20.17710937 32.90429688 21.10546875 C32.58235352 22.39517578 32.58235352 22.39517578 32.25390625 23.7109375 C31.96495483 24.87568604 31.96495483 24.87568604 31.67016602 26.06396484 C31 28 31 28 29 30 C24.86679156 25.89143009 20.73681698 21.77964754 16.60986328 17.66479492 C15.20418265 16.26415665 13.79760769 14.86441535 12.39013672 13.46557617 C10.37233904 11.45984836 8.35773369 9.4509628 6.34375 7.44140625 C5.7094104 6.81222794 5.0750708 6.18304962 4.42150879 5.5348053 C2.92857324 4.04206397 1.46135357 2.52367285 0 1 C0 0.67 0 0.34 0 0 Z " fill="#F7F7F7" transform="translate(263,302)"/>
<path d="M0 0 C1.94686901 2.92030351 2.63937828 4.87048589 3.5078125 8.21875 C3.77207031 9.23324219 4.03632813 10.24773437 4.30859375 11.29296875 C4.57800781 12.35128906 4.84742188 13.40960938 5.125 14.5 C5.54072266 16.08748047 5.54072266 16.08748047 5.96484375 17.70703125 C8 25.59702124 8 25.59702124 8 29 C-2.56 29 -13.12 29 -24 29 C-22.02 26.69 -20.04 24.38 -18 22 C-16.5556305 20.25566546 -15.11763565 18.50602343 -13.6875 16.75 C-12.92953125 15.82058594 -12.1715625 14.89117187 -11.390625 13.93359375 C-10.60171875 12.96550781 -9.8128125 11.99742187 -9 11 C-7.31344277 8.93672699 -5.6254348 6.87464676 -3.9375 4.8125 C-3.18339844 3.89082031 -2.42929688 2.96914063 -1.65234375 2.01953125 C-1.10707031 1.35308594 -0.56179687 0.68664062 0 0 Z " fill="#FBFBFB" transform="translate(199,307)"/>
<path d="M0 0 C0.66 0 1.32 0 2 0 C3.3327188 1.46690559 4.58913869 3.00322501 5.8125 4.5625 C10.29126178 10.18104454 14.96604236 15.59427751 19.74536133 20.95922852 C20.28314209 21.57080811 20.82092285 22.1823877 21.375 22.8125 C21.85710937 23.35519531 22.33921875 23.89789063 22.8359375 24.45703125 C24 26 24 26 25 29 C14.77 29 4.54 29 -6 29 C-5.38125 26.07125 -4.7625 23.1425 -4.125 20.125 C-2.71178199 13.42392461 -1.32192676 6.71979439 0 0 Z " fill="#FAFAFA" transform="translate(307,307)"/>
<path d="M0 0 C0.08692074 4.27070558 0.14036515 8.54118458 0.1875 12.8125 C0.22520508 14.63491211 0.22520508 14.63491211 0.26367188 16.49414062 C0.27333984 17.65751953 0.28300781 18.82089844 0.29296875 20.01953125 C0.3086792 21.09307861 0.32438965 22.16662598 0.34057617 23.27270508 C0 26 0 26 -3 29 C-3 19.76 -3 10.52 -3 1 C-1 0 -1 0 0 0 Z " fill="#111112" transform="translate(409,542)"/>
<path d="M0 0 C0.66 0.33 1.32 0.66 2 1 C1.71572583 2.58467728 1.42225182 4.1677057 1.125 5.75 C0.96257812 6.63171875 0.80015625 7.5134375 0.6328125 8.421875 C0.02750791 10.88793074 -0.82508506 12.76535786 -2 15 C-2.69356423 17.32548007 -3.36149212 19.65880445 -4 22 C-4.33 22.99 -4.66 23.98 -5 25 C-5.66 25 -6.32 25 -7 25 C-4.95838673 16.5537319 -2.92608728 8.19304439 0 0 Z " fill="#141414" transform="translate(109,500)"/>
<path d="M0 0 C-5.27831372 3.51887581 -10.61297465 5.38709245 -17 5 C-17.33 4.34 -17.66 3.68 -18 3 C-15.565036 2.30215669 -13.12772895 1.61646178 -10.6875 0.9375 C-9.65206055 0.63875977 -9.65206055 0.63875977 -8.59570312 0.33398438 C-3.33984375 -1.11328125 -3.33984375 -1.11328125 0 0 Z " fill="#191A1A" transform="translate(220,410)"/>
<path d="M0 0 C0.66 0.33 1.32 0.66 2 1 C1.690625 2.0725 1.38125 3.145 1.0625 4.25 C0.00315796 7.72501024 0.00315796 7.72501024 -0.375 10.25 C-1.2535572 12.70996017 -2.91172417 13.51907132 -5 15 C-1.92482916 4.44191344 -1.92482916 4.44191344 0 0 Z " fill="#141414" transform="translate(283,357)"/>
<path d="M0 0 C3 1 3 1 4.16796875 2.7421875 C4.50441406 3.44601562 4.84085938 4.14984375 5.1875 4.875 C5.53167969 5.57367187 5.87585938 6.27234375 6.23046875 6.9921875 C7 9 7 9 7 12 C6.34 12 5.68 12 5 12 C4.16180842 10.37750059 3.3295884 8.75191503 2.5 7.125 C2.0359375 6.22007812 1.571875 5.31515625 1.09375 4.3828125 C0 2 0 2 0 0 Z " fill="#121212" transform="translate(136,610)"/>
<path d="M0 0 C0.66 0.33 1.32 0.66 2 1 C1.745504 2.48206495 1.47088238 3.96068615 1.1875 5.4375 C1.03667969 6.26121094 0.88585937 7.08492187 0.73046875 7.93359375 C0.48941406 8.61550781 0.24835938 9.29742188 0 10 C-0.99 10.33 -1.98 10.66 -3 11 C-2.69217504 9.35328588 -2.37860766 7.70764424 -2.0625 6.0625 C-1.88847656 5.14597656 -1.71445312 4.22945312 -1.53515625 3.28515625 C-1 1 -1 1 0 0 Z " fill="#141414" transform="translate(372,587)"/>
<path d="M0 0 C0.33 0 0.66 0 1 0 C1.33 4.29 1.66 8.58 2 13 C-1 10 -1 10 -1.328125 8.02734375 C-1.11111111 2.22222222 -1.11111111 2.22222222 0 0 Z " fill="#101010" transform="translate(406,527)"/>
<path d="M0 0 C0.66 0.33 1.32 0.66 2 1 C1.67 3.97 1.34 6.94 1 10 C0.01 10.33 -0.98 10.66 -2 11 C-1.34 7.37 -0.68 3.74 0 0 Z " fill="#111111" transform="translate(299,306)"/>
<path d="M0 0 C1.98 0.99 1.98 0.99 4 2 C4 2.66 4 3.32 4 4 C5.32 4.33 6.64 4.66 8 5 C7.67 6.32 7.34 7.64 7 9 C5.62437146 7.71034824 4.29233607 6.37310707 3 5 C3 4.34 3 3.68 3 3 C2.01 2.67 1.02 2.34 0 2 C0 1.34 0 0.68 0 0 Z " fill="#242425" transform="translate(357,453)"/>
<path d="M0 0 C0.99 0 1.98 0 3 0 C2.67 1.65 2.34 3.3 2 5 C1.34 5 0.68 5 0 5 C-0.12375 5.969375 -0.2475 6.93875 -0.375 7.9375 C-0.58125 8.948125 -0.7875 9.95875 -1 11 C-1.99 11.495 -1.99 11.495 -3 12 C-2.01 8.04 -1.02 4.08 0 0 Z " fill="#161616" transform="translate(395,593)"/>
<path d="M0 0 C0.66 0.33 1.32 0.66 2 1 C-1.625 6.75 -1.625 6.75 -5 9 C-5 4.61031544 -2.87194899 3.23094261 0 0 Z " fill="#121312" transform="translate(158,472)"/>
<path d="M0 0 C4.95 0.99 4.95 0.99 10 2 C9.01 3.485 9.01 3.485 8 5 C5.36 4.01 2.72 3.02 0 2 C0 1.34 0 0.68 0 0 Z " fill="#121212" transform="translate(305,421)"/>
<path d="M0 0 C0.66 0.33 1.32 0.66 2 1 C1.01 1.66 0.02 2.32 -1 3 C-0.67 2.01 -0.34 1.02 0 0 Z M-3 4 C-2.34 4.66 -1.68 5.32 -1 6 C-2.65 7.32 -4.3 8.64 -6 10 C-6 7 -6 7 -4.5 5.3125 C-3.7575 4.6628125 -3.7575 4.6628125 -3 4 Z " fill="#111110" transform="translate(320,358)"/>
<path d="M0 0 C0.66 0.33 1.32 0.66 2 1 C2 1.66 2 2.32 2 3 C-0.5 4.625 -0.5 4.625 -3 6 C-3 3 -3 3 -1.5 1.3125 C-0.7575 0.6628125 -0.7575 0.6628125 0 0 Z " fill="#141515" transform="translate(243,304)"/>
<path d="M0 0 C0.66 0.33 1.32 0.66 2 1 C0.515 4.96 0.515 4.96 -1 9 C-1.66 8.67 -2.32 8.34 -3 8 C-2.25 2.25 -2.25 2.25 0 0 Z " fill="#141314" transform="translate(296,344)"/>
<path d="M0 0 C-2.91765 1.9451 -4.62537285 2.45276317 -8 3 C-7.67 2.01 -7.34 1.02 -7 0 C-4.3333581 -1.33332095 -2.83319697 -0.67102033 0 0 Z " fill="#141515" transform="translate(299,679)"/>
<path d="M0 0 C2.82957829 0.36276645 5.29084291 1.09694764 8 2 C8 2.66 8 3.32 8 4 C4.7 3.34 1.4 2.68 -2 2 C-1.34 1.34 -0.68 0.68 0 0 Z " fill="#1A1B1A" transform="translate(281,440)"/>
</svg>
