<?xml version="1.0" encoding="UTF-8"?>
<svg version="1.1" xmlns="http://www.w3.org/2000/svg" width="512" height="1024">
<path d="M0 0 C168.96 0 337.92 0 512 0 C512 337.92 512 675.84 512 1024 C343.04 1024 174.08 1024 0 1024 C0 686.08 0 348.16 0 0 Z " fill="#FEFEFD" transform="translate(0,0)"/>
<path d="M0 0 C13.49723793 4.31131236 30.28139022 4.15459913 43.6015625 -0.58984375 C60.65199397 -6.37000217 76.57306045 -6.45718174 93.6105957 -0.74926758 C103.44996104 2.49765396 111.56971532 2.82255783 121.2890625 -1.08984375 C127.13772377 -3.40948229 132.19028647 -4.11330992 138.4765625 -4.15234375 C139.26119873 -4.16652344 140.04583496 -4.18070312 140.85424805 -4.1953125 C145.95800571 -4.10870722 149.50392477 -3.00967387 153.91601562 -0.43896484 C155.67792624 0.61453159 155.67792624 0.61453159 158.2265625 0.34765625 C160.70318262 -0.55915916 160.70318262 -0.55915916 163.20703125 -2.12109375 C167.40837363 -3.93893579 170.76616372 -4.08444505 175.2890625 -4.02734375 C176.09287354 -4.02412109 176.89668457 -4.02089844 177.72485352 -4.01757812 C182.24971786 -3.91182931 185.85017299 -3.44059525 190.0390625 -1.58984375 C202.23148853 3.66227823 216.59005006 0.60492006 228.6015625 -3.58984375 C243.13131429 -7.76467349 259.56857339 -4.0457866 273.58203125 0.34375 C289.59600521 5.06437138 305.7699688 2.93338766 321.25 -2.5234375 C328.25051548 -4.89092575 335.24202128 -5.50641665 342.6015625 -4.58984375 C346.83417038 -2.46751045 350.57368958 0.02060416 352.6015625 4.41015625 C353.77146848 12.6104318 352.28309315 19.71743937 349.6015625 27.41015625 C349.04367516 29.32216451 348.50215641 31.23901989 347.9765625 33.16015625 C347.73679687 34.02125 347.49703125 34.88234375 347.25 35.76953125 C343.31365213 51.799478 345.51292223 66.07782669 350.91796875 81.36523438 C355.56643453 95.27078773 354.86440599 110.99183233 350.1328125 124.71875 C344.84119928 140.16704976 343.66991432 151.70805981 350.19140625 167.046875 C353.16304906 174.13436659 353.98020173 181.81051445 351.7421875 189.27734375 C351.0564983 190.95181666 350.33715327 192.61318686 349.57421875 194.25390625 C348.60981831 196.39185421 347.85690457 198.07560016 347.6015625 200.41015625 C348.58259423 202.64551454 348.58259423 202.64551454 350.0390625 204.91015625 C353.94759281 212.46372044 353.73412057 218.95636723 351.28125 227 C350.25491031 230.16012122 349.15154329 233.28550553 348.01171875 236.40625 C343.88483917 247.79922573 345.28986778 258.77855908 349.5859375 269.97583008 C352.53277306 277.91321059 353.21242515 284.91747589 353.1015625 293.34765625 C353.11703125 294.52005859 353.1325 295.69246094 353.1484375 296.90039062 C353.11109937 305.35281035 351.47254871 312.48767936 348.6015625 320.41015625 C342.89125329 336.45644415 344.66760786 352.11834065 350.11083984 367.9753418 C352.66895792 375.57093463 354.58892157 383.36183222 350.9140625 390.84765625 C345.22706694 397.14946214 345.22706694 397.14946214 340.2890625 397.94140625 C331.42505059 397.8662875 323.98116356 396.38081533 315.6015625 393.41015625 C297.53965512 387.08981091 279.26749202 389.8675353 261.57519531 395.7668457 C249.14382978 399.81888036 234.87887264 398.29485904 222.6640625 394.41015625 C210.1594903 390.45251887 200.82089098 389.73930594 188.44140625 395.21875 C179.6246673 398.91765699 171.8410669 397.91574357 163.1796875 394.3828125 C160.60512934 393.41150192 158.34020461 392.697961 155.6015625 392.41015625 C154.5084375 393.04953125 153.4153125 393.68890625 152.2890625 394.34765625 C145.6101529 397.9314614 136.82348489 397.70413892 129.55029297 395.90185547 C127.52958433 395.27953401 125.53371807 394.61136417 123.5390625 393.91015625 C111.19553884 389.57936005 100.68760868 390.78070581 88.6015625 395.41015625 C74.46534383 400.17458551 59.49019304 397.48455108 45.6015625 393.41015625 C28.71826081 388.87810852 12.23271419 388.88623801 -4.3984375 394.41015625 C-12.33915689 396.96100562 -20.02103578 398.78983374 -28.3984375 397.41015625 C-32.76468657 395.12729506 -35.56578362 391.9749776 -37.3984375 387.41015625 C-38.96255172 377.21871728 -35.49105157 367.94243137 -32.3984375 358.41015625 C-27.24425841 342.38083641 -31.27241572 325.5496421 -36.546875 310.03125 C-37.76040419 304.8709676 -37.68768463 299.8796658 -37.6484375 294.59765625 C-37.65617187 293.56833984 -37.66390625 292.53902344 -37.671875 291.47851562 C-37.64802888 282.05333664 -36.1499737 273.96679452 -32.7734375 265.16015625 C-28.35023402 252.37968109 -30.23017602 243.066061 -34.88305664 230.81835938 C-37.83307562 222.81695901 -39.4456025 215.09020011 -36.4453125 206.765625 C-35.73669191 205.26105381 -35.00199021 203.7683143 -34.234375 202.29296875 C-32.92598634 199.34603727 -33.41832959 197.41582051 -34.3984375 194.41015625 C-34.9140625 193.44078125 -35.4296875 192.47140625 -35.9609375 191.47265625 C-40.65437995 180.62349279 -36.82775779 169.86832325 -32.90893555 159.55639648 C-30.57606159 153.30704523 -29.36709106 148.10293634 -30.3984375 141.41015625 C-30.51960938 140.54132813 -30.64078125 139.6725 -30.765625 138.77734375 C-31.64652468 133.60012633 -33.2959366 129.22838748 -35.3984375 124.41015625 C-37.65242928 117.13240435 -37.78348267 109.85075844 -37.7734375 102.28515625 C-37.77255127 101.08971191 -37.77166504 99.89426758 -37.77075195 98.66259766 C-37.6393441 88.83702537 -36.16592704 80.56427477 -32.60766602 71.3659668 C-30.50764234 65.63709219 -29.89046353 60.55690876 -29.9609375 54.47265625 C-29.96633545 53.56749268 -29.9717334 52.6623291 -29.97729492 51.72973633 C-30.207599 41.30415272 -32.09904231 31.03389887 -36.0078125 21.34765625 C-37.45573091 17.59336796 -37.83144421 14.27110799 -37.8359375 10.22265625 C-37.85527344 9.05347656 -37.87460937 7.88429688 -37.89453125 6.6796875 C-37.14889127 1.76550904 -34.90804674 -0.47297838 -30.99609375 -3.3671875 C-21.1290328 -8.0113831 -9.61640678 -3.16866457 0 0 Z " fill="#F9F9F7" transform="translate(98.3984375,315.58984375)"/>
<path d="M0 0 C91.41 0 182.82 0 277 0 C277 46.86 277 93.72 277 142 C271.08110531 140.81622106 266.61880418 138.47546982 261.3125 135.6875 C260.29244873 135.15278076 259.27239746 134.61806152 258.22143555 134.06713867 C233.68585965 120.97677404 208.72608975 103.27604775 190.71484375 81.91796875 C185.49082567 76.07516037 180.22860949 70.76913067 172.23828125 69.59375 C162.76584034 69.29022719 157.35476701 72.07088691 150.40234375 78.34375 C146.67628821 81.98550564 143.1836519 85.78000312 139.78125 89.72265625 C135.60011594 94.51977354 131.17157317 99.0496135 126.6875 103.5625 C125.89666016 104.37396484 125.10582031 105.18542969 124.29101562 106.02148438 C118.94149858 111.40576676 113.36467862 115.86653456 107 120 C103.87114415 118.62409722 102.82568875 117.78546308 100.5625 115 C97.9037432 111.88730911 96.87906751 110.96976688 93 110 C91.47923874 109.91536158 89.95839807 109.83214343 88.4375 109.75 C86.0703125 109.53515625 86.0703125 109.53515625 84 109 C81.8125 106.1875 81.8125 106.1875 80 103 C72.61725263 97.42527239 66.03390916 97.2846452 57 98 C51.36429515 99.6129776 47.15471403 104.20566487 44 109 C43.731875 110.0725 43.46375 111.145 43.1875 112.25 C42 115 42 115 40.09765625 115.79296875 C38.5088769 116.22915609 36.91899275 116.66133582 35.328125 117.08984375 C31.44801125 118.60673386 29.19718445 121.54728159 27 125 C25.93614517 128.19156448 25.83322018 130.58497476 25.8125 133.9375 C25.79832031 134.97777344 25.78414062 136.01804687 25.76953125 137.08984375 C25.99925787 139.99062902 26.6385767 141.4912482 28 144 C27.68393897 146.65491264 27.19397377 148.61205246 26 151 C25.24930612 158.89672219 26.38983884 164.17176363 30.875 170.75 C34.73923438 174.84154228 38.75414585 176.86565173 44.359375 177.09765625 C45.14828125 177.08605469 45.9371875 177.07445312 46.75 177.0625 C47.54921875 177.05347656 48.3484375 177.04445313 49.171875 177.03515625 C49.77515625 177.02355469 50.3784375 177.01195312 51 177 C51.33 175.68 51.66 174.36 52 173 C50.82244141 172.88785156 50.82244141 172.88785156 49.62109375 172.7734375 C42.48169891 171.87991815 37.64405346 170.6982251 33 165 C30.46866934 161.0975319 30.99178841 157.62850131 31.515625 153.18359375 C32 151 32 151 33.0625 148.8828125 C34.37310285 146.25068512 33.84864808 144.75810627 33 142 C32.34 141.01 31.68 140.02 31 139 C30.3456615 134.08485269 30.2949524 129.53828568 32.375 125 C35.65983986 122.49726487 38.77425628 121.63916354 42.7578125 120.67578125 C45.1753649 120.13995113 45.1753649 120.13995113 47 118 C47.41076058 116.59328568 47.78098609 115.17450829 48.125 113.75 C49.62034633 109.19029861 51.5544959 106.68472965 55.5546875 104.03515625 C60.90093806 101.77196711 66.67962413 101.98428574 72.18359375 103.66796875 C75.67361862 105.38671218 77.25192189 107.2532266 78.75 110.6875 C79.55948411 112.57647551 79.55948411 112.57647551 81 114 C83.82368495 114.63675633 86.48500822 114.75164257 89.375 114.8515625 C92.76237598 115.04311055 94.48460428 115.71327661 97 118 C101.17206927 123.52517281 101.82858733 128.16123697 101 135 C100.3530635 136.6744239 99.69040574 138.34302621 99 140 C99.26623158 144.34844916 100.25456503 146.68259941 103 150 C104.56840852 154.70522555 104.54895539 158.52648816 102.8125 163.1875 C99.80244174 167.85828006 96.23169103 170.29803545 91 172 C87.66796875 172.1953125 87.66796875 172.1953125 84.1875 172.125 C83.02605469 172.10695313 81.86460937 172.08890625 80.66796875 172.0703125 C79.78753906 172.04710937 78.90710938 172.02390625 78 172 C78 173.32 78 174.64 78 176 C82.65589401 178.327947 88.87465644 177.55079326 93.7734375 176.28125 C100.28628789 173.85604445 104.27051887 170.98186402 107.8125 164.875 C109.61496485 160.13058104 109.86698679 154.96981404 109 150 C108.33226562 148.90429688 107.66453125 147.80859375 106.9765625 146.6796875 C103.73749038 141.35021219 104.55418231 136.03164427 105.59765625 130.09375 C106.97426964 124.95439334 110.10775165 122.73425068 114.62817383 120.10546875 C115.82922604 119.42802757 117.03196586 118.75357016 118.23632812 118.08203125 C121.1802371 116.27591212 123.62579259 113.993169 126.125 111.625 C126.61427979 111.16520752 127.10355957 110.70541504 127.60766602 110.23168945 C129.08239119 108.83168955 130.54326469 107.41869536 132 106 C132.48774902 105.52739746 132.97549805 105.05479492 133.47802734 104.56787109 C138.02102788 100.14851014 142.48623141 95.67977733 146.625 90.875 C159.49286339 75.94458435 159.49286339 75.94458435 169.875 74.4375 C177.93883588 74.85539553 183.40509655 81.18380268 188.5 86.8125 C189.90015775 88.38196341 191.2946051 89.95631635 192.6875 91.53222656 C199.16953924 98.7811142 206.34776217 105.02378422 214 111 C214.5760498 111.45246094 215.15209961 111.90492188 215.74560547 112.37109375 C233.89360238 126.55507228 255.01803058 141.67267686 277 149 C277 157.25 277 165.5 277 174 C270.62575847 173.4205235 264.4350761 172.80852277 258.125 171.9375 C221.4874781 167.43472694 190.15904344 176.66510967 158.9699707 195.51464844 C143.97690415 204.48935876 128.32015579 208.35711943 111 210 C109.73285156 210.12117187 108.46570313 210.24234375 107.16015625 210.3671875 C96.3733111 210.90599095 87.99019094 208.05927184 78.17138672 203.86962891 C75.4843387 202.79348037 72.75158001 201.89626255 70 201 C69.72444829 196.25395901 69.52689724 191.51272638 69.39575195 186.76049805 C69.34101409 185.15094815 69.26638129 183.54192989 69.17016602 181.93432617 C68.68931788 173.68276644 68.47030799 166.97977657 73.83769226 160.29472351 C76.12469738 157.74933273 78.54160636 155.38076252 81 153 C83.78342084 149.84467393 84 149.44256359 84 145 C80.69646609 145.31764749 79.25380207 145.76194806 76.796875 148.06640625 C76.12140625 148.89011719 75.4459375 149.71382812 74.75 150.5625 C73.51319171 152.0527145 72.26665003 153.53506597 71 155 C70.67 155 70.34 155 70 155 C69.505 147.575 69.505 147.575 69 140 C67.68 139.67 66.36 139.34 65 139 C64.67 147.25 64.34 155.5 64 164 C59.26916675 159.94500008 55.73295757 156.75103691 52 152 C50.35 152.33 48.7 152.66 47 153 C48.4110467 157.3986819 50.53272587 159.90914951 53.8125 163.125 C54.66457031 163.97320313 55.51664063 164.82140625 56.39453125 165.6953125 C58.83737627 168.07550166 58.83737627 168.07550166 61.63232422 169.22924805 C64 171 64 171 64.56762695 174.00268555 C64.54144287 175.2019165 64.51525879 176.40114746 64.48828125 177.63671875 C64.47216797 178.93544922 64.45605469 180.23417969 64.43945312 181.57226562 C64.39767609 182.94402699 64.35535135 184.31577177 64.3125 185.6875 C64.28741745 187.07092382 64.26460418 188.45439077 64.24414062 189.83789062 C64.18511914 193.22572375 64.0954384 196.61299714 64 200 C57.73 199.01 51.46 198.02 45 197 C30.15 197 15.3 197 0 197 C0 131.99 0 66.98 0 0 Z " fill="#FBFBF8" transform="translate(117,367)"/>
<path d="M0 0 C13.49723793 4.31131236 30.28139022 4.15459913 43.6015625 -0.58984375 C60.65199397 -6.37000217 76.57306045 -6.45718174 93.6105957 -0.74926758 C103.44996104 2.49765396 111.56971532 2.82255783 121.2890625 -1.08984375 C127.13772377 -3.40948229 132.19028647 -4.11330992 138.4765625 -4.15234375 C139.26119873 -4.16652344 140.04583496 -4.18070312 140.85424805 -4.1953125 C145.95800571 -4.10870722 149.50392477 -3.00967387 153.91601562 -0.43896484 C155.67792624 0.61453159 155.67792624 0.61453159 158.2265625 0.34765625 C160.70318262 -0.55915916 160.70318262 -0.55915916 163.20703125 -2.12109375 C167.40837363 -3.93893579 170.76616372 -4.08444505 175.2890625 -4.02734375 C176.09287354 -4.02412109 176.89668457 -4.02089844 177.72485352 -4.01757812 C182.24971786 -3.91182931 185.85017299 -3.44059525 190.0390625 -1.58984375 C202.23148853 3.66227823 216.59005006 0.60492006 228.6015625 -3.58984375 C243.13131429 -7.76467349 259.56857339 -4.0457866 273.58203125 0.34375 C289.59600521 5.06437138 305.7699688 2.93338766 321.25 -2.5234375 C328.25051548 -4.89092575 335.24202128 -5.50641665 342.6015625 -4.58984375 C346.83417038 -2.46751045 350.57368958 0.02060416 352.6015625 4.41015625 C353.77146848 12.6104318 352.28309315 19.71743937 349.6015625 27.41015625 C349.04367516 29.32216451 348.50215641 31.23901989 347.9765625 33.16015625 C347.73679687 34.02125 347.49703125 34.88234375 347.25 35.76953125 C343.31365213 51.799478 345.51292223 66.07782669 350.91796875 81.36523438 C355.56643453 95.27078773 354.86440599 110.99183233 350.1328125 124.71875 C344.84119928 140.16704976 343.66991432 151.70805981 350.19140625 167.046875 C353.16304906 174.13436659 353.98020173 181.81051445 351.7421875 189.27734375 C351.0564983 190.95181666 350.33715327 192.61318686 349.57421875 194.25390625 C348.60981831 196.39185421 347.85690457 198.07560016 347.6015625 200.41015625 C348.58259423 202.64551454 348.58259423 202.64551454 350.0390625 204.91015625 C353.94759281 212.46372044 353.73412057 218.95636723 351.28125 227 C350.25491031 230.16012122 349.15154329 233.28550553 348.01171875 236.40625 C343.88483917 247.79922573 345.28986778 258.77855908 349.5859375 269.97583008 C352.53277306 277.91321059 353.21242515 284.91747589 353.1015625 293.34765625 C353.11703125 294.52005859 353.1325 295.69246094 353.1484375 296.90039062 C353.11109937 305.35281035 351.47254871 312.48767936 348.6015625 320.41015625 C342.89125329 336.45644415 344.66760786 352.11834065 350.11083984 367.9753418 C352.66895792 375.57093463 354.58892157 383.36183222 350.9140625 390.84765625 C345.22706694 397.14946214 345.22706694 397.14946214 340.2890625 397.94140625 C331.42505059 397.8662875 323.98116356 396.38081533 315.6015625 393.41015625 C297.53965512 387.08981091 279.26749202 389.8675353 261.57519531 395.7668457 C249.14382978 399.81888036 234.87887264 398.29485904 222.6640625 394.41015625 C210.1594903 390.45251887 200.82089098 389.73930594 188.44140625 395.21875 C179.6246673 398.91765699 171.8410669 397.91574357 163.1796875 394.3828125 C160.60512934 393.41150192 158.34020461 392.697961 155.6015625 392.41015625 C154.5084375 393.04953125 153.4153125 393.68890625 152.2890625 394.34765625 C145.6101529 397.9314614 136.82348489 397.70413892 129.55029297 395.90185547 C127.52958433 395.27953401 125.53371807 394.61136417 123.5390625 393.91015625 C111.19553884 389.57936005 100.68760868 390.78070581 88.6015625 395.41015625 C74.46534383 400.17458551 59.49019304 397.48455108 45.6015625 393.41015625 C28.71826081 388.87810852 12.23271419 388.88623801 -4.3984375 394.41015625 C-12.33915689 396.96100562 -20.02103578 398.78983374 -28.3984375 397.41015625 C-32.76468657 395.12729506 -35.56578362 391.9749776 -37.3984375 387.41015625 C-38.96255172 377.21871728 -35.49105157 367.94243137 -32.3984375 358.41015625 C-27.24425841 342.38083641 -31.27241572 325.5496421 -36.546875 310.03125 C-37.76040419 304.8709676 -37.68768463 299.8796658 -37.6484375 294.59765625 C-37.65617187 293.56833984 -37.66390625 292.53902344 -37.671875 291.47851562 C-37.64802888 282.05333664 -36.1499737 273.96679452 -32.7734375 265.16015625 C-28.35023402 252.37968109 -30.23017602 243.066061 -34.88305664 230.81835938 C-37.83307562 222.81695901 -39.4456025 215.09020011 -36.4453125 206.765625 C-35.73669191 205.26105381 -35.00199021 203.7683143 -34.234375 202.29296875 C-32.92598634 199.34603727 -33.41832959 197.41582051 -34.3984375 194.41015625 C-34.9140625 193.44078125 -35.4296875 192.47140625 -35.9609375 191.47265625 C-40.65437995 180.62349279 -36.82775779 169.86832325 -32.90893555 159.55639648 C-30.57606159 153.30704523 -29.36709106 148.10293634 -30.3984375 141.41015625 C-30.51960938 140.54132813 -30.64078125 139.6725 -30.765625 138.77734375 C-31.64652468 133.60012633 -33.2959366 129.22838748 -35.3984375 124.41015625 C-37.65242928 117.13240435 -37.78348267 109.85075844 -37.7734375 102.28515625 C-37.77255127 101.08971191 -37.77166504 99.89426758 -37.77075195 98.66259766 C-37.6393441 88.83702537 -36.16592704 80.56427477 -32.60766602 71.3659668 C-30.50764234 65.63709219 -29.89046353 60.55690876 -29.9609375 54.47265625 C-29.96633545 53.56749268 -29.9717334 52.6623291 -29.97729492 51.72973633 C-30.207599 41.30415272 -32.09904231 31.03389887 -36.0078125 21.34765625 C-37.45573091 17.59336796 -37.83144421 14.27110799 -37.8359375 10.22265625 C-37.85527344 9.05347656 -37.87460937 7.88429688 -37.89453125 6.6796875 C-37.14889127 1.76550904 -34.90804674 -0.47297838 -30.99609375 -3.3671875 C-21.1290328 -8.0113831 -9.61640678 -3.16866457 0 0 Z M37.4140625 24.84765625 C36.25809696 24.85737961 35.10213142 24.86710297 33.91113663 24.87712097 C27.46932176 24.93151826 21.02761935 24.99156025 14.58596802 25.06284523 C12.72287499 25.08312023 10.85976598 25.10198609 8.99664307 25.11929893 C6.54169951 25.14287735 4.08692499 25.17274682 1.63208008 25.20483398 C0.92095471 25.21058819 0.20982935 25.21634239 -0.52284527 25.22227097 C-3.74064063 25.00548028 -3.74064063 25.00548028 -6.3984375 26.41015625 C-6.49681166 28.20759697 -6.52399375 30.00895133 -6.52427864 31.80908203 C-6.52688639 32.98784409 -6.52949414 34.16660614 -6.53218091 35.38108826 C-6.52995018 36.69263382 -6.52771946 38.00417938 -6.52542114 39.35546875 C-6.526572 40.74980205 -6.52815929 42.14413505 -6.53014839 43.53846741 C-6.53434654 47.38801755 -6.53224884 51.23754309 -6.52916217 55.08709335 C-6.52691025 59.23164797 -6.53038663 63.3761982 -6.53314209 67.52075195 C-6.53760103 75.64705285 -6.53662277 83.77334454 -6.53372945 91.89964581 C-6.5314759 98.50096907 -6.53116268 105.10228974 -6.53225327 111.70361328 C-6.5324065 112.64126117 -6.53255973 113.57890905 -6.53271761 114.54497051 C-6.53303732 116.44946925 -6.53336153 118.35396799 -6.5336902 120.25846672 C-6.53654535 138.13912972 -6.53325741 156.0197876 -6.52788983 173.90044975 C-6.52342176 189.26045865 -6.52419768 204.62045999 -6.52880859 219.98046875 C-6.53415373 237.79484685 -6.53627066 255.60922046 -6.53319633 273.42359924 C-6.53287776 275.32129923 -6.53256339 277.21899923 -6.53225327 279.11669922 C-6.53209899 280.05053279 -6.53194471 280.98436636 -6.53178576 281.94649792 C-6.53092043 288.54392288 -6.53238384 295.14134501 -6.53473282 301.73876953 C-6.53753035 309.77303582 -6.53679356 317.80729234 -6.53145207 325.8415575 C-6.52881442 329.94488374 -6.52781107 334.04819364 -6.53110123 338.15151978 C-6.53406289 341.90173409 -6.53247358 345.65191681 -6.52712367 349.40212822 C-6.5254627 351.41449358 -6.52875821 353.42686111 -6.53218091 355.43922424 C-6.52957316 356.6179863 -6.52696541 357.79674835 -6.52427864 359.01123047 C-6.52411629 360.03707245 -6.52395394 361.06291443 -6.52378666 362.11984253 C-6.65587677 364.37518628 -6.65587677 364.37518628 -5.3984375 365.41015625 C-3.66971141 365.5092962 -1.93689693 365.53755339 -0.20533085 365.5387907 C0.92753036 365.54201515 2.06039158 365.5452396 3.22758192 365.54856175 C4.48786303 365.54701315 5.74814415 365.54546455 7.0466156 365.54386902 C8.38661404 365.54573519 9.72661194 365.5480351 11.06660897 365.55073434 C14.76600605 365.55688281 18.46538065 365.55671519 22.16478169 365.55553997 C26.14780157 365.55533672 30.13081408 365.56084736 34.11383057 365.56559753 C41.92362959 365.57392127 49.73342106 365.57665315 57.54322415 365.57720991 C63.8880555 365.57768425 70.23288436 365.57973487 76.57771492 365.58291054 C94.54637344 365.59172174 112.51502598 365.59632918 130.48368668 365.59558006 C131.93821075 365.59552013 131.93821075 365.59552013 133.42211914 365.59545898 C134.87840866 365.59539766 134.87840866 365.59539766 136.36411817 365.5953351 C152.10547239 365.59492848 167.84680271 365.60450093 183.58815002 365.61859735 C199.73155019 365.63294034 215.8749387 365.63986869 232.01834542 365.63900357 C241.08957144 365.63867089 250.16077241 365.64144918 259.23199272 365.65218163 C266.95442465 365.66125935 274.67682016 365.66348446 282.39925509 365.6566722 C286.3427292 365.65339314 290.28613333 365.65339984 294.22960091 365.66202545 C297.83494941 365.6698307 301.44017177 365.66852098 305.04551698 365.65974132 C306.9776149 365.65745582 308.90971655 365.66508161 310.84179968 365.67298096 C312.54500312 365.66608277 312.54500312 365.66608277 314.28261471 365.65904522 C315.26858605 365.65926259 316.2545574 365.65947996 317.27040666 365.65970391 C319.79399 365.63627859 319.79399 365.63627859 321.6015625 363.41015625 C321.90675664 360.90137945 321.90675664 360.90137945 321.85603809 357.92500401 C321.86187029 356.75245109 321.86770248 355.57989818 321.87371141 354.37181336 C321.86993208 353.07232677 321.86615276 351.77284019 321.86225891 350.43397522 C321.86527686 349.04845216 321.86916454 347.66293077 321.87385148 346.27741235 C321.88418626 342.45676563 321.88193582 338.63621217 321.87767088 334.8155576 C321.87521354 330.70028539 321.88420542 326.58503622 321.89170837 322.46977234 C321.90448513 314.40242228 321.90624537 306.33510546 321.90390811 298.26774699 C321.90212811 291.71318189 321.90386774 285.15862692 321.90813255 278.60406303 C321.90902534 277.20698669 321.90902534 277.20698669 321.90993616 275.78168659 C321.91114785 273.88983484 321.91236199 271.99798311 321.91357853 270.10613137 C321.92446553 252.34748398 321.92228609 234.58885556 321.91619369 216.8302071 C321.91102345 200.569023 321.92228072 184.30789879 321.94129191 168.04672653 C321.96064412 151.36653 321.96893092 134.68636184 321.96516865 118.006154 C321.96325263 108.63476462 321.96578307 99.26342623 321.97988319 89.89204597 C321.99176469 81.91419826 321.99323838 73.93643291 321.98109303 65.95858414 C321.9751815 61.88533406 321.97416718 57.81223486 321.98609543 53.7389946 C321.99687766 50.0139189 321.9939433 46.28912145 321.97983374 42.56405919 C321.97589645 40.57011487 321.98679615 38.57615854 321.99813062 36.58224255 C321.99092408 35.40708189 321.98371753 34.23192123 321.97629261 33.02114964 C321.97637513 31.49345222 321.97637513 31.49345222 321.97645932 29.93489224 C321.79469585 27.38466772 321.79469585 27.38466772 320.28859031 25.58271521 C317.45874458 23.61584724 314.26897084 24.00647527 310.94612122 24.04266357 C310.15698947 24.03939314 309.36785773 24.03612271 308.55481291 24.03275317 C305.89547999 24.02543818 303.23669231 24.03966215 300.57739258 24.05371094 C298.66806795 24.05294365 296.75874347 24.05087115 294.8494215 24.04759312 C289.62223692 24.04248794 284.39524611 24.05619103 279.16809273 24.0731566 C273.61995998 24.08809071 268.07183091 24.08621917 262.52368164 24.08647156 C251.83864243 24.08978381 241.15369479 24.1094892 230.46868861 24.1353026 C221.90323087 24.15566501 213.33778488 24.16955326 204.77230835 24.1789856 C148.98573974 24.24119709 93.19875596 24.35943686 37.4140625 24.84765625 Z " fill="#FAFAF7" transform="translate(98.3984375,315.58984375)"/>
<path d="M0 0 C0.68720123 -0.00200409 1.37440247 -0.00400818 2.08242798 -0.006073 C14.79582815 -0.01514937 26.89439245 1.16109811 39.25 4.25 C39.25 38.9 39.25 73.55 39.25 109.25 C-51.83 109.25 -142.91 109.25 -236.75 109.25 C-236.75 81.86 -236.75 54.47 -236.75 26.25 C-184.92019737 21.06701974 -143.07472615 35.63702609 -98.6953125 61.1484375 C-80.81404054 71.39563423 -59.46141182 81.59745151 -38.375 81.3125 C-37.50101563 81.30347656 -36.62703125 81.29445313 -35.7265625 81.28515625 C-35.07429687 81.27355469 -34.42203125 81.26195312 -33.75 81.25 C-33.75 79.93 -33.75 78.61 -33.75 77.25 C-34.88953125 77.10304688 -36.0290625 76.95609375 -37.203125 76.8046875 C-64.80434651 73.00280948 -87.54459253 62.08400982 -111.48046875 48.23046875 C-116.47096962 45.36086117 -121.57099222 42.76080088 -126.75 40.25 C-126.75 39.59 -126.75 38.93 -126.75 38.25 C-125.7290625 38.1984375 -124.708125 38.146875 -123.65625 38.09375 C-102.87413773 36.634332 -84.37083042 29.01440828 -66.75 18.25 C-45.52955909 5.41541467 -24.88718576 0.03510494 0 0 Z " fill="#FCFCF9" transform="translate(354.75,543.75)"/>
<path d="M0 0 C0.99700879 -0.00322445 1.99401757 -0.00644889 3.02123874 -0.00977105 C4.12977288 -0.00822245 5.23830701 -0.00667385 6.38043308 -0.00507832 C7.54777235 -0.00734387 8.71511162 -0.00960943 9.9178248 -0.01194364 C13.17256485 -0.01720192 16.42727042 -0.01792461 19.68201339 -0.01674926 C23.18650169 -0.016546 26.69098161 -0.0220569 30.19546604 -0.02680683 C37.06678997 -0.03513003 43.93810532 -0.03786242 50.80943387 -0.03841921 C56.39196548 -0.03889358 61.97449425 -0.04094433 67.55702496 -0.04411983 C83.36752004 -0.05293092 99.17800833 -0.0575385 114.98850589 -0.05678936 C115.84169578 -0.0567494 116.69488566 -0.05670945 117.57392979 -0.05666828 C118.42815549 -0.0566274 119.28238119 -0.05658652 120.16249252 -0.0565444 C134.01238916 -0.05613779 147.86225863 -0.06571 161.71214741 -0.07980665 C175.91644654 -0.09415051 190.12073241 -0.10107793 204.32503897 -0.10021287 C212.30638498 -0.09988021 220.28770251 -0.10265725 228.26904202 -0.11339092 C235.06372118 -0.1224698 241.85835895 -0.1246928 248.65304153 -0.1178815 C252.12260677 -0.11460301 255.59209247 -0.11460707 259.06165028 -0.12323475 C262.81601426 -0.13088187 266.5701659 -0.12635851 270.32452488 -0.11860371 C271.43082829 -0.12374727 272.5371317 -0.12889083 273.67695946 -0.13419026 C275.17638425 -0.12729207 275.17638425 -0.12729207 276.70610046 -0.12025452 C277.57359907 -0.12047188 278.44109767 -0.12068925 279.33488411 -0.12091321 C281.4159708 0.12863445 281.4159708 0.12863445 283.4159708 2.12863445 C283.66551846 4.26742941 283.66551846 4.26742941 283.66485977 6.97906113 C283.67175797 8.52551177 283.67175797 8.52551177 283.67879552 10.10320383 C283.67108017 11.81518675 283.67108017 11.81518675 283.66320896 13.56175518 C283.66562338 14.76740641 283.66803779 15.97305764 283.67052537 17.21524376 C283.67520196 20.57234112 283.67085348 23.92921183 283.66276109 27.28628862 C283.65620121 30.90253399 283.6611288 34.51876557 283.66464329 38.13501263 C283.66969316 45.22311967 283.66403391 52.31118018 283.65479299 59.39928145 C283.64442711 67.64553916 283.64447869 75.89178671 283.64496557 84.13804971 C283.64546657 98.84610279 283.63629401 113.55413414 283.62178135 128.26217937 C283.60769059 142.54994382 283.60061065 156.83768914 283.60127354 171.12546062 C283.60131349 172.00553347 283.60135345 172.88560632 283.60139462 173.79234803 C283.60143497 174.67086598 283.60147533 175.54938392 283.6015169 176.45452362 C283.60220594 192.69857771 283.59632161 208.94262364 283.58736369 225.18667509 C283.58434158 230.94152955 283.58328345 236.69638251 283.58283138 242.45123768 C283.58215072 249.45891427 283.57770664 256.46657712 283.56849857 263.47424788 C283.5638673 267.05303638 283.56083995 270.63180724 283.56209278 274.21059895 C283.56338213 278.0812457 283.55696637 281.9518567 283.54968357 285.82249737 C283.55123217 286.96605003 283.55278077 288.1096027 283.5543763 289.28780848 C283.55115186 290.31616782 283.54792741 291.34452717 283.54460526 292.40404892 C283.54390083 293.29872503 283.54319641 294.19340115 283.54247063 295.11518866 C283.4159708 297.12863445 283.4159708 297.12863445 282.4159708 298.12863445 C280.8843693 298.22642131 279.34825088 298.2541895 277.81353092 298.25447559 C276.3118676 298.25838721 276.3118676 298.25838721 274.77986765 298.26237786 C273.66676045 298.26014714 272.55365325 298.25791641 271.40681553 298.2556181 C270.23468714 298.25717809 269.06255876 298.25873808 267.85491133 298.26034534 C264.58683707 298.26365857 261.31879955 298.26244619 258.05072618 298.25935912 C254.53194397 298.25710686 251.01316692 298.26058376 247.49438572 298.26333904 C240.59532116 298.2677976 233.69626746 298.26681989 226.79720247 298.2639264 C221.19273278 298.2616727 215.58826613 298.2613597 209.98379612 298.26245022 C209.18769166 298.26260345 208.39158719 298.26275668 207.57135835 298.26291456 C205.95434662 298.26323427 204.33733488 298.26355848 202.72032315 298.26388715 C187.53935109 298.2667422 172.35838507 298.26345454 157.177414 298.25808679 C144.13697549 298.25361872 131.09654587 298.25439465 118.05610752 298.25900555 C102.93135255 298.26435088 87.80660288 298.2664675 72.6818471 298.26339328 C71.07061323 298.26307472 69.45937936 298.26276035 67.84814548 298.26245022 C67.05528154 298.26229594 66.26241759 298.26214167 65.44552746 298.26198272 C59.84447218 298.26111744 54.24342023 298.26258067 48.64236546 298.26492977 C41.82131566 298.26772752 35.00027737 298.26699005 28.1792289 298.26164903 C24.69563324 298.25901166 21.21205681 298.25800753 17.72846127 298.26129818 C13.96066331 298.26400634 10.19292046 298.26063267 6.42512608 298.2556181 C5.31201888 298.25784882 4.19891168 298.26007954 3.05207396 298.26237786 C2.05096508 298.25977011 1.0498562 298.25716236 0.01841068 298.25447559 C-1.28796345 298.25423207 -1.28796345 298.25423207 -2.62072897 298.25398362 C-4.5840292 298.12863445 -4.5840292 298.12863445 -5.5840292 297.12863445 C-5.68193398 295.55011261 -5.70958449 293.96719332 -5.70987034 292.38563824 C-5.71247809 291.3531788 -5.71508583 290.32071936 -5.7177726 289.25697327 C-5.71554188 288.10884753 -5.71331116 286.9607218 -5.71101284 285.77780437 C-5.71257283 284.56892402 -5.71413282 283.36004366 -5.71574008 282.11453056 C-5.71905343 278.74383518 -5.71784086 275.37319502 -5.71475387 272.00250292 C-5.71250167 268.37329029 -5.71597847 264.74408267 -5.71873379 261.11487103 C-5.72319242 253.99923536 -5.7222146 246.88361022 -5.71932115 239.76797414 C-5.71706748 233.98758911 -5.71675443 228.20720705 -5.71784496 222.42682171 C-5.7179982 221.60573899 -5.71815143 220.78465628 -5.71830931 219.93869227 C-5.71862901 218.27094753 -5.71895323 216.6032028 -5.7192819 214.93545806 C-5.72213696 199.27806997 -5.71884925 183.62068772 -5.71348153 167.96330059 C-5.70901347 154.51352613 -5.70978939 141.06376031 -5.71440029 127.61398602 C-5.71974559 112.01459168 -5.72186227 96.41520247 -5.71878803 80.81580734 C-5.71846946 79.15402063 -5.71815509 77.49223391 -5.71784496 75.8304472 C-5.71769069 75.01270626 -5.71753641 74.19496532 -5.71737746 73.35244435 C-5.71651217 67.57555912 -5.71797544 61.79867714 -5.72032452 56.02179241 C-5.72312222 48.9866456 -5.72238489 41.95150995 -5.71704377 34.91636443 C-5.71440635 31.32340457 -5.71340237 27.73046336 -5.71669292 24.13750362 C-5.72019818 20.25147993 -5.71602753 16.36548711 -5.71101284 12.47946453 C-5.71324356 11.3313388 -5.71547428 10.18321306 -5.7177726 9.00029564 C-5.71386098 7.45160648 -5.71386098 7.45160648 -5.70987034 5.87163067 C-5.70970799 4.97337472 -5.70954563 4.07511877 -5.70937836 3.14964294 C-5.47003683 -0.70926813 -3.35570994 0.00272541 0 0 Z M0.4159708 6.12863445 C0.4159708 71.13863445 0.4159708 136.14863445 0.4159708 203.12863445 C15.2659708 203.12863445 30.1159708 203.12863445 45.4159708 203.12863445 C49.3759708 203.78863445 53.3359708 204.44863445 57.4159708 205.12863445 C59.74791265 205.47156708 62.0805617 205.81016958 64.4159708 206.12863445 C64.61476952 202.10907727 64.75935521 198.09144526 64.85542393 194.06808758 C64.89548834 192.70202045 64.94996321 191.33629289 65.01948643 189.97140789 C65.68565473 182.03040736 65.68565473 182.03040736 62.75557041 175.0050993 C60.71219676 173.49383683 58.66388511 172.30708487 56.4159708 171.12863445 C54.89949506 169.79489522 53.41082069 168.42733836 51.9784708 167.00363445 C51.31975986 166.36168133 50.66104893 165.7197282 49.98237705 165.05832195 C48.34214235 163.03768369 47.81735357 161.67260975 47.4159708 159.12863445 C49.0659708 158.79863445 50.7159708 158.46863445 52.4159708 158.12863445 C52.86327549 158.6597282 53.31058018 159.19082195 53.77143955 159.73800945 C54.37600986 160.4444157 54.98058018 161.15082195 55.6034708 161.87863445 C56.19515049 162.5747282 56.78683018 163.27082195 57.39643955 163.98800945 C59.7653049 166.59848178 59.7653049 166.59848178 64.4159708 170.12863445 C64.7459708 161.87863445 65.0759708 153.62863445 65.4159708 145.12863445 C66.7359708 145.45863445 68.0559708 145.78863445 69.4159708 146.12863445 C69.9109708 153.55363445 69.9109708 153.55363445 70.4159708 161.12863445 C72.97880953 158.56579572 75.53747279 155.99527861 77.9784708 153.31613445 C80.4159708 151.12863445 80.4159708 151.12863445 84.4159708 151.12863445 C84.07467168 156.69763719 81.77398864 159.51097108 77.9784708 163.31613445 C72.52231849 168.95392564 70.11070658 172.0881172 70.2206583 180.0778532 C70.22490314 181.2367783 70.22490314 181.2367783 70.22923374 182.41911602 C70.24042202 184.88494688 70.26552377 187.35041351 70.2909708 189.81613445 C70.30100237 191.48865525 70.31012791 193.16118174 70.31831455 194.83371258 C70.34035688 198.93216005 70.37487718 203.03033551 70.4159708 207.12863445 C70.94778965 207.32657101 71.4796085 207.52450756 72.02754307 207.72844219 C72.73451328 207.99239285 73.4414835 208.2563435 74.16987705 208.52829266 C75.21510532 208.91800999 75.21510532 208.91800999 76.28144932 209.3156004 C78.31896527 210.09168528 80.33729412 210.90440184 82.3534708 211.7341032 C92.20385682 215.65039104 100.735019 217.16725526 111.4159708 216.12863445 C112.24709385 216.04935711 113.0782169 215.97007977 113.93452549 215.88840008 C135.06727811 213.701451 152.2114988 205.99552054 170.4784708 195.56613445 C202.21592752 177.56015828 234.22398599 174.24777075 270.07026768 179.85324383 C272.84998421 180.22580224 272.84998421 180.22580224 277.4159708 180.12863445 C277.4159708 171.87863445 277.4159708 163.62863445 277.4159708 155.12863445 C274.3015958 153.68488445 271.1872208 152.24113445 267.9784708 150.75363445 C238.08046247 136.61623059 204.51843144 115.26524864 184.3534708 88.37863445 C181.14206097 84.64925529 177.26892776 81.76999687 172.4003458 80.67550945 C166.36956029 80.34310395 161.17389081 82.86833756 156.57173252 86.64010906 C154.77683379 88.33978969 153.05677769 90.08727912 151.3534708 91.87863445 C150.74060215 92.50697186 150.1277335 93.13530926 149.49629307 93.78268719 C146.52810895 96.84589121 143.62875683 99.95098801 140.8534708 103.19113445 C131.47239717 114.13961939 120.46640836 125.60341567 107.4159708 132.12863445 C106.98293453 134.77597074 106.98293453 134.77597074 106.8534708 137.87863445 C106.66738827 140.96228784 106.49072987 143.81788892 105.7675333 146.82394695 C105.27969824 150.02197684 106.82793233 151.4178823 108.4784708 154.04269695 C110.59224906 158.74585357 110.1066358 164.29159515 108.9081583 169.21457195 C106.58064279 175.34102083 102.61827924 178.79991383 96.7909708 181.44113445 C91.35771437 183.46432904 86.15835632 183.73676903 80.4159708 183.12863445 C79.7559708 182.79863445 79.0959708 182.46863445 78.4159708 182.12863445 C78.4159708 180.80863445 78.4159708 179.48863445 78.4159708 178.12863445 C79.2615958 178.1750407 80.1072208 178.22144695 80.9784708 178.26925945 C88.01648712 178.49319634 93.66617208 178.51887486 99.4159708 174.12863445 C102.87947524 170.4875144 104.2848012 167.86663167 104.6659708 162.81613445 C104.31372178 157.62046142 102.25660558 154.38958662 99.4159708 150.12863445 C99.74922118 146.92943085 100.3988324 144.18004967 101.4159708 141.12863445 C102.22152945 134.64964136 101.52000957 130.1742237 97.9003458 124.72238445 C95.43224879 122.07242766 93.41440396 121.1792257 89.79487705 120.99582195 C88.40075596 120.99968914 88.40075596 120.99968914 86.9784708 121.00363445 C81.90563714 120.65378386 81.90563714 120.65378386 79.7987833 118.39425945 C79.00302772 116.96918082 78.23444658 115.52857982 77.4940958 114.07394695 C75.70543786 110.84658588 73.91519862 110.14659164 70.4159708 109.12863445 C64.44375983 108.31156187 59.08884586 108.08411218 53.9159708 111.50363445 C50.8487727 114.13176534 49.7315395 116.5123748 48.4784708 120.31613445 C46.97153174 124.82349681 46.97153174 124.82349681 44.3534708 126.26144695 C42.78284017 126.71093664 41.19984058 127.11943693 39.60737705 127.4841032 C36.31270747 128.45312367 34.58057137 130.55817128 32.4159708 133.12863445 C32.0859708 133.45863445 31.7559708 133.78863445 31.4159708 134.12863445 C30.87251666 140.35745502 30.84941485 144.85633434 34.4159708 150.12863445 C34.2049612 152.94209585 33.54999726 154.86058154 32.2909708 157.37863445 C30.98284241 161.4898951 31.20157921 164.99829097 32.4159708 169.12863445 C34.57667991 172.7457709 37.11079873 175.35258619 40.7284708 177.50363445 C44.59132987 178.40197377 48.46763049 178.80175661 52.4159708 179.12863445 C52.0859708 180.44863445 51.7559708 181.76863445 51.4159708 183.12863445 C44.01148562 183.58197028 38.93841932 182.5303039 32.6659708 178.25363445 C28.51435171 174.33266086 26.63684339 170.33385523 26.24800205 164.69113445 C26.24155674 163.84550945 26.23511143 162.99988445 26.2284708 162.12863445 C26.21429111 161.28300945 26.20011143 160.43738445 26.18550205 159.56613445 C26.4316852 156.96243477 27.19875666 155.41091097 28.4159708 153.12863445 C28.16840636 151.05501457 28.16840636 151.05501457 27.4159708 149.12863445 C25.45650134 143.25022606 25.62266703 136.5526182 27.5409708 130.69113445 C30.77412811 126.27248613 33.70882819 123.53371914 39.1034708 122.25363445 C40.1965958 121.88238445 41.2897208 121.51113445 42.4159708 121.12863445 C43.93190999 118.20490699 43.93190999 118.20490699 44.6190958 116.0700407 C46.52853514 111.41812231 49.94210072 108.02044018 54.18550205 105.4528532 C60.32459569 102.93634444 67.5941269 103.03835383 73.9628458 104.85519695 C78.84726627 107.11378236 81.99108895 110.27887074 84.4159708 115.12863445 C86.30011434 115.47147239 88.20027499 115.72810762 90.1034708 115.94113445 C97.07316225 116.99238245 99.86348883 118.98057336 104.2909708 124.44113445 C104.6622208 124.99800945 105.0334708 125.55488445 105.4159708 126.12863445 C115.38931054 122.58803829 122.90932538 113.93796866 130.18525791 106.56515789 C131.60731612 105.12473949 133.0373182 103.69258971 134.46870518 102.26144695 C139.14186925 97.55897384 143.6637647 92.79276195 147.98310947 87.76388836 C152.83453734 82.2271932 158.6394475 76.66988355 166.1737833 75.81613445 C174.98423409 75.46283317 179.87942166 76.89696023 186.3612833 82.8200407 C190.67930836 86.99720255 194.8228681 91.32101099 198.6659708 95.94113445 C201.88518401 99.79499255 205.56098927 102.92303725 209.4159708 106.12863445 C209.93884678 106.57448895 210.46172276 107.02034344 211.00044346 107.47970867 C227.43642385 121.48174952 245.32024293 133.09202257 264.4159708 143.12863445 C265.48331455 143.69711102 266.5506583 144.26558758 267.6503458 144.8512907 C272.29314401 147.39693006 272.29314401 147.39693006 277.4159708 148.12863445 C277.4159708 101.26863445 277.4159708 54.40863445 277.4159708 6.12863445 C186.0059708 6.12863445 94.5959708 6.12863445 0.4159708 6.12863445 Z M206.4159708 186.12863445 C205.2403458 186.39547039 204.0647208 186.66230633 202.8534708 186.9372282 C191.28378189 189.84256303 181.14135074 195.3422738 170.91987705 201.3278532 C159.32913015 208.09948383 148.38994745 213.61919862 135.4159708 217.12863445 C133.75501377 217.61396648 133.75501377 217.61396648 132.06050205 218.1091032 C125.22169883 219.9935341 118.49126544 220.76483384 111.4159708 221.12863445 C111.4159708 221.78863445 111.4159708 222.44863445 111.4159708 223.12863445 C111.93691319 223.39901531 112.45785557 223.66939617 112.99458408 223.94797039 C124.30177609 229.8244592 135.55691205 235.77758366 146.68989658 241.97922039 C155.77627225 246.99488599 164.9472957 251.31122134 174.9159708 254.25363445 C176.17715733 254.63092693 176.17715733 254.63092693 177.46382236 255.01584148 C186.31881592 257.55831544 195.29274356 258.95210967 204.4159708 260.12863445 C204.4159708 261.44863445 204.4159708 262.76863445 204.4159708 264.12863445 C196.30865306 264.62275991 189.23554065 263.15854536 181.4159708 261.12863445 C180.27386143 260.87340008 179.13175205 260.6181657 177.9550333 260.35519695 C156.69055252 255.32736961 137.97654193 243.6506869 119.2182169 232.86496258 C103.05502779 223.61943712 85.31328097 217.15692636 67.4159708 212.12863445 C66.25581455 211.79605633 66.25581455 211.79605633 65.0722208 211.45675945 C52.1519724 208.17700409 38.65802521 207.94948801 25.4159708 207.94113445 C24.18781651 207.94032879 22.95966221 207.93952312 21.69429111 207.93869305 C14.80605934 207.98084296 8.32789876 208.43744166 1.4159708 209.12863445 C1.4159708 236.51863445 1.4159708 263.90863445 1.4159708 292.12863445 C92.4959708 292.12863445 183.5759708 292.12863445 277.4159708 292.12863445 C277.4159708 257.47863445 277.4159708 222.82863445 277.4159708 187.12863445 C264.01145456 184.44773121 252.9318251 182.89221422 239.4784708 182.87863445 C238.78722111 182.87762737 238.09597141 182.87662029 237.38377476 182.8755827 C226.75793216 182.88605196 216.75938652 183.50875613 206.4159708 186.12863445 Z " fill="#111010" transform="translate(116.58402919769287,360.8713655471802)"/>
<path d="M0 0 C13.49723793 4.31131236 30.28139022 4.15459913 43.6015625 -0.58984375 C60.65199397 -6.37000217 76.57306045 -6.45718174 93.6105957 -0.74926758 C103.44996104 2.49765396 111.56971532 2.82255783 121.2890625 -1.08984375 C127.13772377 -3.40948229 132.19028647 -4.11330992 138.4765625 -4.15234375 C139.26119873 -4.16652344 140.04583496 -4.18070312 140.85424805 -4.1953125 C145.95800571 -4.10870722 149.50392477 -3.00967387 153.91601562 -0.43896484 C155.67792624 0.61453159 155.67792624 0.61453159 158.2265625 0.34765625 C160.70318262 -0.55915916 160.70318262 -0.55915916 163.20703125 -2.12109375 C167.40837363 -3.93893579 170.76616372 -4.08444505 175.2890625 -4.02734375 C176.09287354 -4.02412109 176.89668457 -4.02089844 177.72485352 -4.01757812 C182.24971786 -3.91182931 185.85017299 -3.44059525 190.0390625 -1.58984375 C202.23148853 3.66227823 216.59005006 0.60492006 228.6015625 -3.58984375 C243.13131429 -7.76467349 259.56857339 -4.0457866 273.58203125 0.34375 C289.59600521 5.06437138 305.7699688 2.93338766 321.25 -2.5234375 C328.25051548 -4.89092575 335.24202128 -5.50641665 342.6015625 -4.58984375 C346.83417038 -2.46751045 350.57368958 0.02060416 352.6015625 4.41015625 C353.77146848 12.6104318 352.28309315 19.71743937 349.6015625 27.41015625 C349.04367516 29.32216451 348.50215641 31.23901989 347.9765625 33.16015625 C347.73679687 34.02125 347.49703125 34.88234375 347.25 35.76953125 C343.31365213 51.799478 345.51292223 66.07782669 350.91796875 81.36523438 C355.56643453 95.27078773 354.86440599 110.99183233 350.1328125 124.71875 C344.84119928 140.16704976 343.66991432 151.70805981 350.19140625 167.046875 C353.16304906 174.13436659 353.98020173 181.81051445 351.7421875 189.27734375 C351.0564983 190.95181666 350.33715327 192.61318686 349.57421875 194.25390625 C348.60981831 196.39185421 347.85690457 198.07560016 347.6015625 200.41015625 C348.58259423 202.64551454 348.58259423 202.64551454 350.0390625 204.91015625 C353.94759281 212.46372044 353.73412057 218.95636723 351.28125 227 C350.25491031 230.16012122 349.15154329 233.28550553 348.01171875 236.40625 C343.88483917 247.79922573 345.28986778 258.77855908 349.5859375 269.97583008 C352.53277306 277.91321059 353.21242515 284.91747589 353.1015625 293.34765625 C353.11703125 294.52005859 353.1325 295.69246094 353.1484375 296.90039062 C353.11109937 305.35281035 351.47254871 312.48767936 348.6015625 320.41015625 C342.89125329 336.45644415 344.66760786 352.11834065 350.11083984 367.9753418 C352.66895792 375.57093463 354.58892157 383.36183222 350.9140625 390.84765625 C345.22706694 397.14946214 345.22706694 397.14946214 340.2890625 397.94140625 C331.42505059 397.8662875 323.98116356 396.38081533 315.6015625 393.41015625 C297.53965512 387.08981091 279.26749202 389.8675353 261.57519531 395.7668457 C249.14382978 399.81888036 234.87887264 398.29485904 222.6640625 394.41015625 C210.1594903 390.45251887 200.82089098 389.73930594 188.44140625 395.21875 C179.6246673 398.91765699 171.8410669 397.91574357 163.1796875 394.3828125 C160.60512934 393.41150192 158.34020461 392.697961 155.6015625 392.41015625 C154.5084375 393.04953125 153.4153125 393.68890625 152.2890625 394.34765625 C145.6101529 397.9314614 136.82348489 397.70413892 129.55029297 395.90185547 C127.52958433 395.27953401 125.53371807 394.61136417 123.5390625 393.91015625 C111.19553884 389.57936005 100.68760868 390.78070581 88.6015625 395.41015625 C74.46534383 400.17458551 59.49019304 397.48455108 45.6015625 393.41015625 C28.71826081 388.87810852 12.23271419 388.88623801 -4.3984375 394.41015625 C-12.33915689 396.96100562 -20.02103578 398.78983374 -28.3984375 397.41015625 C-32.76468657 395.12729506 -35.56578362 391.9749776 -37.3984375 387.41015625 C-38.96255172 377.21871728 -35.49105157 367.94243137 -32.3984375 358.41015625 C-27.24425841 342.38083641 -31.27241572 325.5496421 -36.546875 310.03125 C-37.76040419 304.8709676 -37.68768463 299.8796658 -37.6484375 294.59765625 C-37.65617187 293.56833984 -37.66390625 292.53902344 -37.671875 291.47851562 C-37.64802888 282.05333664 -36.1499737 273.96679452 -32.7734375 265.16015625 C-28.35023402 252.37968109 -30.23017602 243.066061 -34.88305664 230.81835938 C-37.83307562 222.81695901 -39.4456025 215.09020011 -36.4453125 206.765625 C-35.73669191 205.26105381 -35.00199021 203.7683143 -34.234375 202.29296875 C-32.92598634 199.34603727 -33.41832959 197.41582051 -34.3984375 194.41015625 C-34.9140625 193.44078125 -35.4296875 192.47140625 -35.9609375 191.47265625 C-40.65437995 180.62349279 -36.82775779 169.86832325 -32.90893555 159.55639648 C-30.57606159 153.30704523 -29.36709106 148.10293634 -30.3984375 141.41015625 C-30.51960938 140.54132813 -30.64078125 139.6725 -30.765625 138.77734375 C-31.64652468 133.60012633 -33.2959366 129.22838748 -35.3984375 124.41015625 C-37.65242928 117.13240435 -37.78348267 109.85075844 -37.7734375 102.28515625 C-37.77255127 101.08971191 -37.77166504 99.89426758 -37.77075195 98.66259766 C-37.6393441 88.83702537 -36.16592704 80.56427477 -32.60766602 71.3659668 C-30.50764234 65.63709219 -29.89046353 60.55690876 -29.9609375 54.47265625 C-29.96633545 53.56749268 -29.9717334 52.6623291 -29.97729492 51.72973633 C-30.207599 41.30415272 -32.09904231 31.03389887 -36.0078125 21.34765625 C-37.45573091 17.59336796 -37.83144421 14.27110799 -37.8359375 10.22265625 C-37.85527344 9.05347656 -37.87460937 7.88429688 -37.89453125 6.6796875 C-37.14889127 1.76550904 -34.90804674 -0.47297838 -30.99609375 -3.3671875 C-21.1290328 -8.0113831 -9.61640678 -3.16866457 0 0 Z M43.94921875 5.90234375 C36.48401396 8.033928 29.3990991 9.80299529 21.6015625 9.78515625 C20.88025146 9.78427002 20.15894043 9.78338379 19.41577148 9.7824707 C9.38033706 9.56848861 -0.18589797 6.85510094 -9.6484375 3.66015625 C-15.35046167 1.88684633 -21.50903822 1.39666884 -27.3984375 2.41015625 C-29.9176355 3.87203971 -29.9176355 3.87203971 -31.3984375 6.41015625 C-32.08345528 11.98525148 -30.68019783 16.76008853 -29.0859375 22.03515625 C-28.62598744 23.63755765 -28.16766156 25.24042612 -27.7109375 26.84375 C-27.48664063 27.62347168 -27.26234375 28.40319336 -27.03125 29.20654297 C-22.11470548 46.32719529 -21.67001737 62.92861248 -28.3984375 79.64453125 C-33.77700079 94.51962035 -32.96871493 110.35244232 -27.8984375 125.16015625 C-22.80209031 140.18283822 -22.67270114 152.17818172 -28.24267578 167.03735352 C-31.09872601 174.78838047 -31.94688249 182.13349865 -29.0859375 190.03515625 C-27.53272551 192.39270907 -27.53272551 192.39270907 -25.7109375 193.97265625 C-24.3984375 195.41015625 -24.3984375 195.41015625 -23.9609375 197.78515625 C-24.5356027 201.23314742 -26.12469086 202.8020351 -28.3984375 205.41015625 C-31.62720168 210.59436916 -30.93577126 216.53146905 -30.3984375 222.41015625 C-29.34541538 226.85569773 -27.90080796 231.1004366 -26.3984375 235.41015625 C-22.44628381 247.68855543 -23.62517697 258.16944418 -27.8984375 270.03515625 C-34.7914884 289.76520343 -31.59878671 306.65169296 -25.13623047 326.05883789 C-20.78654017 339.92113679 -23.70342109 355.28802076 -28.5859375 368.59765625 C-30.61795925 374.39558702 -31.64623955 380.31794623 -30.3984375 386.41015625 C-28.4394371 389.05346501 -27.23350948 390.21165553 -24.015625 390.9765625 C-14.9717201 390.96367944 -7.00852272 388.53930455 1.57763672 385.99560547 C20.09753216 380.63846322 38.13902627 383.74841465 56.15234375 389.5546875 C60.56705335 390.64961548 64.69501576 390.75121369 69.2265625 390.72265625 C70.10449463 390.71991699 70.98242676 390.71717773 71.88696289 390.71435547 C79.74090891 390.58910695 87.6528845 389.81903655 94.81640625 386.33203125 C99.08156443 384.92028184 103.26158695 385.0284798 107.7265625 385.03515625 C108.66636963 385.03459229 109.60617676 385.03402832 110.57446289 385.03344727 C117.62809429 385.14519643 123.18955265 386.44051085 129.6015625 389.41015625 C132.57470718 390.23904374 132.57470718 390.23904374 135.6015625 390.41015625 C136.43429688 390.48492188 137.26703125 390.5596875 138.125 390.63671875 C144.32788133 390.95960846 147.84373481 390.19041865 152.90234375 386.609375 C155.25413334 384.94960625 156.69759259 384.26123472 159.6015625 384.41015625 C161.51982768 385.53804491 163.22421356 386.78325372 164.953125 388.18359375 C170.04807851 391.97462551 177.62713551 390.99821503 183.6015625 390.41015625 C186.50458528 389.34099096 186.50458528 389.34099096 189.2265625 387.91015625 C202.15759701 381.93276414 216.11092103 385.17857133 229.09326172 389.25048828 C244.11480828 393.86538983 256.92977946 390.49844497 271.6015625 386.41015625 C289.72343156 381.42712888 306.39802144 383.25823074 323.9765625 389.09765625 C332.64703111 392.01939761 332.64703111 392.01939761 341.6015625 391.41015625 C344.26515366 389.38452311 345.43764342 388.18877189 346.1328125 384.88671875 C346.02941521 375.45171616 343.61129784 367.10793222 340.48828125 358.25390625 C339.250134 352.88678336 339.27267418 347.71274235 339.2890625 342.22265625 C339.27294922 341.16240234 339.25683594 340.10214844 339.24023438 339.00976562 C339.23397829 328.74352973 341.41707216 319.73015745 345.6015625 310.41015625 C348.66865359 297.39757127 347.62821876 283.67960389 343.1015625 271.22265625 C337.85065471 256.56610399 337.63803397 243.91511985 343.44140625 229.44042969 C346.05271905 222.788554 346.86694891 216.52566242 345.6015625 209.41015625 C344.53449652 207.01871759 343.35935717 205.10529075 341.78125 203.0234375 C339.81521961 200.33479329 339.6015625 197.6468396 339.6015625 194.41015625 C340.2203125 194.18328125 340.8390625 193.95640625 341.4765625 193.72265625 C344.30306833 191.97687324 344.60516382 190.54925298 345.6015625 187.41015625 C346.33271574 179.61477248 345.72661879 172.26047558 342.578125 165.07421875 C337.32954536 152.67863705 338.61709272 139.04746712 342.6015625 126.41015625 C343.08882813 125.21422852 343.08882813 125.21422852 343.5859375 123.99414062 C346.36735966 117.04555206 347.23892872 111.12150217 347.1015625 103.66015625 C347.09165283 102.6139209 347.08174316 101.56768555 347.0715332 100.48974609 C346.84806584 91.11279533 344.97871651 83.05538224 341.81738281 74.21801758 C339.53978479 67.39547681 338.98910197 61.01866572 338.9765625 53.84765625 C338.96979492 52.10101685 338.96979492 52.10101685 338.96289062 50.3190918 C339.16709318 39.50583727 341.71552426 29.92639574 345.0703125 19.7109375 C346.55079282 15.03461866 347.07271305 11.29903605 346.6015625 6.41015625 C344.39415569 3.44157468 343.11558877 2.58149834 339.6015625 1.41015625 C332.84436004 0.70262729 327.19022898 2.13872702 320.8515625 4.34765625 C319.21169674 4.90069392 317.57109123 5.45154384 315.9296875 6 C314.86089355 6.36919556 314.86089355 6.36919556 313.77050781 6.74584961 C297.0821126 11.85718723 276.64743559 8.98426484 260.4375 3.30078125 C254.74768819 1.97972515 249.17368265 2.04151922 243.3515625 2.03515625 C241.60552734 1.99841797 241.60552734 1.99841797 239.82421875 1.9609375 C232.90665327 1.9376982 227.39671711 2.73937507 221.01269531 5.45068359 C209.55962177 10.00825539 196.89458531 7.9873333 185.890625 3.53515625 C179.5840258 1.37802968 172.84823001 1.24255684 166.6015625 3.72265625 C163.64451402 5.27040277 163.64451402 5.27040277 161.4765625 7.16015625 C159.6015625 8.41015625 159.6015625 8.41015625 157.1015625 8.28515625 C154.4375325 7.35274575 152.83849824 6.10480454 150.6015625 4.41015625 C141.63296885 0.88448242 132.7003542 1.27803594 123.8515625 4.91015625 C111.57582667 9.67570887 100.30031328 8.25581023 87.9765625 4.41015625 C72.05592229 -0.52845022 59.79313925 1.36606037 43.94921875 5.90234375 Z " fill="#161515" transform="translate(98.3984375,315.58984375)"/>
<path d="M0 0 C8.57032764 -0.0101131 17.14061993 -0.02782031 25.7109279 -0.04852492 C36.30045037 -0.07386911 46.88992075 -0.08815992 57.4794746 -0.08864164 C62.98828246 -0.08913175 68.49697699 -0.0945243 74.00575823 -0.11240393 C79.11145295 -0.12875055 84.2169568 -0.1311498 89.32266837 -0.12238401 C91.18838049 -0.12163425 93.05410266 -0.12603111 94.9197889 -0.13588732 C97.45259085 -0.14849324 99.98469644 -0.14279245 102.51749223 -0.13229567 C103.25722387 -0.1403519 103.9969555 -0.14840812 104.75910324 -0.15670848 C109.67812785 -0.10871482 109.67812785 -0.10871482 111.85996133 1.40775597 C113.68960871 3.95432377 113.54783231 5.72352122 113.54766363 8.84619039 C113.55487017 10.02135105 113.56207672 11.19651172 113.56950164 12.40728331 C113.56212735 13.70453917 113.55475307 15.00179503 113.54715532 16.33836168 C113.54989433 17.72546149 113.55394504 19.11255923 113.55919898 20.49965179 C113.56981801 24.32002227 113.56163619 28.14015989 113.55044848 31.96052033 C113.54162851 36.07711924 113.55004355 40.19368695 113.55631059 44.31028551 C113.56581329 52.37785503 113.55918606 60.4453353 113.54704765 68.51289821 C113.53344812 77.90009503 113.53506368 87.28727043 113.53718098 96.67447459 C113.54037297 113.41844796 113.52869078 130.16237882 113.50911516 146.90633959 C113.49010706 163.16904807 113.48302814 179.43170673 113.48860735 195.69442552 C113.49465931 213.38761096 113.49449901 231.08077447 113.48312151 248.77395809 C113.48191417 250.65900665 113.48070819 252.54405522 113.47950357 254.42910379 C113.47859826 255.82046579 113.47859826 255.82046579 113.47767467 257.2399361 C113.47378858 263.78982745 113.4741918 270.33971066 113.47608942 276.8896026 C113.47820719 284.86634832 113.47301905 292.84305032 113.45847587 300.8197837 C113.45121111 304.89288272 113.44717248 308.96591793 113.45171922 313.03902239 C113.45577496 316.76272577 113.45068963 320.48629699 113.43809315 324.20998024 C113.43374628 326.20560149 113.43927853 328.20123657 113.44508243 330.19685411 C113.43925023 331.36940703 113.43341804 332.54195994 113.42740911 333.75004476 C113.42654234 334.76834735 113.42567556 335.78664994 113.42478251 336.83581018 C113.17293352 339.23519701 113.17293352 339.23519701 111.17293352 341.23519701 C108.84177768 341.48474467 108.84177768 341.48474467 105.85398573 341.48408598 C104.15078229 341.49098417 104.15078229 341.49098417 102.4131707 341.49802172 C101.1551203 341.49287816 99.89706991 341.4877346 98.60089678 341.48243517 C97.25932196 341.48402213 95.91774794 341.48648461 94.57617617 341.48975158 C90.87707537 341.49618923 87.17808335 341.49007839 83.47898966 341.4819873 C79.49464306 341.47542863 75.51030899 341.48035475 71.52596086 341.48386949 C63.71595139 341.48891989 55.90598415 341.48325945 48.09597992 341.47401919 C39.01012597 341.46365429 29.92428124 341.46370487 20.83842248 341.46419177 C4.63294131 341.4646928 -11.57252015 341.45551961 -27.77799422 341.44100755 C-43.52083641 341.42691699 -59.26366125 341.41983685 -75.00650984 341.42049974 C-76.46103391 341.42055968 -76.46103391 341.42055968 -77.9449423 341.42062082 C-79.39689504 341.42068135 -79.39689504 341.42068135 -80.87818015 341.42074311 C-98.77576659 341.42143213 -116.67334562 341.41554787 -134.57092967 341.40658989 C-140.91188402 341.40356765 -147.25283702 341.40250964 -153.59379202 341.40205759 C-161.31512515 341.40137696 -169.03644581 341.3969333 -176.75777365 341.38772478 C-180.70110967 341.3830932 -184.64442968 341.38006627 -188.58776861 341.38131899 C-192.19176242 341.38240843 -195.79572073 341.37893019 -199.39970713 341.37167046 C-201.33348534 341.36897736 -203.26726844 341.37122633 -205.20104706 341.37360251 C-206.33390828 341.37037806 -207.46676949 341.36715362 -208.63395983 341.36383146 C-210.11267332 341.36277482 -210.11267332 341.36277482 -211.62125981 341.36169684 C-213.82706648 341.23519701 -213.82706648 341.23519701 -214.82706648 340.23519701 C-214.92544064 338.43775629 -214.95262273 336.63640193 -214.95290762 334.83627123 C-214.95681924 333.06812814 -214.95681924 333.06812814 -214.96080989 331.264265 C-214.95857916 329.95271944 -214.95634844 328.64117388 -214.95405012 327.28988451 C-214.95520098 325.89555121 -214.95678827 324.50121821 -214.95877737 323.10688585 C-214.96297553 319.25733571 -214.96087782 315.40781017 -214.95779115 311.5582599 C-214.95553924 307.41370529 -214.95901562 303.26915506 -214.96177107 299.1246013 C-214.96623001 290.99830041 -214.96525175 282.87200872 -214.96235843 274.74570745 C-214.96010488 268.14438419 -214.95979166 261.54306351 -214.96088225 254.94173998 C-214.96103548 254.00409209 -214.96118871 253.0664442 -214.96134659 252.10038275 C-214.9616663 250.19588401 -214.96199051 248.29138527 -214.96231918 246.38688654 C-214.96517433 228.50622354 -214.9618864 210.62556566 -214.95651881 192.7449035 C-214.95205074 177.38489461 -214.95282667 162.02489327 -214.95743757 146.66488451 C-214.96278271 128.85050641 -214.96489964 111.0361328 -214.96182531 93.22175401 C-214.96150674 91.32405402 -214.96119237 89.42635403 -214.96088225 87.52865404 C-214.96072797 86.59482047 -214.9605737 85.6609869 -214.96041474 84.69885534 C-214.95954941 78.10143038 -214.96101282 71.50400825 -214.9633618 64.90658373 C-214.96615933 56.87231743 -214.96542254 48.83806092 -214.96008106 40.80379575 C-214.9574434 36.70046952 -214.95644005 32.59715962 -214.95973021 28.49383348 C-214.96269187 24.74361917 -214.96110256 20.99343645 -214.95575266 17.24322504 C-214.95409168 15.23085968 -214.95738719 13.21849215 -214.96080989 11.20612901 C-214.95820214 10.02736696 -214.95559439 8.84860491 -214.95290762 7.63412279 C-214.95274527 6.60828081 -214.95258292 5.58243883 -214.95241565 4.52551073 C-214.82706648 2.23519701 -214.82706648 2.23519701 -213.82706648 1.23519701 C-211.4747535 1.10884754 -209.15070459 1.04892383 -206.7965489 1.02987474 C-206.04004199 1.01998647 -205.28353508 1.01009821 -204.50410372 0.9999103 C-201.89694736 0.96758323 -199.28977882 0.94301825 -196.68253523 0.91879076 C-194.75341542 0.89779722 -192.82429764 0.87661652 -190.89518172 0.85526842 C-184.26838676 0.78494601 -177.64149753 0.72843917 -171.01456648 0.67269701 C-169.86673815 0.66265138 -168.71890982 0.65260576 -167.53629881 0.64225572 C-111.69242761 0.15463311 -55.84567823 0.06149746 0 0 Z M-208.82706648 7.23519701 C-208.82706648 115.14519701 -208.82706648 223.05519701 -208.82706648 334.23519701 C-165.41144148 334.40019701 -121.99581648 334.56519701 -77.26456648 334.73519701 C-63.64876326 334.78740404 -50.03296004 334.83961107 -36.00455672 334.89340013 C-23.60313656 334.94008707 -23.60313656 334.94008707 -11.20171553 334.98653978 C-5.75627922 335.00694324 -0.31084497 335.02781539 5.13458818 335.04903978 C11.46513915 335.0737123 17.79569229 335.0977191 24.12624848 335.1210157 C27.3415004 335.13286623 30.5567503 335.14504809 33.77199847 335.15788168 C58.23922531 335.25521307 82.7051229 335.23519701 107.17293352 335.23519701 C107.17293352 226.99519701 107.17293352 118.75519701 107.17293352 7.23519701 C2.89293352 7.23519701 -101.38706648 7.23519701 -208.82706648 7.23519701 Z " fill="#0C0C0B" transform="translate(306.82706648111343,339.7648029923439)"/>
<path d="M0 0 C8.57032764 -0.0101131 17.14061993 -0.02782031 25.7109279 -0.04852492 C36.30045037 -0.07386911 46.88992075 -0.08815992 57.4794746 -0.08864164 C62.98828246 -0.08913175 68.49697699 -0.0945243 74.00575823 -0.11240393 C79.11145295 -0.12875055 84.2169568 -0.1311498 89.32266837 -0.12238401 C91.18838049 -0.12163425 93.05410266 -0.12603111 94.9197889 -0.13588732 C97.45259085 -0.14849324 99.98469644 -0.14279245 102.51749223 -0.13229567 C103.25722387 -0.1403519 103.9969555 -0.14840812 104.75910324 -0.15670848 C109.70175071 -0.10848434 109.70175071 -0.10848434 111.86031049 1.46597195 C113.55894186 3.75548015 113.54593685 5.07774877 113.542077 7.91473478 C113.54805015 8.88212511 113.5540233 9.84951543 113.56017745 10.84622061 C113.55143892 11.91138382 113.5427004 12.97654702 113.53369707 14.0739879 C113.53626034 15.20361163 113.53882362 16.33323535 113.54146457 17.4970901 C113.54642657 21.30210644 113.52986931 25.10673058 113.51350969 28.91171068 C113.51099571 31.631333 113.51300527 34.35094752 113.51483721 37.07056993 C113.51641176 42.93590895 113.50698362 48.80114801 113.49012369 54.66646188 C113.46576283 63.14674844 113.45793141 71.62698656 113.45415971 80.10730431 C113.44759065 93.86537604 113.42761715 107.62339446 113.39925188 121.38143724 C113.37172308 134.74764546 113.35048373 148.11383922 113.33772844 161.48007005 C113.33694027 162.30369266 113.3361521 163.12731527 113.33534005 163.97589614 C113.33142499 168.10768781 113.32763385 172.23947959 113.32390434 176.37127143 C113.29279425 210.65928499 113.23994608 244.94723525 113.17293352 279.23519701 C112.84293352 279.23519701 112.51293352 279.23519701 112.17293352 279.23519701 C111.13130122 239.5285061 111.08460266 199.8283639 111.11043352 160.11019701 C111.11085775 159.44782518 111.11128198 158.78545335 111.11171907 158.10300964 C111.12297672 140.81372524 111.14366927 123.52446002 111.17293352 106.23519701 C110.18293352 106.23519701 109.19293352 106.23519701 108.17293352 106.23519701 C106.43840355 73.27912751 107.17293352 40.23688047 107.17293352 7.23519701 C2.89293352 7.23519701 -101.38706648 7.23519701 -208.82706648 7.23519701 C-208.82706648 27.69519701 -208.82706648 48.15519701 -208.82706648 69.23519701 C-208.99140016 91.96946476 -208.99140016 91.96946476 -209.14444929 102.26327318 C-209.1966753 105.78535209 -209.23515011 109.3074768 -209.27165228 112.82974905 C-209.30291529 115.64620698 -209.3427576 118.46249401 -209.38512999 121.27880472 C-209.41202488 123.20039791 -209.4301814 125.1221073 -209.44800764 127.04380602 C-209.46787733 128.18470186 -209.48774702 129.3255977 -209.50821882 130.50106615 C-209.52154249 131.49320619 -209.53486616 132.48534624 -209.54859358 133.50755113 C-209.84399686 136.40103031 -210.62166788 138.60120496 -211.82706648 141.23519701 C-212.15706648 141.23519701 -212.48706648 141.23519701 -212.82706648 141.23519701 C-213.15706648 165.98519701 -213.48706648 190.73519701 -213.82706648 216.23519701 C-214.15706648 216.23519701 -214.48706648 216.23519701 -214.82706648 216.23519701 C-214.8503919 188.35033463 -214.86804389 160.4654737 -214.87887865 132.58060354 C-214.88404237 119.63416589 -214.89108651 106.68773429 -214.90250593 93.74130052 C-214.91245046 82.46164628 -214.91891935 71.18199641 -214.92115498 59.90233791 C-214.92246248 53.92583795 -214.92555081 47.94935051 -214.93279654 41.97285455 C-214.93955311 36.3546362 -214.94168419 30.73643562 -214.94017416 25.11821359 C-214.94045066 23.04972163 -214.94245792 20.98122911 -214.94627196 18.91274065 C-214.95120354 16.10171118 -214.95006676 13.29074995 -214.947321 10.4797191 C-214.95023384 9.64996901 -214.95314668 8.82021891 -214.95614779 7.96532488 C-214.94118769 2.34931822 -214.94118769 2.34931822 -213.82706648 1.23519701 C-211.4747535 1.10884754 -209.15070459 1.04892383 -206.7965489 1.02987474 C-206.04004199 1.01998647 -205.28353508 1.01009821 -204.50410372 0.9999103 C-201.89694736 0.96758323 -199.28977882 0.94301825 -196.68253523 0.91879076 C-194.75341542 0.89779722 -192.82429764 0.87661652 -190.89518172 0.85526842 C-184.26838676 0.78494601 -177.64149753 0.72843917 -171.01456648 0.67269701 C-169.86673815 0.66265138 -168.71890982 0.65260576 -167.53629881 0.64225572 C-111.69242761 0.15463311 -55.84567823 0.06149746 0 0 Z " fill="#111010" transform="translate(306.82706648111343,339.7648029923439)"/>
<path d="M0 0 C3.69230769 0.69230769 3.69230769 0.69230769 5 2 C5.23527773 4.34987262 5.41386417 6.70556039 5.5625 9.0625 C5.64628906 10.35285156 5.73007813 11.64320313 5.81640625 12.97265625 C5.87699219 13.97167969 5.93757813 14.97070312 6 16 C6.59167969 15.26652344 7.18335938 14.53304687 7.79296875 13.77734375 C8.58316406 12.84019531 9.37335938 11.90304687 10.1875 10.9375 C10.96480469 9.99777344 11.74210937 9.05804687 12.54296875 8.08984375 C15 6 15 6 17.80078125 6.19140625 C18.52652344 6.45824219 19.25226563 6.72507812 20 7 C19.65870088 12.56900273 17.35801784 15.38233663 13.5625 19.1875 C8.10634768 24.82529119 5.69473577 27.95948275 5.8046875 35.94921875 C5.80893234 37.10814384 5.80893234 37.10814384 5.81326294 38.29048157 C5.82445122 40.75631243 5.84955297 43.22177906 5.875 45.6875 C5.88503157 47.36002079 5.89415711 49.03254728 5.90234375 50.70507812 C5.92438608 54.80352559 5.95890637 58.90170106 6 63 C6.8768042 63.26264648 7.7536084 63.52529297 8.65698242 63.79589844 C9.81560791 64.1468457 10.9742334 64.49779297 12.16796875 64.859375 C13.31289795 65.20452148 14.45782715 65.54966797 15.63745117 65.90527344 C18.62028008 66.87637667 21.44289423 67.99042238 24.3125 69.25 C41.8199915 75.62323072 66.57253443 69.61710827 82.88330078 62.13623047 C90.4681599 58.57852996 97.79001923 54.58966653 105.0625 50.4375 C135.3306914 33.26509901 166.62622293 28.95430795 201 34 C200.01 34.66 199.02 35.32 198 36 C198.33 36.66 198.66 37.32 199 38 C198.34 38 197.68 38 197 38 C197 38.66 197 39.32 197 40 C195.9076001 39.98428955 194.8152002 39.9685791 193.68969727 39.95239258 C189.55028972 39.89717827 185.41091296 39.86332531 181.27124023 39.83520508 C179.49579354 39.82032301 177.7203822 39.8000108 175.94506836 39.77368164 C150.09456951 39.40052131 127.86691763 45.10369218 105.50390625 58.19921875 C93.90501599 64.97560695 82.97070401 70.4616317 70 74 C68.33904297 74.50273438 68.33904297 74.50273438 66.64453125 75.015625 C59.68748793 76.99563733 53.21045239 77.34518123 46 77 C46 77.66 46 78.32 46 79 C46.87438721 79.27005859 47.74877441 79.54011719 48.6496582 79.81835938 C51.85049416 80.9472704 54.63189964 82.27997951 57.60546875 83.90625 C59.19041138 84.76778687 59.19041138 84.76778687 60.80737305 85.64672852 C61.92281494 86.25830811 63.03825684 86.8698877 64.1875 87.5 C65.94332659 88.45139395 67.6991553 89.40278424 69.45539856 90.35340881 C73.25213945 92.41005483 77.04446809 94.47455643 80.828125 96.55517578 C95.91033703 104.84753592 109.90490593 110.03981055 127 113 C128.19109375 113.20625 129.3821875 113.4125 130.609375 113.625 C133.40425075 114.09737337 136.20036474 114.55685475 139 115 C139.38218767 116.65614657 139.71395102 118.32457024 140 120 C138.4339652 121.5660348 136.92801089 121.20784495 134.75 121.25 C128.23875571 121.17611354 122.27276024 119.62836891 116 118 C114.85789062 117.74476563 113.71578125 117.48953125 112.5390625 117.2265625 C91.27458172 112.19873516 72.56057112 100.52205245 53.80224609 89.73632812 C37.63905698 80.49080267 19.89731016 74.0282919 2 69 C1.2265625 68.77828125 0.453125 68.5565625 -0.34375 68.328125 C-20.83723225 63.12593335 -43.39971675 65 -64 65 C-64 92.39 -64 119.78 -64 148 C-64.33 148 -64.66 148 -65 148 C-65.33 120.94 -65.66 93.88 -66 66 C-66.66 66.99 -67.32 67.98 -68 69 C-69.5635348 65.87293041 -69.39958487 62.42017557 -69 59 C-68.34 58.01 -67.68 57.02 -67 56 C-67 56.99 -67 57.98 -67 59 C-65.79754639 58.75769653 -65.79754639 58.75769653 -64.57080078 58.51049805 C-60.3062485 57.90081811 -56.16868386 57.83781093 -51.8671875 57.83203125 C-50.99409943 57.82870285 -50.12101135 57.82537445 -49.22146606 57.82194519 C-47.37746708 57.81689773 -45.53345901 57.81453619 -43.68945312 57.81469727 C-40.90478949 57.81252326 -38.12053053 57.79437873 -35.3359375 57.77539062 C-23.30751858 57.73643273 -12.63176528 58.67663849 -1 62 C-1 52.43 -1 42.86 -1 33 C-2.65 32.34 -4.3 31.68 -6 31 C-7.65332031 29.73486328 -7.65332031 29.73486328 -9.078125 28.3203125 C-9.85929687 27.54494141 -9.85929687 27.54494141 -10.65625 26.75390625 C-11.1821875 26.21636719 -11.708125 25.67882812 -12.25 25.125 C-12.79140625 24.59519531 -13.3328125 24.06539062 -13.890625 23.51953125 C-18.57776643 18.79723626 -18.57776643 18.79723626 -19 15 C-18.34 14.34 -17.68 13.68 -17 13 C-13.89592946 13.17188664 -12.39926766 13.63658495 -10.0859375 15.7421875 C-9.52132812 16.44601562 -8.95671875 17.14984375 -8.375 17.875 C-6.33572388 20.37565081 -4.29980552 22.73717143 -2 25 C-1.96241577 23.91730835 -1.96241577 23.91730835 -1.92407227 22.81274414 C-1.80848698 19.562465 -1.68559226 16.31250312 -1.5625 13.0625 C-1.52318359 11.92619141 -1.48386719 10.78988281 -1.44335938 9.61914062 C-1.40146484 8.53955078 -1.35957031 7.45996094 -1.31640625 6.34765625 C-1.27974854 5.34742432 -1.24309082 4.34719238 -1.20532227 3.31665039 C-1 1 -1 1 0 0 Z " fill="#131312" transform="translate(182,505)"/>
<path d="M0 0 C27.58953623 -0.07000708 55.17905919 -0.12294742 82.76866627 -0.15543652 C95.57831093 -0.17092112 108.38790047 -0.19204104 121.19750977 -0.22631836 C132.35925621 -0.25617197 143.52096276 -0.2755634 154.68274802 -0.28226548 C160.5956403 -0.28618459 166.50841841 -0.29542806 172.42127419 -0.31719017 C177.98208247 -0.33749154 183.54272911 -0.34384669 189.10357094 -0.33932304 C191.14865496 -0.3401511 193.19374417 -0.34615437 195.23879623 -0.35761642 C198.02303088 -0.37246121 200.80664879 -0.36898304 203.59089661 -0.36076355 C204.40703912 -0.36950207 205.22318164 -0.3782406 206.06405574 -0.38724393 C211.52362588 -0.34343887 211.52362588 -0.34343887 213.70693016 1.23060036 C215.38039944 3.52052767 215.37298502 4.85601031 215.36914349 7.67953777 C215.37511663 8.6469281 215.38108978 9.61431842 215.38724393 10.6110236 C215.3785054 11.67618681 215.36976688 12.74135002 215.36076355 13.83879089 C215.36332682 14.96841462 215.3658901 16.09803835 215.36853105 17.26189309 C215.37349305 21.06690943 215.35693579 24.87153357 215.34057617 28.67651367 C215.33806219 31.396136 215.34007176 34.11575052 215.34190369 36.83537292 C215.34347824 42.70071195 215.3340501 48.565951 215.31719017 54.43126488 C215.29282931 62.91155143 215.28499789 71.39178955 215.2812262 79.8721073 C215.27465713 93.63017903 215.25468363 107.38819746 215.22631836 121.14624023 C215.19878956 134.51244845 215.17755022 147.87864221 215.16479492 161.24487305 C215.16400675 162.06849566 215.16321858 162.89211826 215.16240653 163.74069913 C215.15849147 167.87249081 215.15470033 172.00428258 215.15097082 176.13607442 C215.11986073 210.42408798 215.06701256 244.71203825 215 279 C214.67 279 214.34 279 214 279 C212.9583677 239.29330909 212.91166915 199.5931669 212.9375 159.875 C212.93792423 159.21262817 212.93834846 158.55025634 212.93878555 157.86781263 C212.9500432 140.57852823 212.97073575 123.28926301 213 106 C212.01 106 211.02 106 210 106 C208.26547003 73.0439305 209 40.00168346 209 7 C122.87 7 36.74 7 -52 7 C-52 6.67 -52 6.34 -52 6 C-41.31260798 5.84592838 -30.62509658 5.70159574 -19.9375 5.5625 C-19.09100513 5.55147877 -18.24451027 5.54045753 -17.37236404 5.52910233 C22.27136589 5.01629228 61.91662288 4.72220381 101.5625 4.4375 C102.3345888 4.43195052 103.1066776 4.42640103 103.90216303 4.42068338 C123.93474999 4.27677051 143.96736109 4.13649729 164 4 C164 3.67 164 3.34 164 3 C165.98 2.67 167.96 2.34 170 2 C113.9 1.67 57.8 1.34 0 1 C0 0.67 0 0.34 0 0 Z " fill="#2C2C2B" transform="translate(205,340)"/>
<path d="M0 0 C6.03632177 3.10897281 11.07892466 8.00620751 15.39453125 13.19921875 C15.39453125 13.85921875 15.39453125 14.51921875 15.39453125 15.19921875 C15.94496094 14.87824219 16.49539062 14.55726563 17.0625 14.2265625 C21.34553558 12.33973108 25.81962423 12.53553506 30.39453125 13.19921875 C33.20580405 14.58553369 35.02416671 16.09222804 37.39453125 18.19921875 C37.06453125 19.51921875 36.73453125 20.83921875 36.39453125 22.19921875 C34.70703125 22.88671875 34.70703125 22.88671875 32.39453125 23.19921875 C31.63140625 22.72484375 30.86828125 22.25046875 30.08203125 21.76171875 C26.63060972 19.75507832 24.32840092 19.83497156 20.39453125 20.19921875 C19.40453125 20.85921875 18.41453125 21.51921875 17.39453125 22.19921875 C14.94140625 22.6484375 14.94140625 22.6484375 12.39453125 22.19921875 C10.47265625 19.96875 10.47265625 19.96875 8.64453125 17.01171875 C4.95609039 11.64168103 1.67164302 8.22029903 -4.60546875 6.19921875 C-11.79757369 4.97837405 -17.41739402 6.95307519 -23.35546875 11.13671875 C-27.00196305 14.47933852 -28.92615684 17.54881655 -30.60546875 22.19921875 C-31.57484375 22.03421875 -32.54421875 21.86921875 -33.54296875 21.69921875 C-40.35959454 20.7589945 -45.74995564 20.1328902 -51.60546875 24.19921875 C-54.41796875 24.88671875 -54.41796875 24.88671875 -56.60546875 25.19921875 C-56.93546875 23.54921875 -57.26546875 21.89921875 -57.60546875 20.19921875 C-51.87541545 15.34113008 -50.1470702 14.14986504 -42.41796875 14.69921875 C-38.50519001 14.83716485 -35.51833529 14.93423371 -32.33984375 12.375 C-31.22399553 10.79769118 -30.16174736 9.18109709 -29.15625 7.53125 C-23.08806214 -1.59395946 -9.76493862 -3.00121802 0 0 Z " fill="#131313" transform="translate(201.60546875,406.80078125)"/>
<path d="M0 0 C8.31067726 4.81890434 8.31067726 4.81890434 10.28125 8.1953125 C11.98130322 10.39424982 11.98130322 10.39424982 15.44140625 10.1796875 C16.81577745 10.08768359 18.18950123 9.98561324 19.5625 9.875 C26.19080173 9.60356954 30.74796725 10.34096362 36.3359375 14.265625 C38 16 38 16 38.625 19.375 C38.41875 20.24125 38.2125 21.1075 38 22 C36.375 22.8125 36.375 22.8125 34 23 C30.875 20.625 30.875 20.625 28 18 C25.67404054 16.83702027 24.21276769 16.83399309 21.625 16.8125 C20.85414063 16.79832031 20.08328125 16.78414063 19.2890625 16.76953125 C16.77180739 17.02297502 15.20832385 17.81126397 13 19 C11 19 11 19 9 18 C8.07104456 16.57338986 7.14652085 15.14342973 6.2578125 13.69140625 C2.46449676 8.59045682 -2.97880183 5.64964333 -9 4 C-16.77072198 2.98600366 -22.92370407 3.33251286 -29.25390625 8.19921875 C-31.89455862 10.92257611 -32.91519148 13.38397161 -34 17 C-34.97582031 16.97679687 -35.95164062 16.95359375 -36.95703125 16.9296875 C-38.22933594 16.91164063 -39.50164062 16.89359375 -40.8125 16.875 C-42.07707031 16.85179687 -43.34164063 16.82859375 -44.64453125 16.8046875 C-48.1338024 16.72418082 -48.1338024 16.72418082 -51 19 C-53.6875 18.625 -53.6875 18.625 -56 18 C-55.9375 15.6875 -55.9375 15.6875 -55 13 C-49.46169323 9.58274689 -44.37578767 9.65362924 -38 10 C-37.835 9.29875 -37.67 8.5975 -37.5 7.875 C-34.75693053 2.61745017 -29.73358483 -0.01872557 -24.6875 -2.875 C-15.81099361 -5.58308669 -8.11583327 -4.26048574 0 0 Z " fill="#151514" transform="translate(334,391)"/>
<path d="M0 0 C0.33 0.99 0.66 1.98 1 3 C1.79438477 2.83846436 2.58876953 2.67692871 3.40722656 2.51049805 C7.79282919 1.88734671 12.06089229 1.83775793 16.484375 1.83203125 C17.38117981 1.82870285 18.27798462 1.82537445 19.20196533 1.82194519 C21.08792612 1.81690235 22.97389576 1.81453604 24.85986328 1.81469727 C27.75437827 1.81249667 30.64852038 1.79427493 33.54296875 1.77539062 C35.37760286 1.77245904 37.21223879 1.77047267 39.046875 1.76953125 C40.34839508 1.75875298 40.34839508 1.75875298 41.6762085 1.74775696 C47.77115783 1.77115783 47.77115783 1.77115783 50 4 C49.34 4.66 48.68 5.32 48 6 C48.66 6.66 49.32 7.32 50 8 C34.82 8.33 19.64 8.66 4 9 C4 36.39 4 63.78 4 92 C3.67 92 3.34 92 3 92 C2.67 64.94 2.34 37.88 2 10 C1.34 10.99 0.68 11.98 0 13 C-1.57170996 9.85658007 -1.23175783 6.44228549 -1 3 C-0.67 2.01 -0.34 1.02 0 0 Z " fill="#111111" transform="translate(114,561)"/>
<path d="M0 0 C5.46733072 0.93796193 10.67412787 2.17629471 15.9375 3.9375 C24.43659069 6.65843191 33.18731485 7.7716215 42 9 C42.38218767 10.65614657 42.71395102 12.32457024 43 14 C41.4339652 15.5660348 39.92801089 15.20784495 37.75 15.25 C31.24363273 15.17616888 25.26496778 13.64464115 19 12 C17.69419172 11.67115422 16.38819672 11.34304913 15.08203125 11.015625 C8.81432395 9.41288161 2.90190413 7.65661158 -3 5 C-3 4.34 -3 3.68 -3 3 C-2.01 3 -1.02 3 0 3 C0 2.01 0 1.02 0 0 Z " fill="#171717" transform="translate(279,611)"/>
<path d="M0 0 C2.0078125 0.09375 2.0078125 0.09375 4 1 C5.0546875 2.96875 5.0546875 2.96875 5.875 5.5 C10.32395674 17.68249483 18.69610251 26.46670606 29 34 C28.67 35.32 28.34 36.64 28 38 C24.74046208 38.36474403 23.34721163 38.23959302 20.60546875 36.34765625 C18.041474 33.92449482 15.49659294 31.49278135 13 29 C11.90365234 27.92105469 11.90365234 27.92105469 10.78515625 26.8203125 C4.33399416 20.05959369 -1.25870337 11.52903118 -2 2 C-1.34 1.34 -0.68 0.68 0 0 Z " fill="#131312" transform="translate(298,475)"/>
<path d="M0 0 C1.32 0.33 2.64 0.66 4 1 C3.19843237 9.41029425 -2.57115525 14.91049439 -8.64453125 20.3828125 C-19.89323351 29.52343713 -19.89323351 29.52343713 -26 29 C-26.33 27.35 -26.66 25.7 -27 24 C-26.46632812 23.74347656 -25.93265625 23.48695313 -25.3828125 23.22265625 C-14.70427139 17.73558582 -7.11746371 9.52308693 0 0 Z " fill="#131312" transform="translate(275,491)"/>
<path d="M0 0 C0.33 0.99 0.66 1.98 1 3 C1.825 2.835 2.65 2.67 3.5 2.5 C7.41272317 1.94103955 11.05183173 1.93192813 15 2 C14.01 2.33 13.02 2.66 12 3 C12 3.66 12 4.32 12 5 C12.66 5.66 13.32 6.32 14 7 C14 7.66 14 8.32 14 9 C10.7 9 7.4 9 4 9 C4 36.39 4 63.78 4 92 C3.67 92 3.34 92 3 92 C2.67 64.94 2.34 37.88 2 10 C1.34 10.99 0.68 11.98 0 13 C-1.57170996 9.85658007 -1.23175783 6.44228549 -1 3 C-0.67 2.01 -0.34 1.02 0 0 Z " fill="#484848" transform="translate(114,561)"/>
<path d="M0 0 C12.85038144 -0.22610642 25.27609324 0.13227057 38 2 C37.01 2.66 36.02 3.32 35 4 C35.495 4.99 35.495 4.99 36 6 C35.34 6 34.68 6 34 6 C34 6.66 34 7.32 34 8 C22.78 7.67 11.56 7.34 0 7 C0 6.67 0 6.34 0 6 C5.94 5.67 11.88 5.34 18 5 C17.34 4.34 16.68 3.68 16 3 C17.32 3 18.64 3 20 3 C20 2.34 20 1.68 20 1 C13.4 1 6.8 1 0 1 C0 0.67 0 0.34 0 0 Z " fill="#3D3D3D" transform="translate(345,537)"/>
<path d="M0 0 C0.91330078 0.00451172 1.82660156 0.00902344 2.76757812 0.01367188 C4.99095738 0.0253126 7.21419121 0.04166149 9.4375 0.0625 C9.4375 0.7225 9.4375 1.3825 9.4375 2.0625 C8.4475 2.5575 8.4475 2.5575 7.4375 3.0625 C8.4275 3.7225 9.4175 4.3825 10.4375 5.0625 C0.5375 5.3925 -9.3625 5.7225 -19.5625 6.0625 C-18.9025 4.7425 -18.2425 3.4225 -17.5625 2.0625 C-18.2225 1.7325 -18.8825 1.4025 -19.5625 1.0625 C-12.99550475 0.21406826 -6.61699407 -0.06311146 0 0 Z " fill="#060606" transform="translate(355.5625,537.9375)"/>
<path d="M0 0 C6.11300502 -0.63677136 10.41346381 -0.05126462 15.53515625 3.48828125 C17 5 17 5 17.5 8.3125 C17.335 9.199375 17.17 10.08625 17 11 C15.375 11.8125 15.375 11.8125 13 12 C11.57606939 10.80787205 10.15769228 9.60713118 8.79296875 8.34765625 C5.59872699 5.94675558 1.81319045 5.04227206 -2 4 C-1.34 2.68 -0.68 1.36 0 0 Z " fill="#121111" transform="translate(355,402)"/>
<path d="M0 0 C0.33 1.65 0.66 3.3 1 5 C-1.06168985 5.19620767 -3.12440998 5.38160753 -5.1875 5.5625 C-6.33605469 5.66691406 -7.48460937 5.77132812 -8.66796875 5.87890625 C-11.68631199 5.98859985 -14.08923936 5.74002389 -17 5 C-17 3.33333333 -17 1.66666667 -17 0 C-11.06390334 -0.89316269 -5.93024803 -0.97040422 0 0 Z " fill="#1C1B1B" transform="translate(245,576)"/>
<path d="M0 0 C4.29 0.33 8.58 0.66 13 1 C13 3 13 5 13 7 C11.22950311 7.05410687 9.45853151 7.09284119 7.6875 7.125 C6.20830078 7.15980469 6.20830078 7.15980469 4.69921875 7.1953125 C2 7 2 7 -1 5 C-0.67 3.35 -0.34 1.7 0 0 Z " fill="#1C1B1B" transform="translate(195,538)"/>
<path d="M0 0 C-0.33 5.94 -0.66 11.88 -1 18 C-1.66 17.34 -2.32 16.68 -3 16 C-3.99 16.99 -4.98 17.98 -6 19 C-6.08150744 16.93816367 -6.1394194 14.87538651 -6.1875 12.8125 C-6.22230469 11.66394531 -6.25710937 10.51539063 -6.29296875 9.33203125 C-5.97323533 5.6955965 -5.18158273 3.8894086 -3 1 C-1 0 -1 0 0 0 Z " fill="#060606" transform="translate(67,596)"/>
<path d="M0 0 C0.33 0 0.66 0 1 0 C1.0814222 2.22855574 1.13938079 4.45797655 1.1875 6.6875 C1.22230469 7.92886719 1.25710937 9.17023437 1.29296875 10.44921875 C0.98063771 14.23467093 0.12195008 15.92533765 -2 19 C-2.70670728 21.69254991 -2.70670728 21.69254991 -3 24 C-3.33 24 -3.66 24 -4 24 C-4.98895111 19.92057669 -5.37419807 16.19101842 -5 12 C-3.69254251 10.31295807 -2.35827971 8.64639965 -1 7 C-0.19777849 3.310252 -0.19777849 3.310252 0 0 Z " fill="#292828" transform="translate(66,603)"/>
<path d="M0 0 C2.25 0.25 2.25 0.25 4 1 C1.98774719 4.56013958 0.74020975 6.64531616 -3 8.4375 C-5.85014821 8.97190279 -7.33222841 9.026066 -10 8 C-8.71034824 6.62437146 -7.37310707 5.29233607 -6 4 C-5.34 4 -4.68 4 -4 4 C-3.38125 3.319375 -2.7625 2.63875 -2.125 1.9375 C-1.42375 1.298125 -0.7225 0.65875 0 0 Z " fill="#0F0E0E" transform="translate(258,570)"/>
<path d="M0 0 C0.99 0.33 1.98 0.66 3 1 C3.66 0.67 4.32 0.34 5 0 C5.33 3.63 5.66 7.26 6 11 C5.34 11 4.68 11 4 11 C3.01 12.485 3.01 12.485 2 14 C0.09391902 10.78817851 -0.22266247 8.46117397 -0.125 4.75 C-0.09792969 3.41195313 -0.09792969 3.41195313 -0.0703125 2.046875 C-0.04710937 1.37140625 -0.02390625 0.6959375 0 0 Z " fill="#0A0A09" transform="translate(142,497)"/>
<path d="M0 0 C1.88638485 3.26973374 2.75896128 6.22372667 3 10 C1.5625 11.875 1.5625 11.875 0 13 C-0.66 12.67 -1.32 12.34 -2 12 C-2.33 12.66 -2.66 13.32 -3 14 C-3.6875 10.6875 -3.6875 10.6875 -4 7 C-2.625 5.3125 -2.625 5.3125 -1 4 C-0.28552357 1.89667109 -0.28552357 1.89667109 0 0 Z " fill="#201F1F" transform="translate(70,630)"/>
<path d="M0 0 C1.65 0 3.3 0 5 0 C5.38218767 1.65614657 5.71395102 3.32457024 6 5 C5 6 5 6 2.71484375 6.09765625 C1.34005859 6.08025391 1.34005859 6.08025391 -0.0625 6.0625 C-0.98160156 6.05347656 -1.90070313 6.04445313 -2.84765625 6.03515625 C-3.55792969 6.02355469 -4.26820313 6.01195312 -5 6 C-4.01 5.34 -3.02 4.68 -2 4 C-0.80767387 1.94996045 -0.80767387 1.94996045 0 0 Z " fill="#20201F" transform="translate(316,620)"/>
<path d="M0 0 C1.134375 0.020625 2.26875 0.04125 3.4375 0.0625 C2.625 2.5 2.625 2.5 1.4375 5.0625 C-1.44461302 6.02320434 -3.26100044 6.16831883 -6.25 6.125 C-7.46236328 6.11146484 -7.46236328 6.11146484 -8.69921875 6.09765625 C-9.62154297 6.08025391 -9.62154297 6.08025391 -10.5625 6.0625 C-10.2325 5.0725 -9.9025 4.0825 -9.5625 3.0625 C-7.0625 1.9375 -7.0625 1.9375 -4.5625 1.0625 C-3.5625 0.0625 -3.5625 0.0625 0 0 Z " fill="#262626" transform="translate(167.5625,563.9375)"/>
<path d="M0 0 C0 3.3 0 6.6 0 10 C-1.65 10.33 -3.3 10.66 -5 11 C-5.35061325 5.653148 -5.35061325 5.653148 -5 3 C-2.09375 0 -2.09375 0 0 0 Z " fill="#0A0A0A" transform="translate(148,519)"/>
<path d="M0 0 C5.61 0 11.22 0 17 0 C16.01 1.485 16.01 1.485 15 3 C11.7421875 3.29296875 11.7421875 3.29296875 7.875 3.1875 C5.95300781 3.14689453 5.95300781 3.14689453 3.9921875 3.10546875 C3.00476563 3.07066406 2.01734375 3.03585937 1 3 C0.67 2.01 0.34 1.02 0 0 Z " fill="#0F0F0E" transform="translate(348,539)"/>
<path d="M0 0 C2 3 2 3 1.75 4.9375 C0.97889441 7.05804039 0.03417304 8.99628974 -1 11 C-1.33 11.99 -1.66 12.98 -2 14 C-3.53214888 10.93570224 -3.22938548 8.3834358 -3 5 C-1.5 2.0625 -1.5 2.0625 0 0 Z " fill="#0C0C0C" transform="translate(66,617)"/>
<path d="M0 0 C1.65 0 3.3 0 5 0 C5.66 1.32 6.32 2.64 7 4 C4.35261084 5.4606285 3.10551666 6 0 6 C-0.66 4.68 -1.32 3.36 -2 2 C-1.34 2 -0.68 2 0 2 C0 1.34 0 0.68 0 0 Z " fill="#0F0E0E" transform="translate(208,538)"/>
<path d="M0 0 C2.31 0 4.62 0 7 0 C6.01 0.66 5.02 1.32 4 2 C4.33 2.66 4.66 3.32 5 4 C4.34 4 3.68 4 3 4 C3 4.66 3 5.32 3 6 C0.36 6 -2.28 6 -5 6 C-4.360625 5.7525 -3.72125 5.505 -3.0625 5.25 C-0.81258459 4.18437567 -0.81258459 4.18437567 -0.25 1.875 C-0.1675 1.25625 -0.085 0.6375 0 0 Z " fill="#2A2A2A" transform="translate(376,539)"/>
<path d="M0 0 C2.64 0.33 5.28 0.66 8 1 C8.33 2.65 8.66 4.3 9 6 C7.02 6 5.04 6 3 6 C2.67 5.01 2.34 4.02 2 3 C2.33 2.34 2.66 1.68 3 1 C2.01 0.67 1.02 0.34 0 0 Z " fill="#252524" transform="translate(237,575)"/>
<path d="M0 0 C1.32 0.33 2.64 0.66 4 1 C3.34 1 2.68 1 2 1 C1.67 2.65 1.34 4.3 1 6 C-2.3 6 -5.6 6 -9 6 C-9 5.67 -9 5.34 -9 5 C-5.535 4.505 -5.535 4.505 -2 4 C-2 3.34 -2 2.68 -2 2 C-1.34 2 -0.68 2 0 2 C0 1.34 0 0.68 0 0 Z " fill="#343434" transform="translate(324,388)"/>
<path d="M0 0 C1.2065625 0.0309375 1.2065625 0.0309375 2.4375 0.0625 C1.4475 0.5575 1.4475 0.5575 0.4375 1.0625 C0.7675 2.3825 1.0975 3.7025 1.4375 5.0625 C0.1175 5.3925 -1.2025 5.7225 -2.5625 6.0625 C-2.94468767 4.40635343 -3.27645102 2.73792976 -3.5625 1.0625 C-2.5625 0.0625 -2.5625 0.0625 0 0 Z " fill="#222221" transform="translate(197.5625,537.9375)"/>
<path d="M0 0 C0.99 0 1.98 0 3 0 C3.3367697 4.93928888 3.16130459 5.78492722 0 10 C0 6.7 0 3.4 0 0 Z " fill="#0F0F0E" transform="translate(62,604)"/>
<path d="M0 0 C0 0.99 0 1.98 0 3 C-0.66 3 -1.32 3 -2 3 C-2.33 4.32 -2.66 5.64 -3 7 C-3.66 7 -4.32 7 -5 7 C-5.6875 5.1875 -5.6875 5.1875 -6 3 C-4.04862098 0.26806937 -3.44686768 0 0 0 Z " fill="#1D1D1C" transform="translate(149,527)"/>
<path d="M0 0 C1.32 0.33 2.64 0.66 4 1 C1.36 2.98 -1.28 4.96 -4 7 C-4.66 6.67 -5.32 6.34 -6 6 C-5.09972412 4.96468274 -4.17906965 3.94705835 -3.25 2.9375 C-2.48429688 2.08478516 -2.48429688 2.08478516 -1.703125 1.21484375 C-1.14109375 0.81394531 -0.5790625 0.41304688 0 0 Z " fill="#1D1D1D" transform="translate(197,511)"/>
<path d="M0 0 C2.4375 0.375 2.4375 0.375 5 1 C5.33 1.66 5.66 2.32 6 3 C3.36 3 0.72 3 -2 3 C-1.34 2.01 -0.68 1.02 0 0 Z " fill="#080808" transform="translate(180,466)"/>
<path d="M0 0 C1.65 0.33 3.3 0.66 5 1 C4.01 1.495 4.01 1.495 3 2 C3 2.66 3 3.32 3 4 C1.68 4.33 0.36 4.66 -1 5 C-0.67 3.35 -0.34 1.7 0 0 Z " fill="#090908" transform="translate(326,389)"/>
</svg>
